SplineFontDB: 3.0
FontName: RaghuMalayalamSans
FullName: RaghuMalayalam
FamilyName: RaghuMalayalam
Weight: Book
Copyright: RaghuMalayalam`Centre for Development of Advanced Computing, Mumbai. Font Design: Prof.R.K.Joshi and Rajith Kumar K.M., assisted by Nirmal Biswas, Jui Mhatre and Supriya Kharkar. Script: Malayalam. Full Font. Contains font + Unicode set requirements.
Version: Version 2.00 (2008)
ItalicAngle: 0
UnderlinePosition: -290
UnderlineWidth: 116
Ascent: 1638
Descent: 410
LayerCount: 2
Layer: 0 1 "Back"  1
Layer: 1 1 "Fore"  0
XUID: [1021 505 1187139440 9425761]
FSType: 0
OS2Version: 1
OS2_WeightWidthSlopeOnly: 0
OS2_UseTypoMetrics: 1
CreationTime: 1136575263
ModificationTime: 1413631026
PfmFamily: 81
TTFWeight: 400
TTFWidth: 5
LineGap: 0
VLineGap: 0
Panose: 2 11 4 0 0 0 0 0 0 0
OS2TypoAscent: -118
OS2TypoAOffset: 1
OS2TypoDescent: -550
OS2TypoDOffset: 1
OS2TypoLinegap: 0
OS2WinAscent: -21
OS2WinAOffset: 1
OS2WinDescent: 35
OS2WinDOffset: 1
HheadAscent: -21
HheadAOffset: 1
HheadDescent: -35
HheadDOffset: 1
OS2SubXSize: 1434
OS2SubYSize: 1331
OS2SubXOff: 0
OS2SubYOff: 293
OS2SupXSize: 1434
OS2SupYSize: 1331
OS2SupXOff: 0
OS2SupYOff: 928
OS2StrikeYSize: 116
OS2StrikeYPos: 484
OS2Vendor: 'NCST'
OS2CodePages: 00000001.00000000
OS2UnicodeRanges: 00800003.00000000.00000000.00000000
Lookup: 4 0 0 "'akhn' Akhand in Malay+AQEA-lam lookup 0"  {"'akhn' Akhand in Malay+AQEA-lam lookup 0 subtable"  } ['akhn' ('mlym' <'dflt' > ) ]
Lookup: 4 0 0 "'akhn' Akhand in Malay+AQEA-lam2 lookup 0"  {"'akhn' Akhand in Malay+AQEA-lam2 lookup 0 subtable"  } ['akhn' ('mlm2' <'dflt' > ) ]
Lookup: 4 0 0 "'pref' Pre Base Forms in Malay+AQEA-lam2 lookup 1"  {"'pref' Pre Base Forms in Malay+AQEA-lam2 lookup 1 subtatble"  } ['pref' ('mlm2' <'dflt' > ) ]
Lookup: 4 0 0 "'blwf' Below Base Forms in Malay+AQEA-lam lookup 2"  {"'blwf' Below Base Forms in Malay+AQEA-lam lookup 2 subtable"  } ['blwf' ('mlym' <'dflt' > ) ]

StartChar: .notdef
Encoding: 139 -1 0
Width: 1024
VWidth: 2064
Flags: W
LayerCount: 2
Fore
SplineSet
108 -4 m 1,0,-1
 108 1556 l 1,1,-1
 916 1556 l 1,2,-1
 916 -4 l 1,3,-1
 108 -4 l 1,0,-1
276 164 m 1,4,-1
 748 164 l 1,5,-1
 748 1388 l 1,6,-1
 276 1388 l 1,7,-1
 276 164 l 1,4,-1
EndSplineSet
EndChar

StartChar: exclam
Encoding: 1 33 4
Width: 522
VWidth: 2064
GlyphClass: 2
Flags: W
LayerCount: 2
Fore
SplineSet
438 1406 m 1,0,1
 427 1258 427 1258 421 864 c 2,2,-1
 417 585 l 2,3,4
 415 434 415 434 416 398 c 2,5,-1
 417 368 l 1,6,-1
 389 378 l 2,7,8
 346 393 346 393 306 378 c 2,9,-1
 279 368 l 1,10,-1
 279 397 l 1,11,12
 280 529 280 529 279 589 c 2,13,-1
 275 864 l 2,14,15
 271 1145 271 1145 256 1406 c 2,16,-1
 254 1439 l 1,17,-1
 284 1425 l 2,18,19
 309 1414 309 1414 345.5 1414 c 128,-1,20
 382 1414 382 1414 410 1426 c 2,21,-1
 440 1438 l 1,22,-1
 438 1406 l 1,0,1
458 220.5 m 128,-1,24
 501 178 501 178 501 117.5 c 128,-1,25
 501 57 501 57 458 14 c 128,-1,26
 415 -29 415 -29 355 -29 c 128,-1,27
 295 -29 295 -29 252 14 c 128,-1,28
 209 57 209 57 209 117.5 c 128,-1,29
 209 178 209 178 252 220.5 c 128,-1,30
 295 263 295 263 355 263 c 128,-1,23
 415 263 415 263 458 220.5 c 128,-1,24
EndSplineSet
EndChar

StartChar: quotedbl
Encoding: 2 34 5
Width: 561
VWidth: 2064
GlyphClass: 2
Flags: W
LayerCount: 2
Fore
SplineSet
581 1406 m 1,0,1
 573 1279 573 1279 561 1016 c 1,2,-1
 560 990 l 1,3,-1
 535 998 l 2,4,5
 507 1007 507 1007 472 998 c 1,6,-1
 448 991 l 1,7,-1
 447 1016 l 1,8,9
 442 1205 442 1205 426 1405 c 1,10,-1
 424 1433 l 1,11,-1
 451 1426 l 2,12,13
 503 1413 503 1413 556 1426 c 2,14,-1
 583 1433 l 1,15,-1
 581 1406 l 1,0,1
323 1406 m 1,16,17
 315 1279 315 1279 303 1016 c 1,18,-1
 302 990 l 1,19,-1
 277 998 l 2,20,21
 249 1007 249 1007 214 998 c 1,22,-1
 190 991 l 1,23,-1
 189 1016 l 1,24,25
 183 1206 183 1206 168 1406 c 2,26,-1
 166 1433 l 1,27,-1
 193 1426 l 2,28,29
 245 1413 245 1413 298 1426 c 2,30,-1
 325 1433 l 1,31,-1
 323 1406 l 1,16,17
EndSplineSet
EndChar

StartChar: numbersign
Encoding: 3 35 6
Width: 1061
VWidth: 2064
GlyphClass: 2
Flags: W
LayerCount: 2
Fore
SplineSet
1090 723 m 1,0,-1
 877 723 l 1,1,-1
 848 515 l 1,2,-1
 1040 515 l 1,3,4
 1039 511 1039 511 1036.5 502.5 c 128,-1,5
 1034 494 1034 494 1029 472.5 c 0,6,7
 1024 451 1024 451 1029 429 c 0,8,9
 1034 407 1034 407 1036.5 399 c 128,-1,10
 1039 391 1039 391 1040 387 c 1,11,-1
 828 387 l 1,12,-1
 770 -10 l 1,13,-1
 748 -3 l 2,14,15
 731 2 731 2 703 2 c 0,16,17
 675 2 675 2 662 -3 c 2,18,-1
 630 -15 l 1,19,-1
 688 387 l 1,20,-1
 480 387 l 1,21,-1
 423 -8 l 1,22,-1
 401 -3 l 2,23,24
 350 9 350 9 313 -3 c 1,25,-1
 282 -12 l 1,26,-1
 346 387 l 1,27,-1
 143 387 l 1,28,-1
 148 411 l 2,29,30
 154 437 154 437 154 453 c 0,31,32
 154 469 154 469 149 490 c 2,33,-1
 142 515 l 1,34,-1
 366 515 l 1,35,-1
 397 723 l 1,36,-1
 192 723 l 1,37,-1
 197 747 l 2,38,39
 203 774 203 774 203 787 c 128,-1,40
 203 800 203 800 197 827 c 2,41,-1
 192 851 l 1,42,-1
 421 851 l 1,43,-1
 472 1224 l 1,44,45
 476 1223 476 1223 483 1221.5 c 128,-1,46
 490 1220 490 1220 516 1214 c 0,47,48
 542 1208 542 1208 587 1219 c 1,49,-1
 616 1227 l 1,50,-1
 558 851 l 1,51,-1
 761 851 l 1,52,-1
 815 1228 l 1,53,-1
 838 1219 l 2,54,55
 882 1202 882 1202 922 1218 c 2,56,-1
 955 1232 l 1,57,-1
 902 851 l 1,58,-1
 1086 851 l 1,59,-1
 1080 826 l 2,60,61
 1068 777 1068 777 1080 750 c 1,62,-1
 1090 723 l 1,0,-1
740 723 m 1,63,-1
 535 723 l 1,64,-1
 504 515 l 1,65,-1
 715 515 l 1,66,-1
 740 723 l 1,63,-1
EndSplineSet
EndChar

StartChar: dollar
Encoding: 4 36 7
Width: 972
VWidth: 2064
GlyphClass: 2
Flags: W
LayerCount: 2
Fore
SplineSet
926 1006 m 2,0,1
 893 1002 893 1002 873 969 c 2,2,-1
 852 936 l 1,3,-1
 837 973 l 2,4,5
 816 1027 816 1027 786 1066 c 1,6,7
 734 1126 734 1126 657 1141 c 1,8,-1
 657 675 l 1,9,10
 697 660 l 2,11,12
 971 558 971 558 971 326 c 0,13,14
 971 192 971 192 881 95 c 1,15,16
 796 -2 796 -2 657 -26 c 1,17,-1
 657 -148 l 1,18,-1
 630 -138 l 2,19,20
 600 -127 600 -127 570 -138 c 2,21,-1
 543 -148 l 1,22,-1
 543 -31 l 1,23,24
 318 -15 318 -15 192 203 c 1,25,-1
 179 225 l 1,26,-1
 203 232 l 2,27,28
 241 244 241 244 268 278 c 2,29,-1
 291 307 l 1,30,-1
 303 273 l 2,31,32
 322 218 322 218 347 187 c 1,33,34
 375 138 375 138 431.5 102.5 c 128,-1,35
 488 67 488 67 543 60 c 1,36,-1
 543 560 l 1,37,38
 518 569 518 569 478 584 c 0,39,40
 251 667 251 667 251 888 c 0,41,42
 251 924 251 924 258 961 c 1,43,44
 293 1110 293 1110 436 1193 c 0,45,46
 478 1218 478 1218 543 1229 c 1,47,-1
 543 1367 l 1,48,-1
 572 1353 l 2,49,50
 600 1339 600 1339 628 1353 c 2,51,-1
 657 1367 l 1,52,-1
 657 1233 l 1,53,54
 721 1228 721 1228 785 1193 c 0,55,56
 887 1139 887 1139 942 1035 c 2,57,-1
 955 1010 l 1,58,-1
 926 1006 l 2,0,1
543 1132 m 1,59,60
 397 1079 397 1079 397 915 c 0,61,62
 397 804 397 804 485 751 c 1,63,64
 492 745 492 745 543 723 c 1,65,-1
 543 1132 l 1,59,60
657 71 m 1,66,67
 741 100 741 100 780.5 164 c 128,-1,68
 820 228 820 228 820 310 c 128,-1,69
 820 392 820 392 779 434.5 c 128,-1,70
 738 477 738 477 657 513 c 1,71,-1
 657 71 l 1,66,67
EndSplineSet
EndChar

StartChar: percent
Encoding: 5 37 8
Width: 1181
VWidth: 2064
GlyphClass: 2
Flags: W
LayerCount: 2
Fore
SplineSet
662 1068.5 m 128,-1,1
 659 958 659 958 585 895.5 c 128,-1,2
 511 833 511 833 412.5 832.5 c 128,-1,3
 314 832 314 832 241.5 897.5 c 128,-1,4
 169 963 169 963 168.5 1073.5 c 128,-1,5
 168 1184 168 1184 243.5 1248.5 c 128,-1,6
 319 1313 319 1313 417 1313.5 c 128,-1,7
 515 1314 515 1314 590 1246.5 c 128,-1,0
 665 1179 665 1179 662 1068.5 c 128,-1,1
1133 1233 m 1,8,9
 966 992 966 992 807 740 c 1,10,-1
 644 484 l 2,11,12
 441 167 441 167 298 -77 c 1,13,-1
 283 -104 l 1,14,-1
 265 -78 l 2,15,16
 241 -44 241 -44 191 -30 c 2,17,-1
 163 -22 l 1,18,-1
 180 1 l 2,19,20
 280 137 280 137 545 553 c 2,21,-1
 706 805 l 2,22,23
 823 989 823 989 1013 1308 c 2,24,-1
 1032 1340 l 1,25,-1
 1048 1307 l 2,26,27
 1065 1272 1065 1272 1120 1264 c 2,28,-1
 1152 1259 l 1,29,-1
 1133 1233 l 1,8,9
1200.5 213.5 m 128,-1,31
 1198 103 1198 103 1124 40.5 c 128,-1,32
 1050 -22 1050 -22 951 -23 c 128,-1,33
 852 -24 852 -24 780 41.5 c 128,-1,34
 708 107 708 107 707 217.5 c 128,-1,35
 706 328 706 328 781.5 393 c 128,-1,36
 857 458 857 458 955.5 458.5 c 128,-1,37
 1054 459 1054 459 1128.5 391.5 c 128,-1,30
 1203 324 1203 324 1200.5 213.5 c 128,-1,31
296 1072 m 0,38,39
 297 913 297 913 414 910 c 0,40,41
 473 909 473 909 504.5 953 c 128,-1,42
 536 997 536 997 536 1077 c 0,43,44
 536 1232 536 1232 415 1235 c 1,45,46
 353 1233 353 1233 324 1194.5 c 128,-1,47
 295 1156 295 1156 296 1072 c 0,38,39
1043 98 m 1,48,49
 1074 143 1074 143 1075 222 c 0,50,51
 1076 376 1076 376 954 380 c 1,52,53
 892 378 892 378 863 339.5 c 128,-1,54
 834 301 834 301 834 217 c 0,55,56
 835 58 835 58 955 55 c 0,57,58
 1011 54 1011 54 1043 98 c 1,48,49
EndSplineSet
EndChar

StartChar: ampersand
Encoding: 6 38 9
Width: 1073
VWidth: 2064
GlyphClass: 2
Flags: W
LayerCount: 2
Fore
SplineSet
837 821 m 1,0,1
 824 651 824 651 616 544 c 1,2,3
 763 341 763 341 844 243 c 1,4,5
 858.72 275.383 858.72 275.383 875 338 c 2,6,-1
 883 370 l 1,7,-1
 907 348 l 2,8,9
 942 317 942 317 979 323 c 1,10,-1
 1010 327 l 1,11,-1
 1001 297 l 2,12,13
 974 204 974 204 923 146 c 1,14,15
 973 88 973 88 1046 16 c 1,16,-1
 1071 -8 l 1,17,-1
 1037 -17 l 2,18,19
 988 -30 988 -30 969 -79 c 2,20,-1
 956 -111 l 1,21,-1
 934 -85 l 1,22,23
 897 -38 897 -38 824 51 c 1,24,25
 727 -23 727 -23 594 -28 c 1,26,27
 372 -32 372 -32 272 90 c 0,28,29
 209 167 209 167 209 258 c 1,30,31
 206 463 206 463 457 571 c 1,32,33
 394 655 394 655 385 673 c 1,34,35
 342 748 342 748 346 822 c 1,36,37
 354 933 354 933 430.5 985 c 128,-1,38
 507 1037 507 1037 608 1035 c 128,-1,39
 709 1033 709 1033 770.5 979 c 128,-1,40
 832 925 832 925 837 821 c 1,0,1
670 709 m 1,41,42
 693 759 693 759 696.5 814 c 128,-1,43
 700 869 700 869 674.5 908 c 128,-1,44
 649 947 649 947 597.5 946.5 c 128,-1,45
 546 946 546 946 516.5 910.5 c 128,-1,46
 487 875 487 875 489 821 c 1,47,48
 485 755 485 755 566 621 c 1,49,50
 644 667 644 667 670 709 c 1,41,42
766 128 m 1,51,-1
 644 299 l 1,52,53
 592 384 592 384 510 492 c 1,54,55
 354 412 354 412 364 257 c 1,56,57
 371 170 371 170 431 116 c 128,-1,58
 491 62 491 62 595 61 c 0,59,60
 646 60 646 60 695.5 83 c 128,-1,61
 745 106 745 106 766 128 c 1,51,-1
EndSplineSet
EndChar

StartChar: quotesingle
Encoding: 7 39 10
Width: 332
VWidth: 2064
GlyphClass: 2
Flags: W
LayerCount: 2
Fore
SplineSet
331 1406 m 1,0,1
 323 1279 323 1279 311 1016 c 1,2,-1
 310 990 l 1,3,-1
 285 998 l 2,4,5
 257 1007 257 1007 222 998 c 1,6,-1
 198 991 l 1,7,-1
 197 1016 l 1,8,9
 192 1205 192 1205 177 1406 c 2,10,-1
 175 1433 l 1,11,-1
 202 1426 l 2,12,13
 254 1413 254 1413 306 1426 c 2,14,-1
 333 1433 l 1,15,-1
 331 1406 l 1,0,1
EndSplineSet
EndChar

StartChar: parenleft
Encoding: 8 40 11
Width: 614
VWidth: 2064
GlyphClass: 2
Flags: W
LayerCount: 2
Fore
SplineSet
713 1503 m 2,0,1
 522 1407 522 1407 418 1163 c 128,-1,2
 314 919 314 919 319 644 c 1,3,4
 314 367 314 367 418.5 115 c 128,-1,5
 523 -137 523 -137 713 -233 c 2,6,-1
 733 -243 l 1,7,-1
 721 -262 l 2,8,9
 714 -272 714 -272 713 -288 c 2,10,-1
 712 -315 l 1,11,-1
 686 -306 l 1,12,13
 485 -230 485 -230 341 2 c 1,14,15
 177 269 177 269 177 629 c 128,-1,16
 177 989 177 989 341 1260 c 0,17,18
 486 1500 486 1500 687 1576 c 1,19,-1
 714 1586 l 1,20,-1
 714 1557 l 2,21,22
 714 1543 714 1543 721 1532 c 2,23,-1
 733 1513 l 1,24,-1
 713 1503 l 2,0,1
EndSplineSet
EndChar

StartChar: parenright
Encoding: 9 41 12
Width: 605
VWidth: 2064
GlyphClass: 2
Flags: W
LayerCount: 2
Fore
SplineSet
461 1260 m 0,0,1
 625 988 625 988 625 628.5 c 128,-1,2
 625 269 625 269 461 2 c 1,3,4
 317 -230 317 -230 116 -306 c 1,5,-1
 89 -316 l 1,6,-1
 89 -287 l 2,7,8
 89 -273 89 -273 82 -263 c 2,9,-1
 68 -244 l 1,10,-1
 89 -233 l 1,11,12
 279 -137 279 -137 383.5 115 c 128,-1,13
 488 367 488 367 483 644 c 1,14,15
 488 919 488 919 384 1163 c 128,-1,16
 280 1407 280 1407 89 1503 c 1,17,-1
 68 1513 l 1,18,-1
 82 1532 l 2,19,20
 89 1543 89 1543 89 1557 c 2,21,-1
 89 1586 l 1,22,-1
 116 1576 l 1,23,24
 316 1500 316 1500 461 1260 c 0,0,1
EndSplineSet
EndChar

StartChar: asterisk
Encoding: 10 42 13
Width: 743
VWidth: 2064
GlyphClass: 2
Flags: W
LayerCount: 2
Fore
SplineSet
779 1103 m 1,0,-1
 582 1013 l 1,1,-1
 775 935 l 1,2,-1
 757 914 l 2,3,4
 724 874 724 874 713 833 c 2,5,-1
 706 806 l 1,6,-1
 522 928 l 1,7,-1
 546 721 l 1,8,-1
 521 724 l 2,9,10
 461 732 461 732 425 723 c 2,11,-1
 397 716 l 1,12,-1
 418 922 l 1,13,-1
 247 802 l 1,14,-1
 238 826 l 2,15,16
 220 875 220 875 188 906 c 2,17,-1
 167 926 l 1,18,-1
 363 1012 l 1,19,-1
 161 1102 l 1,20,-1
 183 1123 l 2,21,22
 218 1156 218 1156 228 1201 c 2,23,-1
 235 1230 l 1,24,-1
 418 1104 l 1,25,-1
 398 1335 l 1,26,-1
 433 1312 l 2,27,28
 443 1306 443 1306 473 1306 c 0,29,30
 503 1306 503 1306 516 1313 c 2,31,-1
 549 1330 l 1,32,-1
 525 1102 l 1,33,-1
 701 1230 l 1,34,-1
 709 1202 l 2,35,36
 722 1154 722 1154 757 1124 c 1,37,-1
 779 1103 l 1,0,-1
EndSplineSet
EndChar

StartChar: plus
Encoding: 11 43 14
Width: 940
VWidth: 2064
GlyphClass: 2
Flags: W
LayerCount: 2
Fore
SplineSet
899 430 m 1,0,-1
 638 430 l 1,1,-1
 639 171 l 1,2,-1
 488 171 l 1,3,-1
 488 430 l 1,4,-1
 230 430 l 1,5,-1
 230 581 l 1,6,-1
 488 581 l 1,7,-1
 488 840 l 1,8,-1
 639 840 l 1,9,-1
 638 581 l 1,10,-1
 899 581 l 1,11,-1
 899 430 l 1,0,-1
EndSplineSet
EndChar

StartChar: comma
Encoding: 12 44 15
Width: 394
VWidth: 2064
GlyphClass: 2
Flags: W
LayerCount: 2
Fore
SplineSet
136 -212 m 1,0,1
 240 -51 240 -51 240 163 c 0,2,3
 240 202 240 202 236 235 c 2,4,-1
 233 264 l 1,5,-1
 261 256 l 1,6,7
 322 240 322 240 389 256 c 2,8,-1
 414 262 l 1,9,-1
 414 237 l 1,10,11
 418 -76 418 -76 230 -272 c 1,12,-1
 212 -291 l 1,13,-1
 199 -268 l 2,14,15
 183 -241 183 -241 136 -212 c 1,0,1
EndSplineSet
EndChar

StartChar: hyphen
Encoding: 13 45 16
Width: 915
VWidth: 2064
GlyphClass: 2
Flags: W
LayerCount: 2
Fore
SplineSet
879 430 m 1,0,-1
 225 430 l 1,1,-1
 231 454 l 2,2,3
 236 478 236 478 236 502 c 0,4,5
 236 526 236 526 230 557 c 2,6,-1
 226 581 l 1,7,-1
 878 581 l 1,8,-1
 874 558 l 2,9,10
 868 524 868 524 868 501.5 c 0,11,12
 868 479 868 479 874 454 c 2,13,-1
 879 430 l 1,0,-1
EndSplineSet
EndChar

StartChar: period
Encoding: 14 46 17
Width: 408
VWidth: 2064
GlyphClass: 2
Flags: W
LayerCount: 2
Fore
SplineSet
426 220.5 m 128,-1,1
 469 178 469 178 469 117.5 c 128,-1,2
 469 57 469 57 426 14 c 128,-1,3
 383 -29 383 -29 322.5 -29 c 128,-1,4
 262 -29 262 -29 219.5 14 c 128,-1,5
 177 57 177 57 177 117.5 c 128,-1,6
 177 178 177 178 219.5 220.5 c 128,-1,7
 262 263 262 263 322.5 263 c 128,-1,0
 383 263 383 263 426 220.5 c 128,-1,1
EndSplineSet
EndChar

StartChar: slash
Encoding: 15 47 18
Width: 772
VWidth: 2064
GlyphClass: 2
Flags: W
LayerCount: 2
Fore
SplineSet
687 1369 m 1,0,1
 729 1355 729 1355 745.5 1355 c 128,-1,2
 762 1355 762 1355 787 1363 c 2,3,-1
 826 1376 l 1,4,-1
 295 -23 l 1,5,6
 252 -8 252 -8 235.5 -8 c 128,-1,7
 219 -8 219 -8 195 -17 c 2,8,-1
 154 -31 l 1,9,-1
 687 1369 l 1,0,1
EndSplineSet
EndChar

StartChar: zero
Encoding: 16 48 19
Width: 971
VWidth: 2064
GlyphClass: 2
Flags: W
LayerCount: 2
Fore
SplineSet
990 509 m 128,-1,1
 986 248 986 248 876 107 c 128,-1,2
 766 -34 766 -34 582.5 -28.5 c 128,-1,3
 399 -23 399 -23 288 122 c 0,4,5
 178 267 178 267 176 523.5 c 128,-1,6
 174 780 174 780 290.5 926 c 128,-1,7
 407 1072 407 1072 586 1073.5 c 128,-1,8
 765 1075 765 1075 879.5 922.5 c 128,-1,0
 994 770 994 770 990 509 c 128,-1,1
830 520 m 1,9,10
 829 745 829 745 780 853 c 0,11,12
 722 981 722 981 584 982 c 0,13,14
 328.184 983.854 328.184 983.854 337 510 c 0,15,16
 341 295 341 295 383 199 c 0,17,18
 437 75 437 75 584 63 c 1,19,20
 735 70 735 70 789 188 c 0,21,22
 836 289 836 289 830 520 c 1,9,10
EndSplineSet
EndChar

StartChar: one
Encoding: 17 49 20
Width: 590
VWidth: 2064
GlyphClass: 2
Flags: W
LayerCount: 2
Fore
SplineSet
501 -3 m 2,0,1
 472 9 472 9 452 9 c 128,-1,2
 432 9 432 9 394 -3 c 2,3,-1
 366 -12 l 1,4,-1
 368 17 l 2,5,6
 377 141 377 141 377 362 c 2,7,-1
 377 908 l 1,8,-1
 224 803 l 1,9,-1
 220 836 l 2,10,11
 214 888 214 888 184 911 c 1,12,-1
 160 931 l 1,13,-1
 188 945 l 2,14,15
 278 990 278 990 447 1087 c 1,16,17
 479 1072 479 1072 486 1078 c 2,18,-1
 520 1112 l 1,19,-1
 520 362 l 2,20,21
 520 137 520 137 528 17 c 2,22,-1
 530 -14 l 1,23,-1
 501 -3 l 2,0,1
EndSplineSet
EndChar

StartChar: two
Encoding: 18 50 21
Width: 877
VWidth: 2064
GlyphClass: 2
Flags: W
LayerCount: 2
Fore
SplineSet
876 -12 m 1,0,1
 705 1 705 1 182 -10 c 1,2,-1
 158 -11 l 1,3,-1
 162 14 l 2,4,5
 167 39 167 39 155 71 c 1,6,7
 381 193 381 193 573 437 c 0,8,9
 621 498 621 498 663.5 602 c 128,-1,10
 706 706 706 706 702 787 c 1,11,12
 704 861 704 861 660 923 c 128,-1,13
 616 985 616 985 529 986 c 0,14,15
 354 987 354 987 329 761 c 1,16,-1
 326 737 l 1,17,-1
 304 744 l 1,18,19
 241 761 241 761 195 744 c 2,20,-1
 162 732 l 1,21,-1
 168 767 l 1,22,23
 222 1066 222 1066 530 1079 c 1,24,25
 672 1081 672 1081 767.5 999.5 c 128,-1,26
 863 918 863 918 863 789 c 1,27,28
 859 644 859 644 776 510 c 0,29,30
 733 441 733 441 630 324 c 128,-1,31
 527 207 527 207 407 109 c 1,32,33
 568 99 568 99 591 99 c 1,34,35
 711 105 711 105 876 114 c 2,36,-1
 909 116 l 1,37,-1
 895 86 l 2,38,39
 888 70 888 70 888 51 c 128,-1,40
 888 32 888 32 895 16 c 2,41,-1
 909 -14 l 1,42,-1
 876 -12 l 1,0,1
EndSplineSet
EndChar

StartChar: three
Encoding: 19 51 22
Width: 846
VWidth: 2064
GlyphClass: 2
Flags: W
LayerCount: 2
Fore
SplineSet
850 331 m 0,0,1
 850 154 850 154 753.5 62.5 c 128,-1,2
 657 -29 657 -29 471 -29 c 0,3,4
 339 -29 339 -29 237.5 43.5 c 128,-1,5
 136 116 136 116 127 248 c 1,6,-1
 125 286 l 1,7,-1
 157 266 l 2,8,9
 172 257 172 257 201 257.5 c 128,-1,10
 230 258 230 258 247 267 c 2,11,-1
 278 283 l 1,12,-1
 276 248 l 2,13,14
 272 166 272 166 330 113.5 c 128,-1,15
 388 61 388 61 471 63 c 1,16,17
 584 63 584 63 637 135.5 c 128,-1,18
 690 208 690 208 690 305 c 0,19,20
 690 456 690 456 581 523 c 0,21,22
 532 553 532 553 480.5 553 c 128,-1,23
 429 553 429 553 390 544 c 2,24,-1
 352 535 l 1,25,-1
 366 570 l 2,26,27
 382 609 382 609 367 646 c 1,28,-1
 348 688 l 1,29,-1
 392 673 l 2,30,31
 423 662 423 662 493.5 662 c 128,-1,32
 564 662 564 662 606 704.5 c 128,-1,33
 648 747 648 747 648 827.5 c 128,-1,34
 648 908 648 908 606 950.5 c 128,-1,35
 564 993 564 993 489 995.5 c 128,-1,36
 414 998 414 998 361 948 c 128,-1,37
 308 898 308 898 299 798 c 2,38,-1
 295 753 l 1,39,-1
 264 786 l 2,40,41
 257 792 257 792 222 796 c 128,-1,42
 187 800 187 800 171 793 c 2,43,-1
 135 777 l 1,44,-1
 144 816 l 2,45,46
 206 1084 206 1084 493 1087 c 1,47,48
 618 1093 618 1093 713.5 1020 c 128,-1,49
 809 947 809 947 809 842.5 c 128,-1,50
 809 738 809 738 740 671 c 0,51,52
 697 629 697 629 639 608 c 1,53,54
 673 597 673 597 703 581 c 1,55,56
 766 551 766 551 808 474.5 c 128,-1,57
 850 398 850 398 850 331 c 0,0,1
EndSplineSet
EndChar

StartChar: four
Encoding: 20 52 23
Width: 909
VWidth: 2064
GlyphClass: 2
Flags: W
LayerCount: 2
Fore
SplineSet
926 308 m 2,0,1
 870 320 870 320 746 321 c 1,2,3
 747 218 747 218 754 17 c 2,4,-1
 755 -14 l 1,5,-1
 727 -3 l 2,6,7
 698 9 698 9 678 9 c 128,-1,8
 658 9 658 9 620 -3 c 2,9,-1
 592 -12 l 1,10,-1
 594 18 l 2,11,12
 595 31 595 31 602 321 c 1,13,14
 316 323 316 323 148 314 c 2,15,-1
 127 313 l 1,16,-1
 127 371 l 1,17,-1
 631 1060 l 1,18,19
 678 1042 678 1042 721 1054 c 1,20,-1
 746 1062 l 1,21,-1
 746 412 l 1,22,23
 808 413 808 413 928 423 c 1,24,-1
 957 425 l 1,25,-1
 949 398 l 2,26,27
 941 370 941 370 950 332 c 1,28,-1
 956 302 l 1,29,-1
 926 308 l 2,0,1
603 412 m 1,30,-1
 603 874 l 1,31,-1
 312 412 l 1,32,-1
 603 412 l 1,30,-1
EndSplineSet
EndChar

StartChar: five
Encoding: 21 53 24
Width: 848
VWidth: 2064
GlyphClass: 2
Flags: W
LayerCount: 2
Fore
SplineSet
342 674 m 1,0,1
 463 729 463 729 524 729 c 0,2,3
 686 729 686 729 776.5 625 c 128,-1,4
 867 521 867 521 867 348 c 128,-1,5
 867 175 867 175 764.5 73 c 128,-1,6
 662 -29 662 -29 481 -29 c 0,7,8
 343 -29 343 -29 247 42 c 128,-1,9
 151 113 151 113 127 246 c 2,10,-1
 116 308 l 1,11,-1
 161 263 l 2,12,13
 168 256 168 256 198.5 256 c 128,-1,14
 229 256 229 256 248 267 c 1,15,-1
 275 281 l 1,16,-1
 278 251 l 2,17,18
 286 166 286 166 341.5 114 c 128,-1,19
 397 62 397 62 482 62 c 0,20,21
 597 62 597 62 652 146 c 128,-1,22
 707 230 707 230 707 349 c 128,-1,23
 707 468 707 468 654 552 c 128,-1,24
 601 636 601 636 501 636 c 0,25,26
 360 636 360 636 302 482 c 1,27,-1
 293 459 l 1,28,-1
 273 472 l 2,29,30
 249 487 249 487 209 499 c 1,31,-1
 209 1052 l 1,32,-1
 229 1052 l 2,33,34
 270 1052 270 1052 397.5 1049.5 c 0,35,36
 644 1044.67 644 1044.67 773 1059 c 2,37,-1
 802 1062 l 1,38,-1
 794 1034 l 2,39,40
 790 1019 790 1019 790 998.5 c 128,-1,41
 790 978 790 978 794 962 c 2,42,-1
 802 935 l 1,43,-1
 773 937 l 1,44,45
 638 948 638 948 342 948 c 1,46,47
 341 891 341 891 342 674 c 1,0,1
EndSplineSet
EndChar

StartChar: six
Encoding: 22 54 25
Width: 907
VWidth: 2064
GlyphClass: 2
Flags: W
LayerCount: 2
Fore
SplineSet
578 665 m 1,0,1
 727 667 727 667 828 580.5 c 128,-1,2
 929 494 929 494 929.5 328 c 128,-1,3
 930 162 930 162 819 64 c 1,4,5
 726 -20 726 -20 581 -29 c 1,6,7
 363 -41 363 -41 251 139 c 0,8,9
 160 284 160 284 160 512.5 c 128,-1,10
 160 741 160 741 257 897 c 1,11,12
 372 1079 372 1079 584 1082 c 1,13,14
 834 1082 834 1082 893 923 c 1,15,-1
 903 895 l 1,16,-1
 873 896 l 2,17,18
 831 898 831 898 779 866 c 1,19,20
 738 936 738 936 715 957 c 1,21,22
 667 997 667 997 582 1001 c 1,23,24
 437 990 437 990 370 835 c 0,25,26
 318 714 318 714 318 524 c 2,27,-1
 318 522 l 1,28,29
 393 651 393 651 577 665 c 1,30,-1
 578 665 l 1,0,1
564 56 m 0,31,32
 768 65 768 65 768 325 c 0,33,34
 768 454 768 454 708.5 514.5 c 128,-1,35
 649 575 649 575 562.5 571 c 128,-1,36
 476 567 476 567 420 500 c 128,-1,37
 364 433 364 433 364 320.5 c 128,-1,38
 364 208 364 208 420 130.5 c 128,-1,39
 476 53 476 53 564 56 c 0,31,32
EndSplineSet
EndChar

StartChar: seven
Encoding: 23 55 26
Width: 801
VWidth: 2064
GlyphClass: 2
Flags: W
LayerCount: 2
Fore
SplineSet
851 1035 m 2,0,1
 851 1029 851 1029 866 1015 c 1,2,-1
 401 -8 l 1,3,4
 335 10 335 10 274 -4 c 2,5,-1
 234 -13 l 1,6,-1
 697 949 l 1,7,8
 473 944 473 944 200 895 c 1,9,-1
 171 890 l 1,10,-1
 178 920 l 2,11,12
 191 974 191 974 178 1031 c 1,13,-1
 172 1055 l 1,14,-1
 851 1055 l 1,15,-1
 851 1035 l 2,0,1
EndSplineSet
EndChar

StartChar: eight
Encoding: 24 56 27
Width: 877
VWidth: 2064
GlyphClass: 2
Flags: W
LayerCount: 2
Fore
SplineSet
668 598 m 1,0,1
 754 573 754 573 821 500.5 c 128,-1,2
 888 428 888 428 891 295 c 128,-1,3
 894 162 894 162 789 67.5 c 128,-1,4
 684 -27 684 -27 527 -28.5 c 128,-1,5
 370 -30 370 -30 263 67.5 c 128,-1,6
 156 165 156 165 158 295.5 c 128,-1,7
 160 426 160 426 229 499.5 c 128,-1,8
 298 573 298 573 388 598 c 1,9,10
 326 626 326 626 276 692.5 c 128,-1,11
 226 759 226 759 236 862 c 128,-1,12
 246 965 246 965 319.5 1023.5 c 128,-1,13
 393 1082 393 1082 511.5 1085.5 c 128,-1,14
 630 1089 630 1089 713 1034 c 0,15,16
 818 965 818 965 818 839 c 1,17,18
 822 737 822 737 751 660 c 0,19,20
 714 620 714 620 668 598 c 1,0,1
657 835 m 1,21,22
 656 914 656 914 613.5 954.5 c 128,-1,23
 571 995 571 995 522 993 c 128,-1,24
 473 991 473 991 435 950 c 128,-1,25
 397 909 397 909 393.5 838 c 128,-1,26
 390 767 390 767 422.5 712.5 c 128,-1,27
 455 658 455 658 523 652 c 1,28,29
 594 652 594 652 629 706 c 128,-1,30
 664 760 664 760 657 834 c 1,31,-1
 657 835 l 1,21,22
522 63 m 1,32,33
 632 66 632 66 680.5 136.5 c 128,-1,34
 729 207 729 207 730 295.5 c 128,-1,35
 731 384 731 384 680 459 c 128,-1,36
 629 534 629 534 523 532 c 128,-1,37
 417 530 417 530 365 451 c 1,38,39
 323 390 323 390 321 303.5 c 128,-1,40
 319 217 319 217 365.5 143 c 128,-1,41
 412 69 412 69 522 63 c 1,32,33
EndSplineSet
EndChar

StartChar: nine
Encoding: 25 57 28
Width: 908
VWidth: 2064
GlyphClass: 2
Flags: W
LayerCount: 2
Fore
SplineSet
838 915 m 0,0,1
 929 770 929 770 929 541.5 c 128,-1,2
 929 313 929 313 832 157 c 0,3,4
 717 -26 717 -26 505 -28 c 1,5,6
 256 -28 256 -28 196 131 c 1,7,-1
 186 159 l 1,8,-1
 216 158 l 2,9,10
 258 156 258 156 310 186 c 1,11,12
 351 116 351 116 374 97 c 0,13,14
 422 57 422 57 507 52 c 1,15,16
 652 64 652 64 719 219 c 0,17,18
 771 340 771 340 771 529 c 2,19,-1
 771 532 l 1,20,21
 696 403 696 403 512 389 c 1,22,-1
 511 389 l 1,23,24
 363 387 363 387 261.5 473.5 c 128,-1,25
 160 560 160 560 159.5 726 c 128,-1,26
 159 892 159 892 261 982.5 c 128,-1,27
 363 1073 363 1073 508 1082 c 0,28,29
 726 1095 726 1095 838 915 c 0,0,1
525 997 m 0,30,31
 321 989 321 989 321 729 c 0,32,33
 321 600 321 600 380.5 539.5 c 128,-1,34
 440 479 440 479 526.5 483 c 128,-1,35
 613 487 613 487 669 553.5 c 128,-1,36
 725 620 725 620 725 733 c 128,-1,37
 725 846 725 846 669 923.5 c 128,-1,38
 613 1001 613 1001 525 997 c 0,30,31
EndSplineSet
EndChar

StartChar: colon
Encoding: 26 58 29
Width: 489
VWidth: 2064
GlyphClass: 2
Flags: W
LayerCount: 2
Fore
SplineSet
469 663 m 128,-1,1
 469 603 469 603 426 560 c 128,-1,2
 383 517 383 517 322.5 517 c 128,-1,3
 262 517 262 517 219.5 560 c 128,-1,4
 177 603 177 603 177 663 c 128,-1,5
 177 723 177 723 219.5 766 c 128,-1,6
 262 809 262 809 322.5 809 c 128,-1,7
 383 809 383 809 426 766 c 128,-1,0
 469 723 469 723 469 663 c 128,-1,1
426 220.5 m 128,-1,9
 469 178 469 178 469 117.5 c 128,-1,10
 469 57 469 57 426 14 c 128,-1,11
 383 -29 383 -29 322.5 -29 c 128,-1,12
 262 -29 262 -29 219.5 14 c 128,-1,13
 177 57 177 57 177 117.5 c 128,-1,14
 177 178 177 178 219.5 220.5 c 128,-1,15
 262 263 262 263 322.5 263 c 128,-1,8
 383 263 383 263 426 220.5 c 128,-1,9
EndSplineSet
EndChar

StartChar: semicolon
Encoding: 27 59 30
Width: 489
VWidth: 2064
GlyphClass: 2
Flags: W
LayerCount: 2
Fore
SplineSet
469 663 m 128,-1,1
 469 603 469 603 426 560 c 128,-1,2
 383 517 383 517 322 517 c 0,3,4
 261 517 261 517 219 560 c 128,-1,5
 177 603 177 603 177 663 c 128,-1,6
 177 723 177 723 219.5 766 c 128,-1,7
 262 809 262 809 322.5 809 c 0,8,9
 383 809 383 809 426 766 c 128,-1,0
 469 723 469 723 469 663 c 128,-1,1
462 86 m 1,10,11
 459 -7 459 -7 410 -65.5 c 0,12,13
 361 -124 361 -124 303 -148 c 1,14,-1
 282 -156 l 1,15,-1
 276 -135 l 2,16,17
 272 -121 272 -121 264 -117 c 2,18,-1
 226 -101 l 1,19,-1
 263 -81 l 2,20,21
 329 -46 329 -46 343 11 c 1,22,23
 315 -3 315 -3 277 -3 c 0,24,25
 239 -3 239 -3 207 28 c 0,26,27
 176 59 176 59 176.5 114.5 c 0,28,29
 177 170 177 170 220 206 c 0,30,31
 263 242 263 242 323 239 c 0,32,33
 383 236 383 236 422 192.5 c 0,34,35
 461 149 461 149 462 87 c 1,36,-1
 462 86 l 1,10,11
EndSplineSet
EndChar

StartChar: less
Encoding: 28 60 31
Width: 1270
VWidth: 2064
GlyphClass: 2
Flags: W
LayerCount: 2
Fore
SplineSet
1249 1018 m 1,0,-1
 1249 859 l 1,1,-1
 398 501 l 1,2,-1
 1249 146 l 1,3,-1
 1249 -15 l 1,4,-1
 209 456 l 1,5,-1
 209 547 l 1,6,-1
 1249 1018 l 1,0,-1
EndSplineSet
EndChar

StartChar: equal
Encoding: 29 61 32
Width: 1034
VWidth: 2064
GlyphClass: 2
Flags: W
LayerCount: 2
Fore
SplineSet
998 430 m 1,0,-1
 221 430 l 1,1,-1
 227 454 l 2,2,3
 237 498 237 498 226 558 c 2,4,-1
 222 581 l 1,5,-1
 997 581 l 1,6,-1
 993 558 l 2,7,8
 983 498 983 498 992 455 c 1,9,-1
 998 430 l 1,0,-1
998 146 m 1,10,-1
 221 146 l 1,11,-1
 227 171 l 2,12,13
 237 214 237 214 226 273 c 2,14,-1
 222 296 l 1,15,-1
 997 296 l 1,16,-1
 993 273 l 2,17,18
 983 214 983 214 992 171 c 1,19,-1
 998 146 l 1,10,-1
EndSplineSet
EndChar

StartChar: greater
Encoding: 30 62 33
Width: 1270
VWidth: 2064
GlyphClass: 2
Flags: W
LayerCount: 2
Fore
SplineSet
1249 456 m 1,0,-1
 209 -15 l 1,1,-1
 209 146 l 1,2,-1
 1060 501 l 1,3,-1
 209 859 l 1,4,-1
 209 1018 l 1,5,-1
 1249 547 l 1,6,-1
 1249 456 l 1,0,-1
EndSplineSet
EndChar

StartChar: question
Encoding: 31 63 34
Width: 854
VWidth: 2064
GlyphClass: 2
Flags: W
LayerCount: 2
Fore
SplineSet
522 1428 m 1,0,1
 659 1430 659 1430 752.5 1352.5 c 128,-1,2
 846 1275 846 1275 846.5 1158.5 c 128,-1,3
 847 1042 847 1042 772 958 c 0,4,5
 728 908 728 908 617.5 833.5 c 128,-1,6
 507 759 507 759 469 716 c 1,7,8
 412 654 412 654 416 563.5 c 128,-1,9
 420 473 420 473 459 443 c 128,-1,10
 498 413 498 413 546 415 c 0,11,12
 642 418 642 418 653 520 c 1,13,-1
 656 544 l 1,14,-1
 679 537 l 2,15,16
 721 525 721 525 770 537 c 1,17,-1
 799 545 l 1,18,-1
 795 515 l 1,19,20
 768 336 768 336 546 324 c 1,21,22
 295 327 295 327 282 541 c 1,23,24
 279 657 279 657 372 771 c 1,25,26
 463 844 463 844 555 917 c 1,27,28
 687 1031 687 1031 692 1152 c 1,29,30
 693 1222 693 1222 652 1278.5 c 128,-1,31
 611 1335 611 1335 526 1338 c 1,32,33
 411 1337 411 1337 362 1253 c 0,34,35
 332 1201 332 1201 332 1127 c 2,36,-1
 332 1100 l 1,37,-1
 306 1108 l 1,38,39
 246 1125 246 1125 204 1108 c 2,40,-1
 175 1097 l 1,41,-1
 177 1128 l 2,42,43
 181 1190 181 1190 218 1262 c 0,44,45
 298 1417 298 1417 522 1428 c 1,0,1
629 220.5 m 128,-1,47
 672 178 672 178 672 117.5 c 128,-1,48
 672 57 672 57 629 14 c 128,-1,49
 586 -29 586 -29 526 -29 c 128,-1,50
 466 -29 466 -29 423 14 c 128,-1,51
 380 57 380 57 380 117.5 c 128,-1,52
 380 178 380 178 423 220.5 c 128,-1,53
 466 263 466 263 526 263 c 128,-1,46
 586 263 586 263 629 220.5 c 128,-1,47
EndSplineSet
EndChar

StartChar: at
Encoding: 32 64 35
Width: 1499
VWidth: 2064
GlyphClass: 2
Flags: W
LayerCount: 2
Fore
SplineSet
602 845 m 0,0,1
 709 953 709 953 840.5 954.5 c 128,-1,2
 972 956 972 956 1041 880 c 1,3,-1
 1056 940 l 1,4,5
 1131 926 1131 926 1182 937 c 1,6,-1
 1214 943 l 1,7,-1
 1067 399 l 1,8,9
 1069 380 1069 380 1071 360 c 1,10,11
 1081.12 333 1081.12 333 1116 333 c 0,12,13
 1187 333 1187 333 1271 470 c 1,14,15
 1339 599 1339 599 1352 747 c 1,16,17
 1359 877 1359 877 1311 965 c 1,18,19
 1257 1068 1257 1068 1141 1128 c 128,-1,20
 1025 1188 1025 1188 891 1190 c 1,21,22
 674 1190 674 1190 529 1051.5 c 128,-1,23
 384 913 384 913 357 707 c 1,24,25
 347 649 347 649 347 603 c 0,26,27
 347 430 347 430 412 321 c 0,28,29
 564 70 564 70 875 59 c 1,30,31
 967 59 967 59 1066.5 97 c 128,-1,32
 1166 135 1166 135 1243 212 c 128,-1,33
 1320 289 1320 289 1351 366 c 1,34,35
 1434 356 1434 356 1473 367 c 2,36,-1
 1516 380 l 1,37,-1
 1497 340 l 2,38,39
 1421 179 1421 179 1253.5 75 c 128,-1,40
 1086 -29 1086 -29 873 -29 c 0,41,42
 565 -29 565 -29 379 161.5 c 128,-1,43
 193 352 193 352 193 613 c 0,44,45
 193 934 193 934 429 1127 c 0,46,47
 618 1281 618 1281 883 1281 c 1,48,49
 1046 1283 1046 1283 1197 1215.5 c 128,-1,50
 1348 1148 1348 1148 1421.5 1022.5 c 128,-1,51
 1495 897 1495 897 1495 753 c 2,52,-1
 1495 752 l 1,53,54
 1482 495 1482 495 1297 333 c 1,55,56
 1183 231 1183 231 1057 244 c 0,57,58
 961 253 961 253 923 347 c 1,59,60
 817 252 817 252 699.5 252 c 128,-1,61
 582 252 582 252 521.5 327.5 c 128,-1,62
 461 403 461 403 461 504 c 0,63,64
 461 704 461 704 602 845 c 0,0,1
870 445 m 1,65,66
 915 512 915 512 950.5 605 c 128,-1,67
 986 698 986 698 986 752 c 128,-1,68
 986 806 986 806 947.5 834 c 128,-1,69
 909 862 909 862 853.5 856.5 c 128,-1,70
 798 851 798 851 732 789 c 128,-1,71
 666 727 666 727 634.5 625.5 c 128,-1,72
 603 524 603 524 603 468 c 0,73,74
 603 360 603 360 707 341 c 1,75,76
 803 339 803 339 870 445 c 1,65,66
EndSplineSet
EndChar

StartChar: bracketleft
Encoding: 33 91 36
Width: 547
VWidth: 2064
GlyphClass: 2
Flags: W
LayerCount: 2
Fore
SplineSet
567 1413 m 1,0,-1
 319 1413 l 1,1,-1
 319 -111 l 1,2,-1
 567 -111 l 1,3,-1
 567 -217 l 1,4,-1
 177 -217 l 1,5,-1
 177 1519 l 1,6,-1
 567 1519 l 1,7,-1
 567 1413 l 1,0,-1
EndSplineSet
EndChar

StartChar: backslash
Encoding: 34 92 37
Width: 715
VWidth: 2064
GlyphClass: 2
Flags: W
LayerCount: 2
Fore
SplineSet
137 1363 m 2,0,1
 162 1355 162 1355 178.5 1355 c 128,-1,2
 195 1355 195 1355 237 1369 c 1,3,-1
 769 -32 l 1,4,-1
 728 -17 l 2,5,6
 704 -8 704 -8 688 -8 c 128,-1,7
 672 -8 672 -8 629 -23 c 1,8,-1
 98 1376 l 1,9,-1
 137 1363 l 2,0,1
EndSplineSet
EndChar

StartChar: bracketright
Encoding: 35 93 38
Width: 547
VWidth: 2064
GlyphClass: 2
Flags: W
LayerCount: 2
Fore
SplineSet
567 -217 m 1,0,-1
 177 -217 l 1,1,-1
 177 -111 l 1,2,-1
 424 -111 l 1,3,-1
 424 1413 l 1,4,-1
 177 1413 l 1,5,-1
 177 1519 l 1,6,-1
 567 1519 l 1,7,-1
 567 -217 l 1,0,-1
EndSplineSet
EndChar

StartChar: asciicircum
Encoding: 36 94 39
Width: 1219
VWidth: 2064
GlyphClass: 2
Flags: W
LayerCount: 2
Fore
SplineSet
1254 596 m 1,0,-1
 1093 596 l 1,1,-1
 709 1250 l 1,2,-1
 324 596 l 1,3,-1
 162 596 l 1,4,-1
 665 1427 l 1,5,-1
 752 1427 l 1,6,-1
 1254 596 l 1,0,-1
EndSplineSet
EndChar

StartChar: underscore
Encoding: 37 95 40
Width: 1198
VWidth: 2064
GlyphClass: 2
Flags: W
LayerCount: 2
Fore
SplineSet
1197 -235 m 1,0,1
 938 -227 938 -227 699 -227 c 1,2,-1
 173 -235 l 1,3,-1
 177 -211 l 2,4,5
 186 -161 186 -161 177 -109 c 2,6,-1
 173 -85 l 1,7,-1
 495 -91 l 2,8,9
 618 -94 618 -94 677 -94 c 0,10,11
 736 -94 736 -94 1198 -85 c 1,12,-1
 1223 -85 l 1,13,-1
 1218 -109 l 2,14,15
 1210 -148 1210 -148 1215 -186 c 0,16,17
 1220 -224 1220 -224 1221 -236 c 1,18,-1
 1197 -235 l 1,0,1
EndSplineSet
EndChar

StartChar: grave
Encoding: 38 96 41
Width: 610
VWidth: 2064
GlyphClass: 2
Flags: W
LayerCount: 2
Fore
SplineSet
660 946 m 1,0,-1
 519 946 l 1,1,2
 423 1002 423 1002 185 1176 c 1,3,-1
 153 1199 l 1,4,-1
 191 1211 l 2,5,6
 240 1227 240 1227 271 1291 c 2,7,-1
 284 1318 l 1,8,-1
 304 1295 l 2,9,10
 337 1258 337 1258 440 1154 c 1,11,-1
 660 946 l 1,0,-1
EndSplineSet
EndChar

StartChar: braceleft
Encoding: 39 123 42
Width: 662
VWidth: 2064
GlyphClass: 2
Flags: W
LayerCount: 2
Fore
SplineSet
708 -293 m 2,0,1
 659 -308 659 -308 586 -285 c 0,2,3
 405 -229 405 -229 399 4 c 1,4,5
 403 361 403 361 394 472 c 1,6,7
 372.034 592.815 372.034 592.815 199 582 c 1,8,-1
 172 580 l 1,9,-1
 177 606 l 1,10,11
 185 642 185 642 178 670 c 1,12,-1
 170 697 l 1,13,-1
 198 695 l 2,14,15
 256 691 256 691 293 702 c 1,16,17
 382 734 382 734 394 805 c 0,18,19
 395 816 395 816 399 877 c 1,20,21
 398 1027 398 1027 399 1274 c 1,22,23
 405 1507 405 1507 586 1563 c 0,24,25
 659 1585 659 1585 707 1571 c 1,26,-1
 730 1565 l 1,27,-1
 720 1544 l 2,28,29
 717 1537 717 1537 710 1499 c 1,30,31
 659 1510 659 1510 634 1498 c 0,32,33
 542 1456 542 1456 541 1274 c 0,34,35
 541 1196 541 1196 542 1077 c 1,36,-1
 542 880 l 2,37,38
 542 770 542 770 464 696 c 0,39,40
 427 660 427 660 382 642 c 1,41,42
 426 623 426 623 464 585 c 0,43,44
 542 507 542 507 542 397 c 2,45,-1
 541 4 l 2,46,47
 541 -178 541 -178 633 -221 c 1,48,49
 659 -232 659 -232 690 -226 c 2,50,-1
 714 -222 l 1,51,-1
 714 -246 l 2,52,53
 714 -251 714 -251 720 -266 c 2,54,-1
 729 -287 l 1,55,-1
 708 -293 l 2,0,1
EndSplineSet
EndChar

StartChar: bar
Encoding: 40 124 43
Width: 487
VWidth: 2064
GlyphClass: 2
Flags: W
LayerCount: 2
Fore
SplineSet
319 -8 m 1,0,-1
 177 -8 l 1,1,-1
 177 1574 l 1,2,-1
 319 1574 l 1,3,-1
 319 -8 l 1,0,-1
EndSplineSet
EndChar

StartChar: braceright
Encoding: 41 125 44
Width: 653
VWidth: 2064
GlyphClass: 2
Flags: W
LayerCount: 2
Fore
SplineSet
672 670 m 2,0,1
 664 643 664 643 673 606 c 1,2,-1
 678 580 l 1,3,-1
 651 582 l 2,4,5
 593 587 593 587 557 576 c 1,6,7
 468 543 468 543 456 472 c 0,8,9
 455 461 455 461 451 400 c 1,10,11
 452 252 452 252 451 4 c 1,12,13
 445 -229 445 -229 264 -285 c 0,14,15
 191 -308 191 -308 141 -293 c 1,16,-1
 119 -287 l 1,17,-1
 129 -266 l 2,18,19
 132 -258 132 -258 141 -223 c 1,20,21
 190 -232 190 -232 217 -221 c 1,22,23
 308 -178 308 -178 309 4 c 0,24,25
 309 81 309 81 308 201 c 1,26,-1
 308 397 l 2,27,28
 308 507 308 507 386 585 c 0,29,30
 424 623 424 623 468 642 c 1,31,32
 423 660 423 660 386 696 c 0,33,34
 308 771 308 771 308 880 c 2,35,-1
 309 1274 l 2,36,37
 309 1456 309 1456 217 1498 c 0,38,39
 191 1510 191 1510 160 1503 c 2,40,-1
 136 1498 l 1,41,-1
 136 1523 l 2,42,43
 136 1528 136 1528 129 1544 c 2,44,-1
 119 1565 l 1,45,-1
 142 1571 l 2,46,47
 192 1585 192 1585 264 1563 c 0,48,49
 445 1507 445 1507 451 1275 c 1,50,-1
 451 1274 l 1,51,52
 445 940 445 940 456 805 c 1,53,54
 478.216 684.201 478.216 684.201 651 695 c 1,55,-1
 680 697 l 1,56,-1
 672 670 l 2,0,1
EndSplineSet
EndChar

StartChar: asciitilde
Encoding: 42 126 45
Width: 1270
VWidth: 2064
GlyphClass: 2
Flags: W
LayerCount: 2
Fore
SplineSet
1253 508 m 1,0,1
 1122 377 1122 377 963 373 c 1,2,3
 854 373 854 373 724.5 451 c 128,-1,4
 595 529 595 529 516 529 c 0,5,6
 403 529 403 529 281 415 c 1,7,-1
 260 397 l 1,8,-1
 204 518 l 1,9,10
 351 638 351 638 488 650 c 1,11,12
 611 655 611 655 736 578 c 128,-1,13
 861 501 861 501 965 497 c 1,14,15
 1115 497 1115 497 1172 603 c 2,16,-1
 1191 638 l 1,17,-1
 1253 508 l 1,0,1
EndSplineSet
EndChar

StartChar: anuswara
Encoding: 43 3330 46
Width: 751
VWidth: 2064
GlyphClass: 2
Flags: W
LayerCount: 2
Fore
SplineSet
771 278.5 m 128,-1,1
 768 138 768 138 674.5 60 c 128,-1,2
 581 -18 581 -18 456 -19 c 128,-1,3
 331 -20 331 -20 240 63 c 128,-1,4
 149 146 149 146 148 285.5 c 128,-1,5
 147 425 147 425 242.5 506.5 c 128,-1,6
 338 588 338 588 462 588.5 c 128,-1,7
 586 589 586 589 680 504 c 128,-1,0
 774 419 774 419 771 278.5 c 128,-1,1
300 284 m 0,8,9
 302 73 302 73 458 70 c 0,10,11
 536 68 536 68 578 126.5 c 128,-1,12
 620 185 620 185 620 290 c 0,13,14
 621 495 621 495 460 499 c 1,15,16
 378 496 378 496 338.5 444.5 c 128,-1,17
 299 393 299 393 300 284 c 0,8,9
EndSplineSet
EndChar

StartChar: visarga
Encoding: 44 3331 47
Width: 692
VWidth: 2064
GlyphClass: 2
Flags: W
LayerCount: 2
Fore
SplineSet
670.5 789.5 m 128,-1,1
 668 679 668 679 594 616.5 c 128,-1,2
 520 554 520 554 421 553.5 c 128,-1,3
 322 553 322 553 250 618.5 c 128,-1,4
 178 684 178 684 177 794.5 c 128,-1,5
 176 905 176 905 251.5 969.5 c 128,-1,6
 327 1034 327 1034 425.5 1034.5 c 128,-1,7
 524 1035 524 1035 598.5 967.5 c 128,-1,0
 673 900 673 900 670.5 789.5 c 128,-1,1
670.5 213.5 m 128,-1,9
 668 103 668 103 593.5 40.5 c 128,-1,10
 519 -22 519 -22 420.5 -23 c 128,-1,11
 322 -24 322 -24 249.5 41.5 c 128,-1,12
 177 107 177 107 176.5 217.5 c 128,-1,13
 176 328 176 328 251 393 c 128,-1,14
 326 458 326 458 425 458.5 c 128,-1,15
 524 459 524 459 598.5 391.5 c 128,-1,8
 673 324 673 324 670.5 213.5 c 128,-1,9
513 674 m 1,16,17
 544 719 544 719 545 798 c 0,18,19
 546 953 546 953 424 956 c 1,20,21
 362 954 362 954 333 915.5 c 128,-1,22
 304 877 304 877 304 793 c 0,23,24
 305 634 305 634 424 631 c 1,25,26
 481 631 481 631 513 674 c 1,16,17
513 98 m 1,27,28
 544 143 544 143 544 222 c 0,29,30
 544 376 544 376 424 380 c 1,31,32
 362 378 362 378 332.5 339.5 c 128,-1,33
 303 301 303 301 303.5 217 c 128,-1,34
 304 133 304 133 334 94.5 c 128,-1,35
 364 56 364 56 422.5 55 c 128,-1,36
 481 54 481 54 513 98 c 1,27,28
EndSplineSet
EndChar

StartChar: ml_a
Encoding: 45 3333 48
Width: 2514
VWidth: 2064
GlyphClass: 2
Flags: W
LayerCount: 2
Fore
SplineSet
1598 888 m 1,0,1
 1748 1036 1748 1036 1986 1036 c 128,-1,2
 2224 1036 2224 1036 2365.5 879.5 c 128,-1,3
 2507 723 2507 723 2507 501.5 c 128,-1,4
 2507 280 2507 280 2426 141 c 0,5,6
 2325 -32 2325 -32 2128 -32 c 0,7,8
 1981 -32 1981 -32 1888.5 65.5 c 128,-1,9
 1796 163 1796 163 1796 311 c 128,-1,10
 1796 459 1796 459 1884.5 555.5 c 128,-1,11
 1973 652 1973 652 2119 652 c 128,-1,12
 2265 652 2265 652 2365 550 c 1,13,14
 2360 709 2360 709 2254.5 827 c 128,-1,15
 2149 945 2149 945 1984 945 c 1,16,17
 1897 948 1897 948 1811.5 903.5 c 128,-1,18
 1726 859 1726 859 1693.5 790 c 128,-1,19
 1661 721 1661 721 1661 620 c 2,20,-1
 1661 342 l 1,21,-1
 1670 -12 l 1,22,-1
 1642 -3 l 2,23,24
 1619 5 1619 5 1590 5 c 128,-1,25
 1561 5 1561 5 1539 -3 c 2,26,-1
 1510 -13 l 1,27,-1
 1512 18 l 1,28,29
 1524 173 1524 173 1524 337 c 2,30,-1
 1525 626 l 2,31,32
 1525 728 1525 728 1493 793 c 128,-1,33
 1461 858 1461 858 1369 906.5 c 128,-1,34
 1277 955 1277 955 1163 938 c 1,35,36
 1327 856 1327 856 1327 681 c 0,37,38
 1327 601 1327 601 1288 545.5 c 128,-1,39
 1249 490 1249 490 1205 467 c 1,40,41
 1254 442 1254 442 1295.5 388 c 128,-1,42
 1337 334 1337 334 1337 248 c 0,43,44
 1337 123 1337 123 1248 47 c 128,-1,45
 1159 -29 1159 -29 1034 -29 c 0,46,47
 830 -29 830 -29 721 131 c 0,48,49
 629 266 629 266 629 473 c 0,50,51
 629 810 629 810 883 942 c 1,52,53
 825 953 825 953 754 953 c 0,54,55
 557 953 557 953 440.5 819.5 c 128,-1,56
 324 686 324 686 324 486 c 0,57,58
 324 211 324 211 503 77 c 1,59,-1
 525 61 l 1,60,-1
 503 45 l 2,61,62
 477 26 477 26 473 -10 c 2,63,-1
 470 -42 l 1,64,-1
 442 -25 l 1,65,66
 170 144 170 144 170 499 c 0,67,68
 170 746 170 746 336.5 893.5 c 128,-1,69
 503 1041 503 1041 751 1041 c 0,70,71
 931 1041 931 1041 1035 992 c 1,72,73
 1128 1032 1128 1032 1247 1032 c 0,74,75
 1474 1032 1474 1032 1598 888 c 1,0,1
2140.5 560 m 128,-1,77
 2046 560 2046 560 1996.5 491 c 128,-1,78
 1947 422 1947 422 1947 314.5 c 128,-1,79
 1947 207 1947 207 1993 134 c 128,-1,80
 2039 61 2039 61 2138.5 61 c 128,-1,81
 2238 61 2238 61 2284 139.5 c 128,-1,82
 2330 218 2330 218 2330 324.5 c 128,-1,83
 2330 431 2330 431 2282.5 495.5 c 128,-1,76
 2235 560 2235 560 2140.5 560 c 128,-1,77
1034 56 m 0,84,85
 1113 56 1113 56 1157 105.5 c 128,-1,86
 1201 155 1201 155 1201 235.5 c 128,-1,87
 1201 316 1201 316 1157 365.5 c 128,-1,88
 1113 415 1113 415 1035 415 c 0,89,90
 1028 415 1028 415 952 408 c 2,91,-1
 916 405 l 1,92,-1
 932 437 l 2,93,94
 938 449 938 449 938 466.5 c 128,-1,95
 938 484 938 484 933 494 c 2,96,-1
 915 530 l 1,97,-1
 955 523 l 1,98,99
 1000 514 1000 514 1026 514 c 0,100,101
 1098 514 1098 514 1140.5 560.5 c 128,-1,102
 1183 607 1183 607 1183 683.5 c 128,-1,103
 1183 760 1183 760 1134.5 822.5 c 128,-1,104
 1086 885 1086 885 1014 900 c 1,105,106
 900 854 900 854 842 732 c 128,-1,107
 784 610 784 610 784 459 c 128,-1,108
 784 308 784 308 837 197 c 0,109,110
 904 56 904 56 1034 56 c 0,84,85
EndSplineSet
EndChar

StartChar: ml_aa
Encoding: 46 3334 49
Width: 2721
VWidth: 2064
GlyphClass: 2
Flags: W
LayerCount: 2
Fore
SplineSet
2356 622 m 1,0,1
 2345 705 2345 705 2291 785 c 0,2,3
 2185 944 2185 944 1989 945 c 0,4,5
 1899 945 1899 945 1812.5 902 c 0,6,7
 1726 859 1726 859 1693.5 790 c 0,8,9
 1661 721 1661 721 1661 620 c 2,10,-1
 1661 342 l 1,11,-1
 1670 -12 l 1,12,-1
 1642 -3 l 2,13,14
 1619 5 1619 5 1590 5 c 128,-1,15
 1561 5 1561 5 1539 -3 c 2,16,-1
 1510 -13 l 1,17,-1
 1512 18 l 1,18,19
 1524 173 1524 173 1524 337 c 2,20,-1
 1525 626 l 2,21,22
 1525 728 1525 728 1493 793 c 0,23,24
 1461 858 1461 858 1383 901 c 0,25,26
 1305 944 1305 944 1249 944 c 0,27,28
 1193 944 1193 944 1161 939 c 1,29,30
 1327 857 1327 857 1327 681 c 0,31,32
 1327 601 1327 601 1288 545.5 c 0,33,34
 1249 490 1249 490 1205 467 c 1,35,36
 1254 442 1254 442 1295.5 388 c 0,37,38
 1337 334 1337 334 1337 248 c 0,39,40
 1337 123 1337 123 1248 47 c 0,41,42
 1159 -29 1159 -29 1034 -29 c 0,43,44
 830 -29 830 -29 721 131 c 0,45,46
 629 266 629 266 629 473 c 0,47,48
 629 810 629 810 883 942 c 1,49,50
 825 953 825 953 754 953 c 0,51,52
 557 953 557 953 440.5 820 c 0,53,54
 324 687 324 687 324 486 c 0,55,56
 324 211 324 211 503 77 c 1,57,-1
 525 60 l 1,58,-1
 502 45 l 2,59,60
 473 25 473 25 473 -8 c 2,61,-1
 472 -43 l 1,62,-1
 442 -25 l 1,63,64
 170 144 170 144 170 499 c 0,65,66
 170 746 170 746 337 893.5 c 0,67,68
 504 1041 504 1041 751 1041 c 1,69,70
 924 1046 924 1046 1035 992 c 1,71,72
 1129 1033 1129 1033 1236 1033 c 0,73,74
 1460 1033 1460 1033 1598 887 c 1,75,76
 1748 1036 1748 1036 1978 1036 c 0,77,78
 2208 1036 2208 1036 2342.5 905 c 0,79,80
 2477 774 2477 774 2501 557 c 1,81,82
 2600 485 2600 485 2657 370 c 0,83,84
 2714 255 2714 255 2714 127 c 0,85,86
 2714 -102 2714 -102 2558 -249 c 0,87,88
 2402 -396 2402 -396 2175 -396 c 0,89,90
 2089 -396 2089 -396 1988 -371 c 0,91,92
 1887 -346 1887 -346 1838 -295 c 1,93,-1
 1819 -274 l 1,94,-1
 1845 -263 l 2,95,96
 1887 -245 1887 -245 1899 -213 c 2,97,-1
 1912 -178 l 1,98,-1
 1934 -208 l 2,99,100
 2002 -301 2002 -301 2179 -301 c 0,101,102
 2356 -301 2356 -301 2458.5 -174 c 0,103,104
 2561 -47 2561 -47 2561 133.5 c 0,105,106
 2561 314 2561 314 2502 401 c 1,107,108
 2496 330 2496 330 2466 225 c 0,109,110
 2436 120 2436 120 2342.5 47 c 0,111,112
 2249 -26 2249 -26 2113 -26 c 0,113,114
 1977 -26 1977 -26 1886 70 c 0,115,116
 1796 166 1796 166 1796 318.5 c 0,117,118
 1796 471 1796 471 1896 568 c 0,119,120
 1996 665 1996 665 2157 665 c 0,121,122
 2246 665 2246 665 2356 622 c 1,0,1
2280 147 m 1,123,124
 2359 256 2359 256 2359 446 c 0,125,126
 2359 488 2359 488 2356 510 c 1,127,128
 2289 565 2289 565 2175 565 c 0,129,130
 2061 565 2061 565 2004 491 c 0,131,132
 1947 417 1947 417 1947 308.5 c 0,133,134
 1947 200 1947 200 1996 134 c 0,135,136
 2045 68 2045 68 2133 68 c 128,-1,137
 2221 68 2221 68 2280 147 c 1,123,124
1034 56 m 0,138,139
 1113 56 1113 56 1157 105 c 0,140,141
 1201 154 1201 154 1201 235 c 128,-1,142
 1201 316 1201 316 1157 365.5 c 0,143,144
 1113 415 1113 415 1035 415 c 0,145,146
 1028 415 1028 415 952 408 c 2,147,-1
 916 405 l 1,148,-1
 932 437 l 2,149,150
 938 449 938 449 938 466.5 c 128,-1,151
 938 484 938 484 933 494 c 2,152,-1
 915 530 l 1,153,-1
 955 523 l 1,154,155
 1000 514 1000 514 1026 514 c 0,156,157
 1098 514 1098 514 1141 560 c 0,158,159
 1183 606 1183 606 1183 683 c 0,160,161
 1183 760 1183 760 1134 822.5 c 0,162,163
 1085 885 1085 885 1014 900 c 1,164,165
 900 854 900 854 842 732 c 0,166,167
 784 610 784 610 784 459 c 128,-1,168
 784 308 784 308 837 197 c 0,169,170
 904 56 904 56 1034 56 c 0,138,139
EndSplineSet
EndChar

StartChar: ml_i
Encoding: 47 3335 50
Width: 1825
VWidth: 2064
GlyphClass: 2
Flags: W
LayerCount: 2
Fore
SplineSet
1654 540 m 0,0,1
 1654 946 1654 946 1346 946 c 0,2,3
 1193 946 1193 946 1132 803 c 0,4,5
 1101 729 1101 729 1101 644 c 2,6,-1
 1101 438 l 2,7,8
 1101 349 1101 349 1111 181 c 1,9,-1
 1113 153 l 1,10,-1
 1086 161 l 2,11,12
 1067 166 1067 166 1033 166 c 128,-1,13
 999 166 999 166 983 161 c 2,14,-1
 956 152 l 1,15,-1
 966 438 l 1,16,-1
 966 640 l 1,17,18
 954 797 954 797 874.5 872.5 c 128,-1,19
 795 948 795 948 642.5 948 c 128,-1,20
 490 948 490 948 402 843 c 0,21,22
 331 758 331 758 316 640 c 1,23,24
 391 752 391 752 555 752 c 0,25,26
 674 752 674 752 757.5 665 c 128,-1,27
 841 578 841 578 841 444.5 c 128,-1,28
 841 311 841 311 754 224 c 128,-1,29
 667 137 667 137 511.5 137 c 128,-1,30
 356 137 356 137 263 263 c 128,-1,31
 170 389 170 389 170 562 c 0,32,33
 170 785 170 785 309.5 912 c 128,-1,34
 449 1039 449 1039 667.5 1039 c 128,-1,35
 886 1039 886 1039 1031 883 c 1,36,37
 1132 1035 1132 1035 1346.5 1035 c 128,-1,38
 1561 1035 1561 1035 1685 888 c 128,-1,39
 1809 741 1809 741 1809 538.5 c 128,-1,40
 1809 336 1809 336 1711 201.5 c 128,-1,41
 1613 67 1613 67 1434 22 c 1,42,43
 1344 -2 1344 -2 1108 -4 c 1,44,-1
 493 -4 l 2,45,46
 386 -4 386 -4 386 -67 c 128,-1,47
 386 -130 386 -130 467.5 -134.5 c 128,-1,48
 549 -139 549 -139 748 -139 c 2,49,-1
 1174 -139 l 2,50,51
 1548 -139 1548 -139 1766 -126 c 2,52,-1
 1818 -123 l 1,53,-1
 1781 -160 l 2,54,55
 1775 -166 1775 -166 1775 -192 c 128,-1,56
 1775 -218 1775 -218 1784 -234 c 2,57,-1
 1803 -265 l 1,58,-1
 1767 -264 l 1,59,60
 1421 -258 1421 -258 1307 -258 c 2,61,-1
 761 -258 l 1,62,63
 657 -259 657 -259 462 -258 c 1,64,65
 234 -250 234 -250 234 -90 c 0,66,67
 234 85 234 85 518 85 c 2,68,-1
 1103 85 l 1,69,70
 1377 82 1377 82 1506 175 c 0,71,72
 1654 281 1654 281 1654 540 c 0,0,1
520 228 m 0,73,74
 684 228 684 228 684 435 c 0,75,76
 684 538 684 538 645 600.5 c 128,-1,77
 606 663 606 663 523.5 663 c 128,-1,78
 441 663 441 663 398.5 607 c 128,-1,79
 356 551 356 551 356 458.5 c 128,-1,80
 356 366 356 366 396.5 297 c 128,-1,81
 437 228 437 228 520 228 c 0,73,74
EndSplineSet
EndChar

StartChar: ml_ii
Encoding: 48 3336 51
Width: 3126
VWidth: 2064
GlyphClass: 2
Flags: W
LayerCount: 2
Fore
SplineSet
2393 509 m 1,0,1
 2402 647 2402 647 2400.5 736 c 128,-1,2
 2399 825 2399 825 2353.5 886.5 c 128,-1,3
 2308 948 2308 948 2221 946 c 0,4,5
 2045 943 2045 943 2042 690 c 0,6,7
 2041 580 2041 580 2046 509 c 2,8,-1
 2048 482 l 1,9,-1
 2021 489 l 2,10,11
 2007 492 2007 492 1990 492 c 128,-1,12
 1973 492 1973 492 1956 488 c 2,13,-1
 1931 483 l 1,14,-1
 1938 689 l 1,15,16
 1952.28 1040 1952.28 1040 2248 1040 c 0,17,18
 2433 1040 2433 1040 2499 887 c 1,19,20
 2571 1041 2571 1041 2759.5 1041 c 128,-1,21
 2948 1041 2948 1041 3043 881 c 0,22,23
 3120 752 3120 752 3120 562 c 0,24,25
 3120 291 3120 291 2964 136 c 128,-1,26
 2808 -19 2808 -19 2538 -19 c 0,27,28
 2390 -19 2390 -19 2255 38.5 c 128,-1,29
 2120 96 2120 96 2050 213 c 1,30,-1
 2036 236 l 1,31,-1
 2062 242 l 1,32,33
 2094 251 2094 251 2121 280 c 2,34,-1
 2140 300 l 1,35,-1
 2154 275 l 1,36,37
 2263 71 2263 71 2512 71 c 0,38,39
 2733 71 2733 71 2849 197 c 128,-1,40
 2965 323 2965 323 2965 546 c 0,41,42
 2965 709 2965 709 2919 813 c 0,43,44
 2858 949 2858 949 2726 946 c 1,45,46
 2645 946 2645 946 2594 884 c 128,-1,47
 2543 822 2543 822 2543 737 c 2,48,-1
 2543 643 l 2,49,50
 2543 593 2543 593 2551 481 c 1,51,-1
 2524 489 l 2,52,53
 2501 495 2501 495 2472.5 495 c 128,-1,54
 2444 495 2444 495 2418 489 c 2,55,-1
 2391 482 l 1,56,-1
 2393 509 l 1,0,1
1654 540 m 0,57,58
 1654 946 1654 946 1346 946 c 0,59,60
 1193 946 1193 946 1132 803 c 0,61,62
 1101 729 1101 729 1101 644 c 2,63,-1
 1101 438 l 2,64,65
 1101 349 1101 349 1112 181 c 1,66,-1
 1114 154 l 1,67,-1
 1087 161 l 2,68,69
 1066 166 1066 166 1033 166 c 128,-1,70
 1000 166 1000 166 983 161 c 2,71,-1
 956 153 l 1,72,-1
 966 438 l 1,73,74
 967 513 967 513 966 640 c 1,75,76
 954 797 954 797 874.5 872.5 c 128,-1,77
 795 948 795 948 643 948 c 128,-1,78
 491 948 491 948 411 853 c 128,-1,79
 331 758 331 758 316 640 c 1,80,81
 390 752 390 752 556 752 c 0,82,83
 675 752 675 752 758.5 665 c 128,-1,84
 842 578 842 578 842 444.5 c 128,-1,85
 842 311 842 311 755 224 c 128,-1,86
 668 137 668 137 512.5 137 c 128,-1,87
 357 137 357 137 263.5 263 c 128,-1,88
 170 389 170 389 170 562 c 0,89,90
 170 785 170 785 309.5 912 c 128,-1,91
 449 1039 449 1039 668 1039 c 128,-1,92
 887 1039 887 1039 1031 883 c 1,93,94
 1133 1035 1133 1035 1347 1035 c 128,-1,95
 1561 1035 1561 1035 1685 888 c 128,-1,96
 1809 741 1809 741 1809 538.5 c 128,-1,97
 1809 336 1809 336 1711 201.5 c 128,-1,98
 1613 67 1613 67 1435 22 c 0,99,100
 1344 -2 1344 -2 1108 -4 c 1,101,-1
 493 -4 l 2,102,103
 387 -4 387 -4 387 -67 c 128,-1,104
 387 -130 387 -130 468 -134.5 c 128,-1,105
 549 -139 549 -139 748 -139 c 2,106,-1
 1174 -139 l 2,107,108
 1549 -139 1549 -139 1767 -126 c 2,109,-1
 1819 -123 l 1,110,-1
 1782 -160 l 2,111,112
 1776 -166 1776 -166 1776 -192 c 128,-1,113
 1776 -218 1776 -218 1785 -234 c 2,114,-1
 1804 -265 l 1,115,-1
 1768 -264 l 1,116,117
 1421 -258 1421 -258 1308 -258 c 2,118,-1
 761 -258 l 1,119,120
 657 -259 657 -259 463 -258 c 1,121,122
 234 -250 234 -250 234 -90 c 0,123,124
 234 85 234 85 518 85 c 2,125,-1
 1103 85 l 1,126,127
 1378 82 1378 82 1506 175 c 1,128,129
 1654 281 1654 281 1654 540 c 0,57,58
520 228 m 0,130,131
 684 228 684 228 684 435 c 0,132,133
 684 538 684 538 645 600.5 c 128,-1,134
 606 663 606 663 523.5 663 c 128,-1,135
 441 663 441 663 399 607 c 128,-1,136
 357 551 357 551 357 458 c 128,-1,137
 357 365 357 365 397 296.5 c 128,-1,138
 437 228 437 228 520 228 c 0,130,131
EndSplineSet
EndChar

StartChar: ml_u
Encoding: 49 3337 52
Width: 1217
VWidth: 2064
GlyphClass: 2
Flags: W
LayerCount: 2
Fore
SplineSet
309 641 m 1,0,1
 385 762 385 762 555 762 c 0,2,3
 673 762 673 762 756.5 673.5 c 128,-1,4
 840 585 840 585 840 452.5 c 128,-1,5
 840 320 840 320 753 233 c 128,-1,6
 666 146 666 146 512 146 c 128,-1,7
 358 146 358 146 264 269 c 128,-1,8
 170 392 170 392 170 561 c 0,9,10
 170 788 170 788 310.5 914 c 128,-1,11
 451 1040 451 1040 680 1040 c 128,-1,12
 909 1040 909 1040 1059.5 894.5 c 128,-1,13
 1210 749 1210 749 1210 506.5 c 128,-1,14
 1210 264 1210 264 1058.5 130 c 128,-1,15
 907 -4 907 -4 580 -4 c 2,16,-1
 496 -4 l 2,17,18
 375 -4 375 -4 376 -70 c 0,19,20
 376 -119 376 -119 437 -133 c 0,21,22
 467 -140 467 -140 557 -140 c 2,23,-1
 804 -140 l 2,24,25
 961 -140 961 -140 1160 -126 c 1,26,-1
 1207 -123 l 1,27,-1
 1176 -159 l 2,28,29
 1169 -167 1169 -167 1169 -192.5 c 128,-1,30
 1169 -218 1169 -218 1178 -234 c 2,31,-1
 1197 -265 l 1,32,-1
 804 -258 l 1,33,-1
 535 -258 l 2,34,35
 392 -258 392 -258 337 -242 c 0,36,37
 223 -208 223 -208 223 -90 c 0,38,39
 223 87 223 87 518.5 87 c 128,-1,40
 814 87 814 87 935 197 c 128,-1,41
 1056 307 1056 307 1056 507.5 c 128,-1,42
 1056 708 1056 708 952.5 829.5 c 128,-1,43
 849 951 849 951 678 951 c 128,-1,44
 507 951 507 951 415.5 859.5 c 128,-1,45
 324 768 324 768 309 641 c 1,0,1
643 620 m 128,-1,47
 603 672 603 672 520.5 672 c 128,-1,48
 438 672 438 672 397.5 612.5 c 128,-1,49
 357 553 357 553 357 459 c 128,-1,50
 357 365 357 365 396 301 c 128,-1,51
 435 237 435 237 518.5 237 c 128,-1,52
 602 237 602 237 642.5 289 c 128,-1,53
 683 341 683 341 683 454.5 c 128,-1,46
 683 568 683 568 643 620 c 128,-1,47
EndSplineSet
EndChar

StartChar: ml_uu
Encoding: 50 3338 53
Width: 2532
VWidth: 2064
GlyphClass: 2
Flags: W
LayerCount: 2
Fore
SplineSet
2525 562 m 0,0,1
 2525 291 2525 291 2369 136 c 128,-1,2
 2213 -19 2213 -19 1942 -19 c 0,3,4
 1794 -19 1794 -19 1659 38.5 c 128,-1,5
 1524 96 1524 96 1454 213 c 1,6,-1
 1440 236 l 1,7,-1
 1466 242 l 1,8,9
 1499 251 1499 251 1526 280 c 1,10,-1
 1546 300 l 1,11,-1
 1559 275 l 1,12,13
 1667 71 1667 71 1917 71 c 0,14,15
 2137 71 2137 71 2253 197 c 128,-1,16
 2369 323 2369 323 2369 546 c 0,17,18
 2369 709 2369 709 2323 813 c 0,19,20
 2262 949 2262 949 2130 946 c 1,21,22
 2049 946 2049 946 1998.5 884 c 128,-1,23
 1948 822 1948 822 1948 737 c 2,24,-1
 1948 643 l 2,25,26
 1948 601 1948 601 1954 509 c 2,27,-1
 1956 481 l 1,28,-1
 1929 489 l 2,29,30
 1906 495 1906 495 1877.5 495 c 128,-1,31
 1849 495 1849 495 1822 489 c 2,32,-1
 1795 482 l 1,33,-1
 1797 509 l 2,34,35
 1806 640 1806 640 1804.5 732.5 c 128,-1,36
 1803 825 1803 825 1758 886.5 c 128,-1,37
 1713 948 1713 948 1626 946 c 0,38,39
 1449 943 1449 943 1446 690 c 0,40,41
 1445 580 1445 580 1450 509 c 2,42,-1
 1452 482 l 1,43,-1
 1425 489 l 2,44,45
 1411 492 1411 492 1394.5 492 c 128,-1,46
 1378 492 1378 492 1360 488 c 2,47,-1
 1335 483 l 1,48,-1
 1342 689 l 1,49,50
 1356.28 1040 1356.28 1040 1652 1040 c 0,51,52
 1837 1040 1837 1040 1904 887 c 1,53,54
 1975 1041 1975 1041 2163.5 1041 c 128,-1,55
 2352 1041 2352 1041 2448 881 c 0,56,57
 2525 753 2525 753 2525 562 c 0,0,1
309 641 m 1,58,59
 385 762 385 762 555 762 c 0,60,61
 673 762 673 762 756.5 673.5 c 128,-1,62
 840 585 840 585 840 452.5 c 128,-1,63
 840 320 840 320 753 233 c 128,-1,64
 666 146 666 146 512 146 c 128,-1,65
 358 146 358 146 264 269 c 128,-1,66
 170 392 170 392 170 561 c 0,67,68
 170 788 170 788 310.5 914 c 128,-1,69
 451 1040 451 1040 680 1040 c 128,-1,70
 909 1040 909 1040 1059.5 894.5 c 128,-1,71
 1210 749 1210 749 1210 506.5 c 128,-1,72
 1210 264 1210 264 1058.5 130 c 128,-1,73
 907 -4 907 -4 580 -4 c 2,74,-1
 496 -4 l 2,75,76
 375 -4 375 -4 376 -70 c 0,77,78
 376 -119 376 -119 437 -133 c 0,79,80
 467 -140 467 -140 557 -140 c 2,81,-1
 804 -140 l 2,82,83
 961 -140 961 -140 1160 -126 c 1,84,-1
 1207 -123 l 1,85,-1
 1176 -159 l 2,86,87
 1169 -167 1169 -167 1169 -192.5 c 128,-1,88
 1169 -218 1169 -218 1178 -234 c 2,89,-1
 1197 -265 l 1,90,-1
 804 -258 l 1,91,-1
 535 -258 l 2,92,93
 392 -258 392 -258 337 -242 c 0,94,95
 223 -208 223 -208 223 -90 c 0,96,97
 223 87 223 87 518.5 87 c 128,-1,98
 814 87 814 87 935 197 c 128,-1,99
 1056 307 1056 307 1056 507.5 c 128,-1,100
 1056 708 1056 708 952.5 829.5 c 128,-1,101
 849 951 849 951 678 951 c 128,-1,102
 507 951 507 951 415.5 859.5 c 128,-1,103
 324 768 324 768 309 641 c 1,58,59
643 620 m 128,-1,105
 603 672 603 672 520.5 672 c 128,-1,106
 438 672 438 672 397.5 612.5 c 128,-1,107
 357 553 357 553 357 459 c 128,-1,108
 357 365 357 365 396 301 c 128,-1,109
 435 237 435 237 518.5 237 c 128,-1,110
 602 237 602 237 642.5 289 c 128,-1,111
 683 341 683 341 683 454.5 c 128,-1,104
 683 568 683 568 643 620 c 128,-1,105
EndSplineSet
EndChar

StartChar: ml_r
Encoding: 51 3339 54
Width: 1349
VWidth: 2064
GlyphClass: 2
Flags: W
LayerCount: 2
Fore
SplineSet
310 673 m 1,0,1
 333 403 333 403 756 403 c 0,2,3
 1179 403 1179 403 1201 678 c 1,4,5
 1143 595 1143 595 1042 593.5 c 128,-1,6
 941 592 941 592 875.5 654 c 128,-1,7
 810 716 810 716 810 817.5 c 128,-1,8
 810 919 810 919 875.5 977.5 c 128,-1,9
 941 1036 941 1036 1043 1036 c 0,10,11
 1180 1036 1180 1036 1261 935.5 c 128,-1,12
 1342 835 1342 835 1342 701 c 128,-1,13
 1342 567 1342 567 1275.5 482 c 128,-1,14
 1209 397 1209 397 1120 359 c 1,15,16
 1202 327 1202 327 1259 266 c 0,17,18
 1338 182 1338 182 1338 62 c 0,19,20
 1338 -130 1338 -130 1122 -220 c 1,21,22
 971 -281 971 -281 758 -281 c 128,-1,23
 545 -281 545 -281 392 -219 c 0,24,25
 174 -130 174 -130 174 62 c 0,26,27
 174 182 174 182 253 266 c 0,28,29
 310 327 310 327 392 359 c 1,30,31
 303 397 303 397 236.5 482 c 128,-1,32
 170 567 170 567 170 701 c 128,-1,33
 170 835 170 835 251 935.5 c 128,-1,34
 332 1036 332 1036 468 1036 c 0,35,36
 571 1036 571 1036 636 977.5 c 128,-1,37
 701 919 701 919 701 817.5 c 128,-1,38
 701 716 701 716 636 654 c 128,-1,39
 571 592 571 592 469.5 592 c 128,-1,40
 368 592 368 592 310 673 c 1,0,1
1047 946 m 0,41,42
 945 946 945 946 945 818 c 0,43,44
 945 754 945 754 971 718 c 128,-1,45
 997 682 997 682 1045 682 c 128,-1,46
 1093 682 1093 682 1120.5 720 c 128,-1,47
 1148 758 1148 758 1148 812 c 128,-1,48
 1148 866 1148 866 1121.5 906 c 128,-1,49
 1095 946 1095 946 1047 946 c 0,41,42
466 682 m 128,-1,51
 514 682 514 682 540.5 718.5 c 128,-1,52
 567 755 567 755 567 818 c 0,53,54
 567 946 567 946 465 946 c 0,55,56
 417 946 417 946 390.5 906 c 128,-1,57
 364 866 364 866 364 812 c 128,-1,58
 364 758 364 758 391 720 c 128,-1,50
 418 682 418 682 466 682 c 128,-1,51
1035 -134 m 0,59,60
 1183 -64 1183 -64 1183 65.5 c 128,-1,61
 1183 195 1183 195 1046 262 c 1,62,63
 931 317 931 317 784 314 c 0,64,65
 754 313 754 313 724 314 c 0,66,67
 576 317 576 317 464 262 c 0,68,69
 329 196 329 196 329 66.5 c 128,-1,70
 329 -63 329 -63 479 -134 c 0,71,72
 600 -191 600 -191 758 -191 c 128,-1,73
 916 -191 916 -191 1035 -134 c 0,59,60
EndSplineSet
EndChar

StartChar: ml_l
Encoding: 52 3340 55
Width: 2104
VWidth: 2064
GlyphClass: 2
Flags: W
LayerCount: 2
Fore
SplineSet
2097.09 485 m 1,0,1
 2102.09 279 2102.09 279 2013.09 141 c 0,2,3
 1907.09 -22 1907.09 -22 1708.09 -22 c 0,4,5
 1552.09 -22 1552.09 -22 1463.09 78.5 c 128,-1,6
 1374.09 179 1374.09 179 1374.09 326 c 128,-1,7
 1374.09 473 1374.09 473 1468.59 567.5 c 128,-1,8
 1563.09 662 1563.09 662 1700.09 662 c 0,9,10
 1799.09 662 1799.09 662 1882.09 607 c 0,11,12
 1926.09 578 1926.09 578 1956.09 538 c 1,13,14
 1944.09 669 1944.09 669 1875.59 781.5 c 0,15,16
 1807.09 894 1807.09 894 1657.09 930 c 1,17,18
 1602.09 942 1602.09 942 1559.09 942 c 0,19,20
 1456.09 942 1456.09 942 1364.09 900 c 0,21,22
 1201.09 825 1201.09 825 1201.09 626 c 2,23,-1
 1201.09 344 l 1,24,-1
 1213.09 -11 l 1,25,-1
 1186.09 -3 l 2,26,27
 1158.09 5 1158.09 5 1129.59 5 c 128,-1,28
 1101.09 5 1101.09 5 1083.09 -3 c 2,29,-1
 1053.09 -15 l 1,30,-1
 1055.09 18 l 1,31,32
 1065.09 148 1065.09 148 1065.09 344 c 2,33,-1
 1065.09 626 l 2,34,35
 1065.09 730 1065.09 730 1036.09 777 c 0,36,37
 932.091 944 932.091 944 730.091 944 c 128,-1,38
 528.091 944 528.091 944 426.091 821 c 128,-1,39
 324.091 698 324.091 698 310.091 537 c 1,40,41
 340.091 578 340.091 578 385.091 607 c 0,42,43
 468.091 662 468.091 662 567.091 662 c 0,44,45
 704.091 662 704.091 662 799.091 567.5 c 128,-1,46
 894.091 473 894.091 473 894.091 326 c 128,-1,47
 894.091 179 894.091 179 805.091 79 c 128,-1,48
 716.091 -21 716.091 -21 559.091 -22 c 1,49,50
 360.091 -22 360.091 -22 263.591 127 c 128,-1,51
 167.091 276 167.091 276 170.091 485 c 1,52,53
 170.091 734 170.091 734 322.091 884.5 c 128,-1,54
 474.091 1035 474.091 1035 726.591 1035 c 128,-1,55
 979.091 1035 979.091 1035 1137.09 876 c 1,56,57
 1286.09 1035 1286.09 1035 1539.59 1035 c 128,-1,58
 1793.09 1035 1793.09 1035 1945.09 884 c 128,-1,59
 2097.09 733 2097.09 733 2097.09 485 c 1,0,1
1517.09 321.5 m 128,-1,61
 1517.09 213 1517.09 213 1569.59 140.5 c 128,-1,62
 1622.09 68 1622.09 68 1720.59 68 c 128,-1,63
 1819.09 68 1819.09 68 1873.59 146.5 c 128,-1,64
 1928.09 225 1928.09 225 1928.09 327 c 128,-1,65
 1928.09 429 1928.09 429 1872.09 499.5 c 128,-1,66
 1816.09 570 1816.09 570 1718.59 570 c 128,-1,67
 1621.09 570 1621.09 570 1569.09 500 c 128,-1,60
 1517.09 430 1517.09 430 1517.09 321.5 c 128,-1,61
750.091 321.5 m 128,-1,69
 750.091 430 750.091 430 698.091 500 c 128,-1,70
 646.091 570 646.091 570 548.591 570 c 128,-1,71
 451.091 570 451.091 570 395.091 499.5 c 128,-1,72
 339.091 429 339.091 429 338.591 325.5 c 128,-1,73
 338.091 222 338.091 222 392.591 145 c 128,-1,74
 447.091 68 447.091 68 546.091 68 c 128,-1,75
 645.091 68 645.091 68 697.591 140.5 c 128,-1,68
 750.091 213 750.091 213 750.091 321.5 c 128,-1,69
EndSplineSet
EndChar

StartChar: ml_e
Encoding: 53 3342 56
Width: 2299
VWidth: 2064
GlyphClass: 2
Flags: W
LayerCount: 2
Fore
SplineSet
580 63 m 1,0,1
 720 175 720 175 720 327 c 0,2,3
 720 436 720 436 671.5 503.5 c 128,-1,4
 623 571 623 571 523 571 c 128,-1,5
 423 571 423 571 370 504.5 c 128,-1,6
 317 438 317 438 317 334 c 0,7,8
 317 136 317 136 460 72 c 2,9,-1
 491 58 l 1,10,-1
 464 38 l 2,11,12
 449 26 449 26 450 -2 c 2,13,-1
 452 -35 l 1,14,-1
 422 -21 l 2,15,16
 292 39 292 39 231 115 c 128,-1,17
 170 191 170 191 170 337 c 128,-1,18
 170 483 170 483 270 572 c 128,-1,19
 370 661 370 661 523.5 661 c 128,-1,20
 677 661 677 661 774 572 c 128,-1,21
 871 483 871 483 871 333.5 c 128,-1,22
 871 184 871 184 767 85 c 1,23,-1
 1082 85 l 1,24,25
 1078 166 1078 166 1078 228 c 0,26,27
 1078 570 1078 570 1210 780 c 0,28,29
 1371 1035 1371 1035 1691 1035 c 128,-1,30
 2011 1035 2011 1035 2164 811 c 0,31,32
 2292 623 2292 623 2292 301 c 0,33,34
 2292 -245 2292 -245 1932 -454 c 1,35,-1
 1903 -471 l 1,36,-1
 1902 -437 l 2,37,38
 1901 -396 1901 -396 1871 -373 c 2,39,-1
 1847 -354 l 1,40,-1
 1873 -339 l 1,41,42
 2136 -196 2136 -196 2136 300 c 0,43,44
 2136 575 2136 575 2048 740 c 0,45,46
 1937 949 1937 949 1705 946.5 c 128,-1,47
 1473 944 1473 944 1354 781 c 128,-1,48
 1235 618 1235 618 1237 194 c 1,49,-1
 1238 85 l 1,50,-1
 1585 85 l 1,51,-1
 1586 176 l 1,52,53
 1590 658 1590 658 1572 811 c 2,54,-1
 1568 845 l 1,55,-1
 1600 831 l 2,56,57
 1619 823 1619 823 1648.5 823 c 128,-1,58
 1678 823 1678 823 1702 832 c 2,59,-1
 1730 842 l 1,60,-1
 1729 812 l 2,61,62
 1721 572 1721 572 1721 -6 c 0,63,64
 1721 -210 1721 -210 1692 -287 c 0,65,66
 1637 -434 1637 -434 1461.5 -434 c 128,-1,67
 1286 -434 1286 -434 1187 -285 c 0,68,69
 1114 -175 1114 -175 1091 -4 c 1,70,-1
 580 -4 l 1,71,-1
 581 17 l 2,72,73
 582 40 582 40 580 63 c 1,0,1
1591 -141 m 1,74,-1
 1585 -4 l 1,75,-1
 1245 -4 l 1,76,77
 1255 -132 1255 -132 1300 -221 c 0,78,79
 1362 -345 1362 -345 1476.5 -345 c 128,-1,80
 1591 -345 1591 -345 1591 -141 c 1,74,-1
EndSplineSet
EndChar

StartChar: ml_ee
Encoding: 54 3343 57
Width: 2299
VWidth: 2064
GlyphClass: 2
Flags: W
LayerCount: 2
Fore
SplineSet
579 -4 m 1,0,-1
 578 45 l 2,1,2
 577 56 577 56 585 67 c 1,3,4
 720 174 720 174 720 327 c 0,5,6
 720 436 720 436 671.5 503.5 c 128,-1,7
 623 571 623 571 523 571 c 128,-1,8
 423 571 423 571 370 504.5 c 128,-1,9
 317 438 317 438 317 334 c 0,10,11
 317 136 317 136 460 72 c 2,12,-1
 491 58 l 1,13,-1
 464 38 l 2,14,15
 449 28 449 28 450 -2 c 2,16,-1
 451 -35 l 1,17,-1
 422 -21 l 1,18,19
 292 39 292 39 231 115 c 128,-1,20
 170 191 170 191 170 337 c 128,-1,21
 170 483 170 483 270 572 c 128,-1,22
 370 661 370 661 523.5 661 c 128,-1,23
 677 661 677 661 774 572 c 128,-1,24
 871 483 871 483 871 334 c 128,-1,25
 871 185 871 185 767 85 c 1,26,-1
 1082 85 l 1,27,28
 1078 166 1078 166 1078 228 c 0,29,30
 1078 570 1078 570 1210 780 c 0,31,32
 1371 1035 1371 1035 1699 1035 c 0,33,34
 1925 1035 1925 1035 2096.5 913 c 128,-1,35
 2268 791 2268 791 2268 569 c 0,36,37
 2268 459 2268 459 2215 385 c 128,-1,38
 2162 311 2162 311 2094 281 c 1,39,40
 2172 245 2172 245 2232 160 c 128,-1,41
 2292 75 2292 75 2292 -47 c 0,42,43
 2292 -226 2292 -226 2178.5 -326.5 c 128,-1,44
 2065 -427 2065 -427 1885 -427 c 0,45,46
 1846 -427 1846 -427 1813 -422 c 2,47,-1
 1786 -418 l 1,48,-1
 1798 -393 l 2,49,50
 1810 -369 1810 -369 1810 -344 c 128,-1,51
 1810 -319 1810 -319 1806 -309 c 2,52,-1
 1784 -259 l 1,53,-1
 1833 -283 l 2,54,55
 1863 -298 1863 -298 1915 -298 c 0,56,57
 2024 -298 2024 -298 2081.5 -227.5 c 128,-1,58
 2139 -157 2139 -157 2139 -40.5 c 128,-1,59
 2139 76 2139 76 2065 144 c 128,-1,60
 1991 212 1991 212 1869 212 c 0,61,62
 1829 212 1829 212 1796 204 c 2,63,-1
 1758 194 l 1,64,-1
 1772 230 l 2,65,66
 1779 246 1779 246 1779 281.5 c 128,-1,67
 1779 317 1779 317 1772 334 c 2,68,-1
 1758 371 l 1,69,-1
 1796 360 l 2,70,71
 1837 349 1837 349 1882 349 c 0,72,73
 1991 349 1991 349 2052.5 412 c 128,-1,74
 2114 475 2114 475 2114 585 c 0,75,76
 2114 754 2114 754 1987 850 c 128,-1,77
 1860 946 1860 946 1683 946 c 0,78,79
 1590 946 1590 946 1498.5 899.5 c 128,-1,80
 1407 853 1407 853 1352 778 c 0,81,82
 1235 616 1235 616 1237 193 c 1,83,-1
 1238 85 l 1,84,-1
 1585 85 l 1,85,-1
 1586 176 l 1,86,87
 1590.59 733.037 1590.59 733.037 1568 846 c 1,88,-1
 1600 831 l 2,89,90
 1646 810 1646 810 1702 832 c 1,91,-1
 1730 842 l 1,92,-1
 1729 812 l 2,93,94
 1721 572 1721 572 1721 -8 c 0,95,96
 1721 -206 1721 -206 1693 -285 c 0,97,98
 1639 -434 1639 -434 1465 -434 c 0,99,100
 1154 -434 1154 -434 1092 -4 c 1,101,-1
 579 -4 l 1,0,-1
1590 -136 m 1,102,-1
 1585 -4 l 1,103,-1
 1245 -4 l 1,104,105
 1255 -129 1255 -129 1301 -220 c 0,106,107
 1363 -345 1363 -345 1476.5 -345 c 128,-1,108
 1590 -345 1590 -345 1590 -136 c 1,102,-1
EndSplineSet
EndChar

StartChar: ml_ai
Encoding: 55 3344 58
Width: 3529
VWidth: 2064
GlyphClass: 2
Flags: W
LayerCount: 2
Fore
SplineSet
1810 63 m 1,0,1
 1951 175 1951 175 1951 327 c 0,2,3
 1951 436 1951 436 1902 503.5 c 128,-1,4
 1853 571 1853 571 1753.5 571 c 128,-1,5
 1654 571 1654 571 1601 504.5 c 128,-1,6
 1548 438 1548 438 1548 334 c 0,7,8
 1548 136 1548 136 1691 72 c 2,9,-1
 1722 58 l 1,10,-1
 1695 38 l 2,11,12
 1679 26 1679 26 1680 -2 c 2,13,-1
 1681 -35 l 1,14,-1
 1652 -21 l 1,15,16
 1523 39 1523 39 1461.5 115 c 128,-1,17
 1400 191 1400 191 1400 337 c 128,-1,18
 1400 483 1400 483 1500 572 c 128,-1,19
 1600 661 1600 661 1753.5 661 c 128,-1,20
 1907 661 1907 661 2004.5 572 c 128,-1,21
 2102 483 2102 483 2102 333.5 c 128,-1,22
 2102 184 2102 184 1998 85 c 1,23,-1
 2313 85 l 1,24,25
 2309 166 2309 166 2309 228 c 0,26,27
 2309 570 2309 570 2441 780 c 0,28,29
 2602 1035 2602 1035 2922 1035 c 128,-1,30
 3242 1035 3242 1035 3395 811 c 1,31,32
 3522 623 3522 623 3522 301 c 0,33,34
 3522 -244 3522 -244 3163 -454 c 2,35,-1
 3134 -471 l 1,36,-1
 3133 -437 l 2,37,38
 3132 -396 3132 -396 3102 -373 c 2,39,-1
 3078 -354 l 1,40,-1
 3104 -339 l 1,41,42
 3367 -196 3367 -196 3367 300 c 0,43,44
 3367 575 3367 575 3279 740 c 0,45,46
 3168 949 3168 949 2936 946.5 c 128,-1,47
 2704 944 2704 944 2585 781 c 128,-1,48
 2466 618 2466 618 2468 194 c 1,49,-1
 2468 85 l 1,50,-1
 2815 85 l 1,51,-1
 2816 176 l 1,52,53
 2820 658 2820 658 2799 846 c 1,54,-1
 2831 831 l 2,55,56
 2876 810 2876 810 2933 832 c 1,57,-1
 2961 842 l 1,58,59
 2952 571 2952 571 2952 -6 c 0,60,61
 2952 -211 2952 -211 2923 -288 c 0,62,63
 2868 -434 2868 -434 2689 -434 c 0,64,65
 2384 -434 2384 -434 2323 -4 c 1,66,-1
 1809 -4 l 1,67,-1
 1811 18 l 2,68,69
 1813 40 1813 40 1810 63 c 1,0,1
2821 -136 m 1,70,-1
 2816 -4 l 1,71,-1
 2476 -4 l 1,72,73
 2486 -129 2486 -129 2532 -220 c 0,74,75
 2594 -345 2594 -345 2704 -345 c 0,76,77
 2821 -345 2821 -345 2821 -136 c 1,70,-1
1256 490 m 0,78,79
 1256 169 1256 169 1002 -23 c 1,80,-1
 978 -41 l 1,81,-1
 971 -12 l 2,82,83
 964 18 964 18 932 43 c 2,84,-1
 910 61 l 1,85,-1
 935 76 l 2,86,87
 1019 126 1019 126 1063 242.5 c 128,-1,88
 1107 359 1107 359 1107 477 c 0,89,90
 1107 671 1107 671 1006 804.5 c 128,-1,91
 905 938 905 938 718 938 c 128,-1,92
 531 938 531 938 422 822 c 128,-1,93
 313 706 313 706 306 530 c 1,94,95
 337 575 337 575 403 618.5 c 0,96,97
 469 662 469 662 568 662 c 0,98,99
 704 662 704 662 799 567.5 c 128,-1,100
 894 473 894 473 894 326.5 c 128,-1,101
 894 180 894 180 805 79 c 128,-1,102
 716 -22 716 -22 560 -22 c 0,103,104
 364 -22 364 -22 259 132 c 0,105,106
 170 263 170 263 170 463 c 0,107,108
 170 721 170 721 314.5 877 c 128,-1,109
 459 1033 459 1033 708.5 1033 c 128,-1,110
 958 1033 958 1033 1107 882.5 c 128,-1,111
 1256 732 1256 732 1256 490 c 0,78,79
547.5 68 m 128,-1,113
 646 68 646 68 698.5 141 c 128,-1,114
 751 214 751 214 751 321.5 c 128,-1,115
 751 429 751 429 698.5 499.5 c 128,-1,116
 646 570 646 570 549 570 c 128,-1,117
 452 570 452 570 396 499.5 c 128,-1,118
 340 429 340 429 340 327 c 128,-1,119
 340 225 340 225 394.5 146.5 c 128,-1,112
 449 68 449 68 547.5 68 c 128,-1,113
EndSplineSet
EndChar

StartChar: ml_o
Encoding: 56 3346 59
Width: 1263
VWidth: 2064
GlyphClass: 2
Flags: W
LayerCount: 2
Fore
SplineSet
1257 260 m 0,0,1
 1257 116 1257 116 1158 41 c 128,-1,2
 1059 -34 1059 -34 916 -31 c 1,3,-1
 894 -31 l 1,4,-1
 896 -10 l 1,5,6
 899 37 899 37 883 62 c 1,7,-1
 852 105 l 1,8,-1
 904 92 l 2,9,10
 927 87 927 87 948 87 c 0,11,12
 1013 87 1013 87 1057.5 135.5 c 128,-1,13
 1102 184 1102 184 1102 259 c 128,-1,14
 1102 334 1102 334 1061 383.5 c 128,-1,15
 1020 433 1020 433 946 433 c 0,16,17
 927 433 927 433 913 429 c 2,18,-1
 871 417 l 1,19,-1
 889 456 l 2,20,21
 895 470 895 470 895 495.5 c 128,-1,22
 895 521 895 521 889 535 c 2,23,-1
 875 566 l 1,24,-1
 909 563 l 2,25,26
 928 561 928 561 945 561 c 0,27,28
 1002 561 1002 561 1038 598.5 c 128,-1,29
 1074 636 1074 636 1076 696 c 0,30,31
 1080 819 1080 819 976.5 883 c 128,-1,32
 873 947 873 947 734 947 c 0,33,34
 532 947 532 947 423.5 815 c 128,-1,35
 315 683 315 683 315 478 c 1,36,37
 387 593 387 593 543 593 c 0,38,39
 666 593 666 593 751 507 c 128,-1,40
 836 421 836 421 836 287.5 c 128,-1,41
 836 154 836 154 756 63.5 c 128,-1,42
 676 -27 676 -27 533 -27 c 1,43,44
 340 -22 340 -22 244 143 c 0,45,46
 170 272 170 272 170 471 c 0,47,48
 170 726 170 726 319 881.5 c 128,-1,49
 468 1037 468 1037 723 1037 c 1,50,51
 904 1045 904 1045 1046 973 c 0,52,53
 1223 883 1223 883 1230 709 c 0,54,55
 1236 559 1236 559 1117 496 c 1,56,57
 1170 467 1170 467 1213.5 406.5 c 128,-1,58
 1257 346 1257 346 1257 260 c 0,0,1
681 282 m 0,59,60
 681 506 681 506 514 506 c 0,61,62
 431 506 431 506 391 445.5 c 128,-1,63
 351 385 351 385 351 291 c 128,-1,64
 351 197 351 197 391.5 127.5 c 128,-1,65
 432 58 432 58 516 58 c 128,-1,66
 600 58 600 58 640.5 111.5 c 128,-1,67
 681 165 681 165 681 282 c 0,59,60
EndSplineSet
EndChar

StartChar: ml_oo
Encoding: 57 3347 60
Width: 2205
VWidth: 2064
GlyphClass: 2
Flags: W
LayerCount: 2
Fore
SplineSet
2198 486 m 1,0,1
 2196 279 2196 279 2075 133.5 c 128,-1,2
 1954 -12 1954 -12 1751 -12 c 0,3,4
 1446 -12 1446 -12 1352 249 c 1,5,-1
 1339 286 l 1,6,-1
 1376 275 l 2,7,8
 1381 274 1381 274 1402.5 274 c 128,-1,9
 1424 274 1424 274 1453 286 c 1,10,-1
 1475 296 l 1,11,-1
 1481 272 l 1,12,13
 1502 178 1502 178 1578 122.5 c 128,-1,14
 1654 67 1654 67 1752 67 c 1,15,16
 1899 70 1899 70 1977 205 c 0,17,18
 2043 320 2043 320 2045 494.5 c 128,-1,19
 2047 669 2047 669 1985 791 c 0,20,21
 1909 942 1909 942 1745 942 c 0,22,23
 1643 942 1643 942 1568.5 873 c 128,-1,24
 1494 804 1494 804 1483 702 c 2,25,-1
 1479 663 l 1,26,-1
 1450 689 l 2,27,28
 1422 714 1422 714 1375 717 c 1,29,-1
 1349 718 l 1,30,-1
 1357 743 l 1,31,32
 1452 1026 1452 1026 1766 1026 c 1,33,34
 1986 1022 1986 1022 2105 848 c 0,35,36
 2206 700 2206 700 2198 486 c 1,0,1
1257 260 m 0,37,38
 1257 116 1257 116 1158 41 c 128,-1,39
 1059 -34 1059 -34 915 -31 c 1,40,-1
 893 -31 l 1,41,-1
 895 -9 l 2,42,43
 899 38 899 38 883 62 c 1,44,-1
 852 105 l 1,45,-1
 904 92 l 2,46,47
 927 87 927 87 948 87 c 0,48,49
 1013 87 1013 87 1057.5 135.5 c 128,-1,50
 1102 184 1102 184 1102 259 c 128,-1,51
 1102 334 1102 334 1061 383.5 c 128,-1,52
 1020 433 1020 433 946 433 c 0,53,54
 927 433 927 433 913 429 c 2,55,-1
 871 417 l 1,56,-1
 889 456 l 2,57,58
 895 470 895 470 895 495.5 c 128,-1,59
 895 521 895 521 889 535 c 2,60,-1
 875 566 l 1,61,-1
 909 563 l 2,62,63
 928 561 928 561 945 561 c 0,64,65
 1002 561 1002 561 1038 598.5 c 128,-1,66
 1074 636 1074 636 1076 696 c 0,67,68
 1080 819 1080 819 976 883 c 128,-1,69
 872 947 872 947 733 947 c 0,70,71
 532 947 532 947 423.5 815 c 128,-1,72
 315 683 315 683 315 478 c 1,73,74
 387 593 387 593 543 593 c 0,75,76
 666 593 666 593 750.5 507 c 128,-1,77
 835 421 835 421 835 287.5 c 128,-1,78
 835 154 835 154 755 63.5 c 128,-1,79
 675 -27 675 -27 533 -27 c 1,80,81
 339 -22 339 -22 244 143 c 0,82,83
 170 272 170 272 170 471 c 0,84,85
 170 726 170 726 319 881.5 c 128,-1,86
 468 1037 468 1037 723 1037 c 1,87,88
 904 1045 904 1045 1046 973 c 0,89,90
 1223 883 1223 883 1230 709 c 0,91,92
 1236 559 1236 559 1117 496 c 1,93,94
 1170 467 1170 467 1213.5 406.5 c 128,-1,95
 1257 346 1257 346 1257 260 c 0,37,38
680 282 m 0,96,97
 680 506 680 506 514 506 c 0,98,99
 432 506 432 506 391.5 445.5 c 128,-1,100
 351 385 351 385 351 291 c 128,-1,101
 351 197 351 197 391.5 127.5 c 128,-1,102
 432 58 432 58 515.5 58 c 128,-1,103
 599 58 599 58 639.5 111.5 c 128,-1,104
 680 165 680 165 680 282 c 0,96,97
EndSplineSet
EndChar

StartChar: ml_au1
Encoding: 58 3348 61
Width: 2543
VWidth: 2064
GlyphClass: 2
Flags: W
LayerCount: 2
Fore
SplineSet
1915 887 m 1,0,1
 1986 1041 1986 1041 2180 1041 c 0,2,3
 2328 1041 2328 1041 2421 934 c 0,4,5
 2537 800 2537 800 2536 555 c 1,6,7
 2540 283 2540 283 2372 128.5 c 128,-1,8
 2204 -26 2204 -26 1929 -18 c 1,9,10
 1682 -16 1682 -16 1528 135 c 0,11,12
 1490 171 1490 171 1466 213 c 2,13,-1
 1453 236 l 1,14,-1
 1478 242 l 1,15,16
 1510 251 1510 251 1537 280 c 1,17,-1
 1557 300 l 1,18,-1
 1570 275 l 1,19,20
 1675 76 1675 76 1928 71 c 1,21,22
 2145 72 2145 72 2260 192.5 c 128,-1,23
 2375 313 2375 313 2380 523 c 0,24,25
 2390 939 2390 939 2146 946 c 0,26,27
 2074 949 2074 949 2016.5 891 c 0,28,29
 1959 833 1959 833 1959 737 c 2,30,-1
 1959 643 l 2,31,32
 1959 620 1959 620 1965 509 c 1,33,-1
 1966 482 l 1,34,-1
 1940 489 l 2,35,36
 1917 495 1917 495 1888.5 495 c 128,-1,37
 1860 495 1860 495 1834 489 c 2,38,-1
 1807 482 l 1,39,-1
 1809 509 l 2,40,41
 1819 643 1819 643 1815.5 737 c 128,-1,42
 1812 831 1812 831 1763.5 889.5 c 128,-1,43
 1715 948 1715 948 1641 948 c 0,44,45
 1458 948 1458 948 1458 710 c 0,46,47
 1458 565 1458 565 1462 509 c 2,48,-1
 1464 482 l 1,49,-1
 1437 489 l 2,50,51
 1408 496 1408 496 1371 488 c 1,52,-1
 1346 484 l 1,53,-1
 1354 689 l 1,54,55
 1358 881 1358 881 1467 974 c 0,56,57
 1549 1044 1549 1044 1639 1040 c 128,-1,58
 1729 1036 1729 1036 1772 1021 c 1,59,60
 1872 983 1872 983 1915 887 c 1,0,1
1257 260 m 0,61,62
 1257 116 1257 116 1158 41 c 128,-1,63
 1059 -34 1059 -34 915 -31 c 1,64,-1
 893 -31 l 1,65,-1
 895 -9 l 2,66,67
 899 38 899 38 883 62 c 1,68,-1
 852 105 l 1,69,-1
 904 92 l 2,70,71
 927 87 927 87 948 87 c 0,72,73
 1013 87 1013 87 1057.5 135.5 c 128,-1,74
 1102 184 1102 184 1102 259 c 128,-1,75
 1102 334 1102 334 1061 383.5 c 128,-1,76
 1020 433 1020 433 946 433 c 0,77,78
 927 433 927 433 913 429 c 2,79,-1
 871 417 l 1,80,-1
 889 456 l 2,81,82
 895 470 895 470 895 495.5 c 128,-1,83
 895 521 895 521 889 535 c 2,84,-1
 875 566 l 1,85,-1
 909 563 l 2,86,87
 928 561 928 561 945 561 c 0,88,89
 1002 561 1002 561 1038 598.5 c 128,-1,90
 1074 636 1074 636 1076 696 c 0,91,92
 1080 819 1080 819 976 883 c 128,-1,93
 872 947 872 947 733 947 c 0,94,95
 532 947 532 947 423.5 815 c 128,-1,96
 315 683 315 683 315 478 c 1,97,98
 387 593 387 593 543 593 c 0,99,100
 666 593 666 593 750.5 507 c 128,-1,101
 835 421 835 421 835 287.5 c 128,-1,102
 835 154 835 154 755 63.5 c 128,-1,103
 675 -27 675 -27 533 -27 c 1,104,105
 339 -22 339 -22 244 143 c 0,106,107
 170 272 170 272 170 471 c 0,108,109
 170 726 170 726 319 881.5 c 128,-1,110
 468 1037 468 1037 723 1037 c 1,111,112
 904 1045 904 1045 1046 973 c 0,113,114
 1223 883 1223 883 1230 709 c 0,115,116
 1236 559 1236 559 1117 496 c 1,117,118
 1170 467 1170 467 1213.5 406.5 c 128,-1,119
 1257 346 1257 346 1257 260 c 0,61,62
680 282 m 0,120,121
 680 506 680 506 514 506 c 0,122,123
 432 506 432 506 391.5 445.5 c 128,-1,124
 351 385 351 385 351 291 c 128,-1,125
 351 197 351 197 391.5 127.5 c 128,-1,126
 432 58 432 58 515.5 58 c 128,-1,127
 599 58 599 58 639.5 111.5 c 128,-1,128
 680 165 680 165 680 282 c 0,120,121
EndSplineSet
EndChar

StartChar: k1
Encoding: 59 3349 62
Width: 1772
VWidth: 2064
GlyphClass: 2
Flags: W
LayerCount: 2
Fore
SplineSet
1652 524 m 1,0,1
 1765 434 1765 434 1765 280.5 c 128,-1,2
 1765 127 1765 127 1645.5 49 c 128,-1,3
 1526 -29 1526 -29 1363 -22 c 2,4,-1
 1338 -21 l 1,5,-1
 1345 3 l 2,6,7
 1348 14 1348 14 1348 30.5 c 128,-1,8
 1348 47 1348 47 1338 62 c 2,9,-1
 1310 105 l 1,10,-1
 1360 92 l 2,11,12
 1389 85 1389 85 1421 85 c 0,13,14
 1509 85 1509 85 1563 142.5 c 128,-1,15
 1617 200 1617 200 1617 299 c 128,-1,16
 1617 398 1617 398 1548 451 c 1,17,18
 1500 491 1500 491 1355 494 c 1,19,20
 1352 288 1352 288 1283 160 c 0,21,22
 1187 -20 1187 -20 974 -20 c 0,23,24
 789 -20 789 -20 704 128 c 1,25,26
 681 69 681 69 618 24.5 c 128,-1,27
 555 -20 555 -20 442 -20 c 128,-1,28
 329 -20 329 -20 249.5 60.5 c 128,-1,29
 170 141 170 141 170 277.5 c 128,-1,30
 170 414 170 414 263 495 c 128,-1,31
 356 576 356 576 505 582 c 0,32,33
 547 584 547 584 608 582 c 1,34,35
 614 761 614 761 696 882 c 0,36,37
 799 1034 799 1034 985 1035.5 c 128,-1,38
 1171 1037 1171 1037 1269 881 c 1,39,40
 1347 759 1347 759 1353 581 c 1,41,42
 1415 581 l 2,43,44
 1578 581 1578 581 1652 524 c 1,0,1
1198 582 m 1,45,46
 1196 710 1196 710 1174.5 785 c 128,-1,47
 1153 860 1153 860 1103.5 903.5 c 128,-1,48
 1054 947 1054 947 988 947 c 0,49,50
 759 945 759 945 763 582 c 1,51,-1
 1198 582 l 1,45,46
1198 440 m 2,52,-1
 1198 492 l 1,53,-1
 762 492 l 1,54,55
 760 415 760 415 774 303 c 0,56,57
 801 77 801 77 979 69 c 1,58,59
 1116 69 1116 69 1166 187 c 1,60,61
 1198 266 1198 266 1198 440 c 2,52,-1
629 236 m 1,62,-1
 608 493 l 1,63,64
 535 493 l 2,65,66
 434 493 434 493 374 436.5 c 128,-1,67
 314 380 314 380 314 287.5 c 128,-1,68
 314 195 314 195 358.5 135 c 128,-1,69
 403 75 403 75 479.5 75 c 128,-1,70
 556 75 556 75 592.5 113.5 c 128,-1,71
 629 152 629 152 629 236 c 1,62,-1
EndSplineSet
EndChar

StartChar: k2
Encoding: 60 3350 63
Width: 1652
VWidth: 2064
GlyphClass: 2
Flags: W
LayerCount: 2
Fore
SplineSet
871 60 m 1,0,1
 1074 243 1074 243 1074 495 c 0,2,3
 1074 693 1074 693 970.5 818 c 128,-1,4
 867 943 867 943 676 943 c 1,5,6
 489 934 489 934 398 811 c 128,-1,7
 307 688 307 688 301 507 c 1,8,9
 375 663 375 663 565 663 c 0,10,11
 699 663 699 663 786 564 c 128,-1,12
 873 465 873 465 873 325 c 128,-1,13
 873 185 873 185 788 87 c 128,-1,14
 703 -11 703 -11 558 -11 c 0,15,16
 369 -11 369 -11 261 156 c 0,17,18
 170 298 170 298 170 495 c 0,19,20
 170 739 170 739 315.5 886.5 c 128,-1,21
 461 1034 461 1034 693 1034 c 128,-1,22
 925 1034 925 1034 1071.5 886.5 c 128,-1,23
 1218 739 1218 739 1218 518 c 1,24,25
 1225 257 1225 257 1036 85 c 1,26,-1
 1489 85 l 1,27,28
 1499 220 1499 220 1499 382 c 2,29,-1
 1499 677 l 2,30,31
 1499 842 1499 842 1487 985 c 1,32,-1
 1485 1012 l 1,33,-1
 1511 1007 l 2,34,35
 1538 1001 1538 1001 1567.5 1001 c 128,-1,36
 1597 1001 1597 1001 1619 1006 c 2,37,-1
 1645 1013 l 1,38,-1
 1644 986 l 1,39,40
 1636 807 1636 807 1636 690 c 2,41,-1
 1636 350 l 2,42,43
 1636 200 1636 200 1644 17 c 2,44,-1
 1645 -4 l 1,45,-1
 867 -4 l 1,46,-1
 874 21 l 2,47,48
 875 27 875 27 875 34.5 c 128,-1,49
 875 42 875 42 871 60 c 1,0,1
680.5 506.5 m 128,-1,51
 631 568 631 568 535.5 566.5 c 128,-1,52
 440 565 440 565 392.5 497 c 128,-1,53
 345 429 345 429 345 329 c 128,-1,54
 345 229 345 229 395 153.5 c 128,-1,55
 445 78 445 78 539 78 c 128,-1,56
 633 78 633 78 681.5 145 c 128,-1,57
 730 212 730 212 730 328.5 c 128,-1,50
 730 445 730 445 680.5 506.5 c 128,-1,51
EndSplineSet
EndChar

StartChar: k3
Encoding: 61 3351 64
Width: 1698
VWidth: 2064
GlyphClass: 2
Flags: W
LayerCount: 2
Fore
SplineSet
855.192 337 m 1,0,-1
 833.192 601 l 1,1,2
 824.192 790 824.192 790 933.192 912 c 0,3,4
 1042.19 1034 1042.19 1034 1245.19 1037 c 0,5,6
 1448.19 1040 1448.19 1040 1572.19 884 c 0,7,8
 1696.19 728 1696.19 728 1691.19 513 c 0,9,10
 1682.19 148 1682.19 148 1352.19 -33 c 1,11,-1
 1326.19 -46 l 1,12,-1
 1322.19 -18 l 2,13,14
 1317.19 19 1317.19 19 1290.19 44 c 1,15,-1
 1267.19 64 l 1,16,-1
 1294.19 77 l 1,17,18
 1532.19 189 1532.19 189 1532.19 524 c 1,19,20
 1535.19 710 1535.19 710 1459.19 828 c 0,21,22
 1383.19 946 1383.19 946 1244.19 946 c 0,23,24
 1105.19 946 1105.19 946 1044.19 857 c 0,25,26
 983.192 768 983.192 768 990.192 629 c 0,27,28
 991.192 593 991.192 593 1000.19 496 c 0,29,30
 1009.19 399 1009.19 399 1009.19 346 c 0,31,32
 1009.19 184 1009.19 184 901.692 77.5 c 128,-1,33
 794.192 -29 794.192 -29 633.192 -29 c 1,34,35
 416.192 -33 416.192 -33 290.192 118 c 0,36,37
 165.192 269 165.192 269 170.192 479 c 1,38,39
 170.192 761 170.192 761 366.192 936 c 0,40,41
 448.192 1009 448.192 1009 535.192 1039 c 2,42,-1
 569.192 1051 l 1,43,-1
 562.192 1016 l 2,44,45
 555.192 986 555.192 986 583.192 956 c 1,46,-1
 606.192 933 l 1,47,-1
 575.192 923 l 2,48,49
 451.192 882 451.192 882 388.192 754 c 0,50,51
 325.192 626 325.192 626 325.192 471 c 0,52,53
 325.192 316 325.192 316 397.192 198 c 1,54,55
 479.192 61 479.192 61 623.192 61 c 0,56,57
 737.192 61 737.192 61 796.192 138.5 c 0,58,59
 855.192 216 855.192 216 855.192 337 c 1,0,-1
EndSplineSet
EndChar

StartChar: k4
Encoding: 62 3352 65
Width: 2255
VWidth: 2064
GlyphClass: 2
Flags: W
LayerCount: 2
Fore
SplineSet
535 439 m 1,0,1
 662 526.923 662 526.923 662 672 c 0,2,3
 662 759 662 759 613 820.5 c 128,-1,4
 564 882 564 882 483 881 c 1,5,6
 393 875 393 875 347.5 814.5 c 128,-1,7
 302 754 302 754 302.5 665.5 c 128,-1,8
 303 577 303 577 351 508 c 1,9,10
 381 469 381 469 424 446 c 2,11,-1
 452 431 l 1,12,-1
 427 412 l 2,13,14
 411 400 411 400 411 375 c 2,15,-1
 410 345 l 1,16,-1
 382 358 l 1,17,18
 170 458 170 458 170 682 c 1,19,20
 171 813 171 813 263 891.5 c 128,-1,21
 355 970 355 970 485.5 971 c 128,-1,22
 616 972 616 972 708.5 887.5 c 128,-1,23
 801 803 801 803 801 671 c 128,-1,24
 801 539 801 539 706 452 c 1,25,-1
 1017 452 l 1,26,-1
 1017 641 l 2,27,28
 1017 830 1017 830 1079 907 c 0,29,30
 1183 1038 1183 1038 1380 1037.5 c 128,-1,31
 1577 1037 1577 1037 1680 908 c 1,32,33
 1739 836 1739 836 1739 626 c 0,34,35
 1739 524 1739 524 1746 384 c 2,36,-1
 1747 363 l 1,37,-1
 1154 363 l 1,38,-1
 1154 85 l 1,39,-1
 2103 85 l 1,40,-1
 2103 669 l 2,41,42
 2103 776 2103 776 2097 883.5 c 128,-1,43
 2091 991 2091 991 2090.5 1002 c 128,-1,44
 2090 1013 2090 1013 2089 1018 c 1,45,-1
 2119 1006 l 2,46,47
 2137 998 2137 998 2165 998 c 128,-1,48
 2193 998 2193 998 2221 1006 c 2,49,-1
 2248 1014 l 1,50,-1
 2247 986 l 1,51,52
 2239 798 2239 798 2239 685 c 2,53,-1
 2239 321 l 2,54,55
 2239 249 2239 249 2247 17 c 1,56,-1
 2248 -4 l 1,57,-1
 1006 -4 l 1,58,-1
 1007 17 l 1,59,60
 1011 134 1011 134 1017 363 c 1,61,-1
 531 363 l 1,62,-1
 541 390 l 2,63,64
 546 403 546 403 546 408.5 c 128,-1,65
 546 414 546 414 535 439 c 1,0,1
1605 452 m 1,66,-1
 1605 623 l 1,67,68
 1603 751 1603 751 1601 763 c 0,69,70
 1592 831 1592 831 1547 874 c 0,71,72
 1483 937 1483 937 1375.5 937 c 128,-1,73
 1268 937 1268 937 1211 873.5 c 128,-1,74
 1154 810 1154 810 1154 650 c 2,75,-1
 1154 452 l 1,76,-1
 1605 452 l 1,66,-1
EndSplineSet
EndChar

StartChar: ng
Encoding: 63 3353 66
Width: 1959
VWidth: 2064
GlyphClass: 2
Flags: W
LayerCount: 2
Fore
SplineSet
1953.16 268 m 0,0,1
 1953.16 110 1953.16 110 1814.16 25 c 0,2,3
 1702.16 -43 1702.16 -43 1540.16 -43 c 0,4,5
 1453.16 -43 1453.16 -43 1384.16 -23 c 1,6,-1
 1349.16 -14 l 1,7,-1
 1375.16 11 l 2,8,9
 1397.16 31 1397.16 31 1397.16 54 c 0,10,11
 1397.16 77 1397.16 77 1394.16 89 c 2,12,-1
 1377.16 148 l 1,13,-1
 1425.16 110 l 2,14,15
 1473.16 72 1473.16 72 1575.16 72 c 0,16,17
 1677.16 72 1677.16 72 1739.16 119 c 0,18,19
 1801.16 166 1801.16 166 1801.16 256.5 c 128,-1,20
 1801.16 347 1801.16 347 1740.16 391.5 c 0,21,22
 1679.16 436 1679.16 436 1596.66 436 c 0,23,24
 1514.16 436 1514.16 436 1468.16 421 c 2,25,-1
 1427.16 407 l 1,26,-1
 1444.16 448 l 2,27,28
 1450.16 463 1450.16 463 1450.16 498.5 c 128,-1,29
 1450.16 534 1450.16 534 1443.16 551 c 2,30,-1
 1430.16 583 l 1,31,-1
 1465.16 578 l 1,32,33
 1533.16 567 1533.16 567 1583.16 567 c 0,34,35
 1683.16 567 1683.16 567 1729.66 608.5 c 128,-1,36
 1776.16 650 1776.16 650 1776.16 746 c 0,37,38
 1776.16 842 1776.16 842 1698.16 894 c 0,39,40
 1620.16 946 1620.16 946 1504.16 946 c 0,41,42
 1296.16 946 1296.16 946 1213.16 785 c 0,43,44
 1185.16 732 1185.16 732 1185.16 620 c 2,45,-1
 1185.16 344 l 1,46,-1
 1196.16 -11 l 1,47,-1
 1169.16 -3 l 2,48,49
 1142.16 5 1142.16 5 1113.16 5 c 0,50,51
 1084.16 5 1084.16 5 1067.16 -3 c 1,52,-1
 1037.16 -15 l 1,53,-1
 1039.16 18 l 1,54,55
 1049.16 147 1049.16 147 1049.16 337 c 2,56,-1
 1049.16 626 l 2,57,58
 1049.16 775 1049.16 775 960.158 858.5 c 0,59,60
 871.158 942 871.158 942 720.158 942 c 0,61,62
 517.158 942 517.158 942 420.158 824 c 0,63,64
 323.158 706 323.158 706 310.158 536 c 1,65,66
 340.158 577 340.158 577 385.158 607 c 0,67,68
 468.158 662 468.158 662 567.158 662 c 0,69,70
 704.158 662 704.158 662 799.158 567.5 c 128,-1,71
 894.158 473 894.158 473 894.158 326 c 0,72,73
 894.158 179 894.158 179 805.158 78.5 c 0,74,75
 716.158 -22 716.158 -22 559.158 -22 c 0,76,77
 360.158 -22 360.158 -22 263.158 128 c 0,78,79
 166.158 278 166.158 278 170.158 485 c 1,80,81
 170.158 734 170.158 734 322.158 884.5 c 128,-1,82
 474.158 1035 474.158 1035 717.158 1035 c 0,83,84
 960.158 1035 960.158 1035 1120.16 890 c 1,85,86
 1266.16 1036 1266.16 1036 1508.16 1036 c 0,87,88
 1677.16 1036 1677.16 1036 1791.16 961 c 0,89,90
 1929.16 871 1929.16 871 1929.16 718.5 c 0,91,92
 1929.16 566 1929.16 566 1800.16 503 c 1,93,94
 1855.16 476 1855.16 476 1904.16 417.5 c 0,95,96
 1953.16 359 1953.16 359 1953.16 268 c 0,0,1
750.158 322 m 128,-1,98
 750.158 430 750.158 430 697.158 501 c 0,99,100
 644.158 572 644.158 572 545.658 570 c 0,101,102
 447.158 568 447.158 568 393.158 498.5 c 0,103,104
 339.158 429 339.158 429 339.158 327 c 0,105,106
 339.158 225 339.158 225 392.158 147.5 c 0,107,108
 445.158 70 445.158 70 544.658 69 c 128,-1,109
 644.158 68 644.158 68 697.158 141 c 0,110,97
 750.158 214 750.158 214 750.158 322 c 128,-1,98
EndSplineSet
EndChar

StartChar: ch1
Encoding: 64 3354 67
Width: 1766
VWidth: 2064
GlyphClass: 2
Flags: W
LayerCount: 2
Fore
SplineSet
1838 -4 m 1,0,-1
 704 -4 l 2,1,2
 332 -4 332 -4 220 -12 c 2,3,-1
 170 -16 l 1,4,-1
 204 22 l 2,5,6
 225 45 225 45 204 69 c 2,7,-1
 173 105 l 1,8,-1
 220 102 l 1,9,10
 552 84 552 84 727.5 84 c 128,-1,11
 903 84 903 84 958.5 99 c 128,-1,12
 1014 114 1014 114 1050 182.5 c 128,-1,13
 1086 251 1086 251 1086 343.5 c 128,-1,14
 1086 436 1086 436 1033 503.5 c 128,-1,15
 980 571 980 571 884 571 c 128,-1,16
 788 571 788 571 733.5 514 c 128,-1,17
 679 457 679 457 679 385.5 c 128,-1,18
 679 314 679 314 696 272 c 2,19,-1
 709 241 l 1,20,-1
 676 244 l 2,21,22
 632 248 632 248 609 215 c 2,23,-1
 591 189 l 1,24,-1
 575 218 l 1,25,26
 541 282 541 282 541 359 c 0,27,28
 541 503 541 503 643 582.5 c 128,-1,29
 745 662 745 662 893 662 c 128,-1,30
 1041 662 1041 662 1141 572 c 128,-1,31
 1241 482 1241 482 1241 328.5 c 128,-1,32
 1241 175 1241 175 1139 85 c 1,33,-1
 1692 85 l 1,34,-1
 1700 526 l 1,35,36
 1702 795 1702 795 1680 985 c 2,37,-1
 1676 1019 l 1,38,-1
 1708 1005 l 2,39,40
 1755 985 1755 985 1810 1006 c 1,41,-1
 1838 1016 l 1,42,-1
 1837 986 l 1,43,44
 1823 443 1823 443 1837 17 c 1,45,-1
 1838 -4 l 1,0,-1
EndSplineSet
EndChar

StartChar: ch2
Encoding: 65 3355 68
Width: 2476
VWidth: 2064
GlyphClass: 2
Flags: W
LayerCount: 2
Fore
SplineSet
1781 70 m 1,0,1
 1767 48 1767 48 1767 37.5 c 128,-1,2
 1767 27 1767 27 1780 -4 c 1,3,-1
 601 -4 l 1,4,5
 474 -3 474 -3 221 -12 c 2,6,-1
 170 -14 l 1,7,-1
 206 22 l 2,8,9
 213 29 213 29 213 44.5 c 128,-1,10
 213 60 213 60 205 68 c 2,11,-1
 172 105 l 1,12,-1
 221 102 l 1,13,14
 495 87 495 87 706.5 87 c 128,-1,15
 918 87 918 87 969 100.5 c 128,-1,16
 1020 114 1020 114 1053.5 181.5 c 128,-1,17
 1087 249 1087 249 1087 342 c 128,-1,18
 1087 435 1087 435 1032.5 503 c 128,-1,19
 978 571 978 571 883 569.5 c 128,-1,20
 788 568 788 568 734 512.5 c 128,-1,21
 680 457 680 457 680 385.5 c 128,-1,22
 680 314 680 314 697 272 c 2,23,-1
 711 239 l 1,24,-1
 676 244 l 2,25,26
 634 250 634 250 610 216 c 1,27,-1
 591 187 l 1,28,-1
 576 218 l 2,29,30
 542 290 542 290 542 359 c 0,31,32
 542 504 542 504 644 583 c 128,-1,33
 746 662 746 662 894 662 c 128,-1,34
 1042 662 1042 662 1142 572 c 128,-1,35
 1242 482 1242 482 1242 328.5 c 128,-1,36
 1242 175 1242 175 1140 85 c 1,37,-1
 1599 85 l 1,38,39
 1456 248 1456 248 1456 489.5 c 128,-1,40
 1456 731 1456 731 1604 881 c 128,-1,41
 1752 1031 1752 1031 1999.5 1031 c 128,-1,42
 2247 1031 2247 1031 2398 886 c 128,-1,43
 2549 741 2549 741 2549 483 c 0,44,45
 2549 269 2549 269 2471 140 c 1,46,47
 2374 -18 2374 -18 2172 -22 c 1,48,49
 2012 -22 2012 -22 1916 90 c 128,-1,50
 1820 202 1820 202 1820 362.5 c 128,-1,51
 1820 523 1820 523 1915.5 631 c 128,-1,52
 2011 739 2011 739 2171 739 c 0,53,54
 2287 739 2287 739 2371 680 c 1,55,56
 2343 779 2343 779 2246.5 858.5 c 128,-1,57
 2150 938 2150 938 2005 938 c 0,58,59
 1809 938 1809 938 1707 805.5 c 128,-1,60
 1605 673 1605 673 1605 468 c 0,61,62
 1605 200 1605 200 1766 81 c 2,63,-1
 1781 70 l 1,0,1
2382 349 m 0,64,65
 2382 641 2382 641 2188 641 c 0,66,67
 2080 641 2080 641 2029.5 558.5 c 128,-1,68
 1979 476 1979 476 1979 359 c 128,-1,69
 1979 242 1979 242 2032 155 c 128,-1,70
 2085 68 2085 68 2184 68 c 128,-1,71
 2283 68 2283 68 2332.5 153 c 128,-1,72
 2382 238 2382 238 2382 349 c 0,64,65
EndSplineSet
EndChar

StartChar: ch3
Encoding: 66 3356 69
Width: 1623
VWidth: 2064
GlyphClass: 2
Flags: W
LayerCount: 2
Fore
SplineSet
1207.12 303 m 1,0,1
 1101.12 293 1101.12 293 946.125 293 c 2,2,-1
 501.125 293 l 2,3,4
 441.125 293 441.125 293 398.625 257 c 128,-1,5
 356.125 221 356.125 221 356.125 158 c 0,6,7
 356.125 35 356.125 35 495.625 35 c 0,8,9
 700.729 35 700.729 35 1056.62 225 c 0,10,11
 1182.12 292 1182.12 292 1207.12 303 c 1,0,1
978.125 588 m 1,12,13
 979.125 578 979.125 578 988.125 433 c 1,14,-1
 990.125 405 l 1,15,-1
 963.125 413 l 2,16,17
 941.125 419 941.125 419 907.625 419 c 128,-1,18
 874.125 419 874.125 419 862.125 414 c 2,19,-1
 831.125 400 l 1,20,-1
 834.125 434 l 1,21,22
 862.125 724 862.125 724 827.125 803 c 1,23,24
 759.125 948 759.125 948 564.125 948 c 0,25,26
 442.125 948 442.125 948 364.125 871 c 0,27,28
 323.125 830 323.125 830 304.125 778 c 1,29,30
 358.125 834 358.125 834 453.625 834 c 128,-1,31
 549.125 834 549.125 834 609.625 770 c 128,-1,32
 670.125 706 670.125 706 670.125 607 c 128,-1,33
 670.125 508 670.125 508 611.625 450.5 c 128,-1,34
 553.125 393 553.125 393 472.125 382 c 1,35,-1
 962.125 382 l 2,36,37
 1205.12 382 1205.12 382 1304.12 423 c 1,38,39
 1461.12 486 1461.12 486 1461.12 676 c 0,40,41
 1461.12 797 1461.12 797 1393.62 871.5 c 128,-1,42
 1326.12 946 1326.12 946 1214.62 944.5 c 128,-1,43
 1103.12 943 1103.12 943 1040.62 875 c 128,-1,44
 978.125 807 978.125 807 978.125 703 c 2,45,-1
 978.125 588 l 1,12,13
425.125 379 m 1,46,47
 305.125 379 305.125 379 236.125 464 c 128,-1,48
 167.125 549 167.125 549 170.125 671 c 1,49,50
 170.125 841 170.125 841 288.625 939 c 128,-1,51
 407.125 1037 407.125 1037 578.125 1037 c 0,52,53
 801.125 1037 801.125 1037 912.125 902 c 1,54,55
 1032.12 1038 1032.12 1038 1204.12 1038 c 128,-1,56
 1376.12 1038 1376.12 1038 1496.12 938 c 128,-1,57
 1616.12 838 1616.12 838 1616.12 682 c 0,58,59
 1616.12 438 1616.12 438 1417.12 350 c 1,60,61
 1500.12 343 1500.12 343 1552.12 289 c 128,-1,62
 1604.12 235 1604.12 235 1604.12 133.5 c 128,-1,63
 1604.12 32 1604.12 32 1532.12 -28 c 128,-1,64
 1460.12 -88 1460.12 -88 1352.12 -88 c 128,-1,65
 1244.12 -88 1244.12 -88 1162.62 -35 c 128,-1,66
 1081.12 18 1081.12 18 1046.12 108 c 1,67,68
 845.125 15 845.125 15 774.125 -12 c 1,69,70
 603.125 -74 603.125 -74 476.125 -74 c 128,-1,71
 349.125 -74 349.125 -74 277.125 -17.5 c 128,-1,72
 205.125 39 205.125 39 205.125 148.5 c 128,-1,73
 205.125 258 205.125 258 285.125 321 c 0,74,75
 345.125 368 345.125 368 425.125 379 c 1,46,47
1167.12 164 m 1,76,77
 1205.12 38 1205.12 38 1347.62 38 c 128,-1,78
 1490.12 38 1490.12 38 1490.12 149 c 0,79,80
 1490.12 205 1490.12 205 1466.12 229 c 128,-1,81
 1442.12 253 1442.12 253 1389.12 253 c 0,82,83
 1301.12 253 1301.12 253 1167.12 164 c 1,76,77
422.125 745 m 1,84,85
 320.125 738 320.125 738 320.125 600 c 0,86,87
 320.125 527 320.125 527 345.625 494.5 c 128,-1,88
 371.125 462 371.125 462 424.625 461 c 128,-1,89
 478.125 460 478.125 460 503.625 493.5 c 128,-1,90
 529.125 527 529.125 527 529.125 602.5 c 128,-1,91
 529.125 678 529.125 678 503.125 711.5 c 128,-1,92
 477.125 745 477.125 745 422.125 745 c 1,84,85
EndSplineSet
EndChar

StartChar: ch4
Encoding: 67 3357 70
Width: 3101
VWidth: 2064
GlyphClass: 2
Flags: W
LayerCount: 2
Fore
SplineSet
1781 635 m 1,0,-1
 1761 351 l 1,1,2
 1761 205 1761 205 1814.5 137 c 128,-1,3
 1868 69 1868 69 1982.5 69 c 128,-1,4
 2097 69 2097 69 2155.5 161 c 128,-1,5
 2214 253 2214 253 2214 385 c 2,6,-1
 2214 659 l 1,7,8
 2213 715 2213 715 2210 827 c 128,-1,9
 2207 939 2207 939 2206.5 973.5 c 128,-1,10
 2206 1008 2206 1008 2205 1022 c 1,11,-1
 2232 1014 l 2,12,13
 2260 1006 2260 1006 2288 1006 c 128,-1,14
 2316 1006 2316 1006 2334 1014 c 2,15,-1
 2364 1026 l 1,16,-1
 2362 993 l 1,17,18
 2350 837 2350 837 2350 659 c 2,19,-1
 2350 385 l 2,20,21
 2350 243 2350 243 2418.5 154.5 c 128,-1,22
 2487 66 2487 66 2629 66 c 128,-1,23
 2771 66 2771 66 2853 188 c 128,-1,24
 2935 310 2935 310 2935 473 c 0,25,26
 2935 826 2935 826 2709 924 c 1,27,-1
 2681 936 l 1,28,-1
 2703 957 l 2,29,30
 2723 976 2723 976 2732 1019 c 2,31,-1
 2737 1043 l 1,32,-1
 2760 1033 l 1,33,34
 2920 966 2920 966 3007 815 c 128,-1,35
 3094 664 3094 664 3094 466 c 128,-1,36
 3094 268 3094 268 2963.5 122 c 128,-1,37
 2833 -24 2833 -24 2620.5 -24 c 128,-1,38
 2408 -24 2408 -24 2280 115 c 1,39,40
 2171 -24 2171 -24 1965 -24 c 0,41,42
 1844 -24 1844 -24 1751 46 c 0,43,44
 1610 153 1610 153 1610 370 c 2,45,-1
 1610 371 l 1,46,-1
 1628 646 l 1,47,48
 1628 788 1628 788 1548 866 c 128,-1,49
 1468 944 1468 944 1353.5 944 c 128,-1,50
 1239 944 1239 944 1170 915 c 1,51,52
 1413 783 1413 783 1413 474 c 0,53,54
 1413 281 1413 281 1325 142 c 0,55,56
 1219 -24 1219 -24 1032.5 -24 c 128,-1,57
 846 -24 846 -24 746 123.5 c 128,-1,58
 646 271 646 271 646 444.5 c 128,-1,59
 646 618 646 618 714 736 c 128,-1,60
 782 854 782 854 897 917 c 1,61,62
 830 947 830 947 735 947 c 0,63,64
 550 947 550 947 437 814.5 c 128,-1,65
 324 682 324 682 324 493 c 0,66,67
 324 211 324 211 524 57 c 2,68,-1
 550 37 l 1,69,-1
 521 23 l 2,70,71
 492 9 492 9 482 -23 c 2,72,-1
 474 -49 l 1,73,-1
 452 -34 l 1,74,75
 170 153 170 153 170 486 c 0,76,77
 170 734 170 734 323.5 885 c 128,-1,78
 477 1036 477 1036 726 1036 c 0,79,80
 901 1036 901 1036 1038 974 c 1,81,82
 1160 1037 1160 1037 1320 1037 c 0,83,84
 1547 1037 1547 1037 1664 936 c 128,-1,85
 1781 835 1781 835 1781 636 c 2,86,-1
 1781 635 l 1,0,-1
1258 465 m 0,87,88
 1258 769 1258 769 1095 839 c 0,89,90
 1059 854 1059 854 1028.5 854 c 128,-1,91
 998 854 998 854 955 829 c 0,92,93
 801 740 801 740 801 462 c 0,94,95
 801 307 801 307 849 201 c 0,96,97
 910 65 910 65 1033.5 65 c 128,-1,98
 1157 65 1157 65 1214 205 c 0,99,100
 1258 312 1258 312 1258 465 c 0,87,88
EndSplineSet
EndChar

StartChar: nj
Encoding: 68 3358 71
Width: 2679
VWidth: 2064
GlyphClass: 2
Flags: W
LayerCount: 2
Fore
SplineSet
1149.89 896 m 1,0,1
 1297.89 1035 1297.89 1035 1550.89 1035 c 0,2,3
 1704.89 1035 1704.89 1035 1815.89 984 c 1,4,5
 1935.89 1042 1935.89 1042 2121.89 1042 c 128,-1,6
 2307.89 1042 2307.89 1042 2452.89 944 c 0,7,8
 2558.89 872 2558.89 872 2616.39 755.5 c 128,-1,9
 2673.89 639 2673.89 639 2673.89 496 c 0,10,11
 2673.89 162 2673.89 162 2391.89 -30 c 1,12,-1
 2367.89 -46 l 1,13,-1
 2360.89 -17 l 2,14,15
 2352.89 20 2352.89 20 2327.89 25 c 2,16,-1
 2284.89 34 l 1,17,18
 2311.89 54 2311.89 54 2319.89 61 c 0,19,20
 2519.89 215 2519.89 215 2519.89 497 c 0,21,22
 2519.89 646 2519.89 646 2447.89 766 c 128,-1,23
 2375.89 886 2375.89 886 2239.89 932 c 1,24,25
 2177.89 950 2177.89 950 2092.89 950 c 128,-1,26
 2007.89 950 2007.89 950 1944.89 922 c 1,27,28
 2034.89 871 2034.89 871 2110.89 765 c 128,-1,29
 2186.89 659 2186.89 659 2189.89 481 c 0,30,31
 2192.89 250 2192.89 250 2083.39 111 c 128,-1,32
 1973.89 -28 1973.89 -28 1796.89 -24 c 128,-1,33
 1619.89 -20 1619.89 -20 1521.39 121.5 c 128,-1,34
 1422.89 263 1422.89 263 1422.89 458 c 1,35,36
 1420.89 602 1420.89 602 1483.89 727.5 c 128,-1,37
 1546.89 853 1546.89 853 1672.89 923 c 1,38,39
 1618.89 947 1618.89 947 1548.39 947 c 128,-1,40
 1477.89 947 1477.89 947 1415.89 926 c 0,41,42
 1215.89 860 1215.89 860 1209.89 705 c 1,43,44
 1210.89 666 1210.89 666 1210.89 626 c 2,45,-1
 1210.89 344 l 1,46,-1
 1221.89 -10 l 1,47,-1
 1195.89 -3 l 2,48,49
 1132.89 14 1132.89 14 1090.89 -3 c 1,50,-1
 1060.89 -14 l 1,51,-1
 1063.89 18 l 1,52,53
 1074.89 147 1074.89 147 1074.89 344 c 2,54,-1
 1074.89 626 l 2,55,56
 1074.89 746 1074.89 746 1056.89 783 c 1,57,58
 993.887 868 993.887 868 894.887 905 c 128,-1,59
 795.887 942 795.887 942 709.887 940 c 0,60,61
 452.887 934 452.887 934 356.887 722 c 0,62,63
 317.887 635 317.887 635 310.887 536 c 1,64,65
 401.887 661 401.887 661 582.887 662 c 0,66,67
 707.887 663 707.887 663 803.887 563.5 c 128,-1,68
 899.887 464 899.887 464 893.887 322 c 1,69,70
 893.887 176 893.887 176 807.887 80.5 c 128,-1,71
 721.887 -15 721.887 -15 584.887 -21 c 0,72,73
 310.887 -34 310.887 -34 204.887 251 c 0,74,75
 161.887 367 161.887 367 171.887 513 c 1,76,77
 181.887 746 181.887 746 329.387 890.5 c 128,-1,78
 476.887 1035 476.887 1035 717.887 1031.5 c 128,-1,79
 958.887 1028 958.887 1028 1149.89 896 c 1,0,1
1813.89 65 m 1,80,81
 2032.89 71 2032.89 71 2034.89 471 c 0,82,83
 2035.89 608 2035.89 608 1988.89 713 c 0,84,85
 1928.89 847 1928.89 847 1809.89 858 c 1,86,87
 1718.89 845 1718.89 845 1659.89 768 c 0,88,89
 1577.89 661 1577.89 661 1577.89 458 c 1,90,91
 1576.89 304 1576.89 304 1622.89 200 c 0,92,93
 1682.89 65 1682.89 65 1813.89 65 c 1,80,81
709.887 157 m 0,94,95
 752.887 228 752.887 228 751.387 329 c 128,-1,96
 749.887 430 749.887 430 698.387 500.5 c 128,-1,97
 646.887 571 646.887 571 547.887 568.5 c 128,-1,98
 448.887 566 448.887 566 392.887 496 c 128,-1,99
 336.887 426 336.887 426 338.887 321 c 128,-1,100
 340.887 216 340.887 216 398.387 142 c 128,-1,101
 455.887 68 455.887 68 556.387 68 c 128,-1,102
 656.887 68 656.887 68 709.887 157 c 0,94,95
EndSplineSet
EndChar

StartChar: t1
Encoding: 69 3359 72
Width: 914
VWidth: 2064
GlyphClass: 2
Flags: W
LayerCount: 2
Fore
SplineSet
917 273 m 1,0,1
 917 127 917 127 805 47.5 c 128,-1,2
 693 -32 693 -32 546 -32 c 0,3,4
 301 -32 301 -32 183 177 c 1,5,-1
 170 199 l 1,6,-1
 194 206 l 2,7,8
 235 219 235 219 259 251 c 2,9,-1
 282 281 l 1,10,-1
 294 245 l 1,11,12
 358 58 358 58 544 58 c 0,13,14
 638 58 638 58 703.5 108.5 c 128,-1,15
 769 159 769 159 769 248 c 0,16,17
 769 361 769 361 659 409 c 0,18,19
 615 428 615 428 434 458 c 1,20,21
 195 499 195 499 195 740 c 0,22,23
 195 878 195 878 295 957 c 128,-1,24
 395 1036 395 1036 524.5 1037 c 128,-1,25
 654 1038 654 1038 751 985.5 c 128,-1,26
 848 933 848 933 894 835 c 1,27,-1
 906 811 l 1,28,-1
 879 807 l 2,29,30
 846 802 846 802 825 770 c 2,31,-1
 802 734 l 1,32,-1
 789 775 l 2,33,34
 737 941 737 941 549 945 c 0,35,36
 455 948 455 948 395.5 898.5 c 128,-1,37
 336 849 336 849 335.5 775.5 c 128,-1,38
 335 702 335 702 359 667.5 c 128,-1,39
 383 633 383 633 427 619 c 128,-1,40
 471 605 471 605 530.5 597 c 128,-1,41
 590 589 590 589 644 581 c 0,42,43
 771 563 771 563 846.5 477 c 128,-1,44
 922 391 922 391 917 273 c 1,0,1
EndSplineSet
EndChar

StartChar: t2
Encoding: 70 3360 73
Width: 1231
VWidth: 2064
GlyphClass: 2
Flags: W
LayerCount: 2
Fore
SplineSet
1224.06 500 m 128,-1,1
 1221.06 255 1221.06 255 1063.06 118.5 c 0,2,3
 905.056 -18 905.056 -18 695.056 -18 c 128,-1,4
 485.056 -18 485.056 -18 326.056 123 c 0,5,6
 167.056 264 167.056 264 170.056 510 c 0,7,8
 173.056 756 173.056 756 328.056 894 c 0,9,10
 483.056 1032 483.056 1032 700.556 1033 c 0,11,12
 918.056 1034 918.056 1034 1072.56 889.5 c 0,13,0
 1227.06 745 1227.06 745 1224.06 500 c 128,-1,1
417.056 817 m 0,14,15
 323.056 688 323.056 688 323.056 502 c 0,16,17
 323.056 316 323.056 316 420.556 194 c 0,18,19
 518.056 72 518.056 72 694.556 71.5 c 0,20,21
 871.056 71 871.056 71 971.056 189 c 0,22,23
 1071.06 307 1071.06 307 1070.06 503 c 0,24,25
 1070.06 699 1070.06 699 975.056 821.5 c 0,26,27
 880.056 944 880.056 944 695.556 945 c 0,28,29
 511.056 946 511.056 946 417.056 817 c 0,14,15
EndSplineSet
EndChar

StartChar: t3
Encoding: 71 3361 74
Width: 2278
VWidth: 2064
GlyphClass: 2
Flags: W
LayerCount: 2
Fore
SplineSet
1937 1033 m 0,0,1
 2097 966 2097 966 2184 815 c 128,-1,2
 2271 664 2271 664 2271 465.5 c 128,-1,3
 2271 267 2271 267 2140.5 121.5 c 128,-1,4
 2010 -24 2010 -24 1795.5 -24 c 128,-1,5
 1581 -24 1581 -24 1453 115 c 1,6,7
 1343 -24 1343 -24 1142 -24 c 0,8,9
 978 -24 978 -24 881.5 88 c 128,-1,10
 785 200 785 200 787 365 c 0,11,12
 787 424 787 424 802.5 537 c 128,-1,13
 818 650 818 650 818 706 c 0,14,15
 818 816 818 816 760 882 c 128,-1,16
 702 948 702 948 596 945 c 1,17,18
 450 933 450 933 378 791 c 0,19,20
 321 680 321 680 323 528.5 c 128,-1,21
 325 377 325 377 383.5 252.5 c 128,-1,22
 442 128 442 128 560 94 c 2,23,-1
 595 84 l 1,24,-1
 568 60 l 2,25,26
 554 47 554 47 544 -6 c 1,27,-1
 539 -28 l 1,28,-1
 518 -21 l 2,29,30
 348 36 348 36 259 187.5 c 128,-1,31
 170 339 170 339 170 498.5 c 128,-1,32
 170 658 170 658 211.5 775 c 128,-1,33
 253 892 253 892 357 963 c 128,-1,34
 461 1034 461 1034 612.5 1035 c 128,-1,35
 764 1036 764 1036 866 943.5 c 128,-1,36
 968 851 968 851 968 688 c 0,37,38
 968 632 968 632 953 523 c 128,-1,39
 938 414 938 414 938 360 c 1,40,41
 933 247 933 247 983 161.5 c 128,-1,42
 1033 76 1033 76 1144 69 c 0,43,44
 1217 64 1217 64 1279 106 c 128,-1,45
 1341 148 1341 148 1366 214 c 128,-1,46
 1391 280 1391 280 1391 385 c 2,47,-1
 1391 659 l 1,48,-1
 1382 1022 l 1,49,-1
 1409 1014 l 2,50,51
 1437 1006 1437 1006 1465 1006 c 128,-1,52
 1493 1006 1493 1006 1511 1014 c 2,53,-1
 1541 1026 l 1,54,-1
 1539 993 l 1,55,56
 1527 838 1527 838 1527 659 c 2,57,-1
 1527 385 l 2,58,59
 1527 281 1527 281 1551 225 c 1,60,61
 1615 66 1615 66 1797 66 c 0,62,63
 1948 66 1948 66 2030 188 c 128,-1,64
 2112 310 2112 310 2112 473 c 0,65,66
 2112 826 2112 826 1886 924 c 1,67,-1
 1858 936 l 1,68,-1
 1880 957 l 2,69,70
 1899 975 1899 975 1909 1019 c 2,71,-1
 1915 1043 l 1,72,73
 1926 1038 1926 1038 1937 1033 c 0,0,1
EndSplineSet
EndChar

StartChar: t4
Encoding: 72 3362 75
Width: 2306
VWidth: 2064
GlyphClass: 2
Flags: W
LayerCount: 2
Fore
SplineSet
2297 492 m 1,0,1
 2288 263 2288 263 2148.5 117 c 128,-1,2
 2009 -29 2009 -29 1768 -23 c 1,3,4
 1572 -13 1572 -13 1453 115 c 1,5,6
 1343 -24 1343 -24 1142 -24 c 0,7,8
 978 -24 978 -24 881.5 88 c 128,-1,9
 785 200 785 200 787 365 c 0,10,11
 787 424 787 424 802.5 537 c 128,-1,12
 818 650 818 650 818 706 c 0,13,14
 818 816 818 816 760 882 c 128,-1,15
 702 948 702 948 596 945 c 1,16,17
 450 933 450 933 378 791 c 0,18,19
 321 680 321 680 323 528.5 c 128,-1,20
 325 377 325 377 383.5 252.5 c 128,-1,21
 442 128 442 128 560 94 c 2,22,-1
 595 84 l 1,23,-1
 568 60 l 2,24,25
 554 47 554 47 544 -6 c 1,26,-1
 539 -28 l 1,27,-1
 518 -21 l 2,28,29
 348 36 348 36 259 187.5 c 128,-1,30
 170 339 170 339 170 498.5 c 128,-1,31
 170 658 170 658 211.5 775 c 128,-1,32
 253 892 253 892 357 963 c 128,-1,33
 461 1034 461 1034 612.5 1035 c 128,-1,34
 764 1036 764 1036 866 943.5 c 128,-1,35
 968 851 968 851 968 688 c 0,36,37
 968 632 968 632 953 523 c 128,-1,38
 938 414 938 414 938 360 c 1,39,40
 933 247 933 247 983 161.5 c 128,-1,41
 1033 76 1033 76 1144 69 c 0,42,43
 1217 64 1217 64 1279 106 c 128,-1,44
 1341 148 1341 148 1366 214 c 128,-1,45
 1391 280 1391 280 1391 385 c 2,46,-1
 1391 659 l 1,47,-1
 1382 1022 l 1,48,-1
 1409 1014 l 2,49,50
 1437 1006 1437 1006 1465 1006 c 128,-1,51
 1493 1006 1493 1006 1511 1014 c 2,52,-1
 1541 1026 l 1,53,-1
 1539 993 l 1,54,55
 1527 838 1527 838 1527 659 c 2,56,-1
 1527 385 l 2,57,58
 1527 232 1527 232 1590 154.5 c 128,-1,59
 1653 77 1653 77 1782 67 c 1,60,61
 2029 59 2029 59 2116 286 c 0,62,63
 2155 386 2155 386 2160 502 c 1,64,65
 2080 394 2080 394 1935 391 c 128,-1,66
 1790 388 1790 388 1697.5 483 c 128,-1,67
 1605 578 1605 578 1611 720 c 1,68,69
 1612 863 1612 863 1702.5 949.5 c 128,-1,70
 1793 1036 1793 1036 1924 1036 c 0,71,72
 2176 1036 2176 1036 2267 765 c 0,73,74
 2307 649 2307 649 2297 492 c 1,0,1
1926 484 m 1,75,76
 2116 485 2116 485 2127 704 c 0,77,78
 2132 815 2132 815 2079.5 882 c 128,-1,79
 2027 949 2027 949 1935.5 946 c 128,-1,80
 1844 943 1844 943 1798 873 c 128,-1,81
 1752 803 1752 803 1752 705 c 0,82,83
 1753 504 1753 504 1926 484 c 1,75,76
EndSplineSet
EndChar

StartChar: nh
Encoding: 73 3363 76
Width: 2571
VWidth: 2064
GlyphClass: 2
Flags: W
LayerCount: 2
Fore
SplineSet
2565.38 525 m 0,0,1
 2565.38 365 2565.38 365 2500.38 238 c 1,2,3
 2403.38 64 2403.38 64 2222.38 -27 c 2,4,-1
 2196.38 -40 l 1,5,6
 2194.38 -26 2194.38 -26 2191.38 4 c 0,7,8
 2188.38 34 2188.38 34 2168.38 54 c 2,9,-1
 2148.38 74 l 1,10,-1
 2173.38 86 l 1,11,12
 2408.38 202 2408.38 202 2408.38 519 c 1,13,14
 2414.38 690 2414.38 690 2334.88 816 c 0,15,16
 2255.38 942 2255.38 942 2097.38 946 c 1,17,18
 1908.38 946 1908.38 946 1840.38 786 c 0,19,20
 1818.38 734 1818.38 734 1818.38 631 c 2,21,-1
 1818.38 344 l 1,22,-1
 1829.38 -11 l 1,23,-1
 1802.38 -3 l 2,24,25
 1774.38 5 1774.38 5 1746.38 5 c 0,26,27
 1718.38 5 1718.38 5 1698.38 -3 c 2,28,-1
 1668.38 -14 l 1,29,-1
 1671.38 18 l 1,30,31
 1682.38 147 1682.38 147 1682.38 337 c 2,32,-1
 1682.38 626 l 2,33,34
 1682.38 764 1682.38 764 1624.38 854 c 0,35,36
 1566.38 944 1566.38 944 1442.38 944 c 0,37,38
 1367.38 944 1367.38 944 1307.38 901 c 0,39,40
 1247.38 858 1247.38 858 1222.38 793 c 0,41,42
 1197.38 728 1197.38 728 1197.38 631 c 2,43,-1
 1197.38 344 l 1,44,-1
 1209.38 -11 l 1,45,-1
 1182.38 -3 l 2,46,47
 1154.38 5 1154.38 5 1125.88 5 c 0,48,49
 1097.38 5 1097.38 5 1079.38 -3 c 2,50,-1
 1049.38 -15 l 1,51,-1
 1051.38 18 l 1,52,53
 1061.38 147 1061.38 147 1061.38 337 c 2,54,-1
 1061.38 626 l 2,55,56
 1061.38 738 1061.38 738 1034.38 784 c 0,57,58
 942.375 939 942.375 939 740.375 939 c 0,59,60
 538.375 939 538.375 939 425.375 825 c 0,61,62
 312.375 711 312.375 711 305.375 530 c 1,63,64
 336.375 575 336.375 575 402.375 618.5 c 0,65,66
 468.375 662 468.375 662 567.375 662 c 0,67,68
 704.375 662 704.375 662 799.375 567.5 c 128,-1,69
 894.375 473 894.375 473 894.375 326 c 0,70,71
 894.375 179 894.375 179 805.375 78.5 c 0,72,73
 716.375 -22 716.375 -22 559.375 -22 c 0,74,75
 359.375 -22 359.375 -22 254.375 139 c 0,76,77
 164.375 277 164.375 277 170.375 485 c 1,78,79
 170.375 735 170.375 735 321.875 884 c 0,80,81
 473.375 1033 473.375 1033 717.875 1033 c 0,82,83
 962.375 1033 962.375 1033 1127.38 898 c 1,84,85
 1233.38 1036 1233.38 1036 1435.88 1036 c 0,86,87
 1638.38 1036 1638.38 1036 1753.38 900 c 1,88,89
 1876.38 1036 1876.38 1036 2091.88 1036 c 0,90,91
 2307.38 1036 2307.38 1036 2436.38 892.5 c 0,92,93
 2565.38 749 2565.38 749 2565.38 525 c 0,0,1
750.375 321.5 m 128,-1,95
 750.375 430 750.375 430 698.375 500 c 0,96,97
 646.375 570 646.375 570 548.375 570 c 0,98,99
 450.375 570 450.375 570 394.875 500 c 0,100,101
 339.375 430 339.375 430 339.375 327.5 c 0,102,103
 339.375 225 339.375 225 394.375 146.5 c 0,104,105
 449.375 68 449.375 68 547.375 68 c 0,106,107
 645.375 68 645.375 68 697.875 140.5 c 0,108,94
 750.375 213 750.375 213 750.375 321.5 c 128,-1,95
EndSplineSet
EndChar

StartChar: th1
Encoding: 74 3364 77
Width: 1904
VWidth: 2064
GlyphClass: 2
Flags: W
LayerCount: 2
Fore
SplineSet
1897 486 m 0,0,1
 1897 158 1897 158 1615 -34 c 1,2,-1
 1592 -50 l 1,3,-1
 1585 -22 l 2,4,5
 1576 15 1576 15 1550 22 c 2,6,-1
 1511 32 l 1,7,-1
 1543 57 l 1,8,9
 1743 211 1743 211 1743 493 c 0,10,11
 1743 683 1743 683 1633.5 814 c 128,-1,12
 1524 945 1524 945 1340 945 c 0,13,14
 1235 945 1235 945 1168 916 c 1,15,16
 1413 784 1413 784 1413 474 c 0,17,18
 1413 281 1413 281 1325 142 c 0,19,20
 1220 -24 1220 -24 1032 -24 c 128,-1,21
 844 -24 844 -24 736 138 c 0,22,23
 643 277 643 277 646 470 c 0,24,25
 651 783 651 783 897 918 c 1,26,27
 831 947 831 947 735 947 c 0,28,29
 550 947 550 947 437 814.5 c 128,-1,30
 324 682 324 682 324 493 c 0,31,32
 324 211 324 211 524 57 c 1,33,-1
 551 36 l 1,34,-1
 520 23 l 2,35,36
 491 10 491 10 482 -22 c 2,37,-1
 475 -49 l 1,38,-1
 452 -34 l 1,39,40
 170 153 170 153 170 486 c 0,41,42
 170 734 170 734 323.5 885 c 128,-1,43
 477 1036 477 1036 726 1036 c 0,44,45
 902 1036 902 1036 1038 974 c 1,46,47
 1158 1035 1158 1035 1338 1035 c 0,48,49
 1589 1035 1589 1035 1743 886 c 128,-1,50
 1897 737 1897 737 1897 486 c 0,0,1
1258 465 m 0,51,52
 1261 767 1261 767 1095 839 c 0,53,54
 1059 854 1059 854 1029.5 854 c 0,55,56
 1000 854 1000 854 955 829 c 0,57,58
 801 744 801 744 801 462 c 0,59,60
 801 308 801 308 848 201 c 1,61,62
 910 65 910 65 1034 65 c 128,-1,63
 1158 65 1158 65 1214 205 c 0,64,65
 1257 311 1257 311 1258 465 c 0,51,52
EndSplineSet
EndChar

StartChar: th2
Encoding: 75 3365 78
Width: 1574
VWidth: 2064
GlyphClass: 2
Flags: W
LayerCount: 2
Fore
SplineSet
1536 478 m 1,0,-1
 1525 102 l 1,1,2
 1525 54 1525 54 1528 18 c 2,3,-1
 1530 -4 l 1,4,-1
 170 -4 l 1,5,-1
 171 17 l 1,6,7
 185 444 185 444 171 986 c 1,8,-1
 170 1016 l 1,9,-1
 198 1006 l 2,10,11
 222 997 222 997 252 997 c 0,12,13
 282 997 282 997 300 1005 c 2,14,-1
 332 1020 l 1,15,-1
 328 985 l 2,16,17
 307 794 307 794 309 551 c 0,18,19
 311 308 311 308 316 85 c 1,20,-1
 787 85 l 1,21,22
 798 336 798 336 798 661 c 0,23,24
 798 828 798 828 899 932.5 c 0,25,26
 1000 1037 1000 1037 1168 1037 c 0,27,28
 1385 1037 1385 1037 1473 860 c 1,29,30
 1536 731 1536 731 1536 478 c 1,0,-1
1386 85 m 1,31,-1
 1386 661 l 2,32,33
 1386 787 1386 787 1334 867.5 c 0,34,35
 1282 948 1282 948 1167.5 948 c 0,36,37
 1053 948 1053 948 993.5 866 c 0,38,39
 934 784 934 784 934 661 c 2,40,-1
 934 85 l 1,41,-1
 1386 85 l 1,31,-1
EndSplineSet
EndChar

StartChar: th3
Encoding: 76 3366 79
Width: 1259
VWidth: 2064
GlyphClass: 2
Flags: W
LayerCount: 2
Fore
SplineSet
184 329 m 1,0,-1
 181 494 l 1,1,2
 181 719 181 719 263 836 c 1,3,4
 399 1035 399 1035 725 1035 c 0,5,6
 900 1035 900 1035 1033 960 c 0,7,8
 1199 866 1199 866 1199 698 c 0,9,10
 1199 554 1199 554 1085 496 c 1,11,12
 1135 467 1135 467 1179 406 c 0,13,14
 1223 345 1223 345 1223 260 c 0,15,16
 1223 105 1223 105 1098 29 c 0,17,18
 999 -31 999 -31 841.5 -31 c 0,19,20
 684 -31 684 -31 542 11 c 2,21,-1
 515 19 l 1,22,-1
 532 42 l 1,23,24
 558 79 558 79 558 120 c 2,25,-1
 558 161 l 1,26,-1
 590 136 l 2,27,28
 625 108 625 108 699.5 85.5 c 0,29,30
 774 63 774 63 824 63 c 0,31,32
 931 63 931 63 1001 108 c 0,33,34
 1070 153 1070 153 1070 247 c 0,35,36
 1070 341 1070 341 1007 385.5 c 0,37,38
 944 430 944 430 860 430 c 0,39,40
 776 430 776 430 730 415 c 2,41,-1
 691 402 l 1,42,-1
 705 441 l 2,43,44
 724 493 724 493 705 545 c 2,45,-1
 693 577 l 1,46,-1
 727 572 l 1,47,48
 793 561 793 561 861 561 c 0,49,50
 929 561 929 561 987 596 c 0,51,52
 1044 631 1044 631 1044 704 c 0,53,54
 1044 823 1044 823 949 884.5 c 0,55,56
 854 946 854 946 724 946 c 0,57,58
 540 946 540 946 430.5 837.5 c 128,-1,59
 321 729 321 729 320 545 c 0,60,61
 319 284 319 284 330 17 c 1,62,-1
 331 -11 l 1,63,-1
 304 -3 l 2,64,65
 276 5 276 5 248 5 c 0,66,67
 220 5 220 5 200 -3 c 2,68,-1
 170 -14 l 1,69,-1
 173 18 l 1,70,71
 184 147 184 147 184 329 c 1,0,-1
EndSplineSet
EndChar

StartChar: th4
Encoding: 77 3367 80
Width: 1812
VWidth: 2064
GlyphClass: 2
Flags: W
LayerCount: 2
Fore
SplineSet
1805 484 m 0,0,1
 1805 262 1805 262 1672 117 c 0,2,3
 1539 -28 1539 -28 1328 -28 c 0,4,5
 1117 -28 1117 -28 986 107 c 1,6,7
 863 -29 863 -29 646 -29 c 0,8,9
 429 -29 429 -29 299.5 116 c 0,10,11
 170 261 170 261 170 487 c 0,12,13
 170 668 170 668 260 816 c 0,14,15
 350 964 350 964 512 1032 c 1,16,-1
 537 1043 l 1,17,-1
 540 1016 l 2,18,19
 545 972 545 972 565 951 c 2,20,-1
 585 931 l 1,21,-1
 559 919 l 2,22,23
 328 813 328 813 328 488 c 0,24,25
 328 315 328 315 407 189.5 c 0,26,27
 486 64 486 64 643 61 c 1,28,29
 837 61 837 61 900 218 c 0,30,31
 919 263 919 263 919 379 c 2,32,-1
 919 662 l 1,33,-1
 908 1015 l 1,34,-1
 934 1008 l 2,35,36
 963 1001 963 1001 991 1001 c 0,37,38
 1019 1001 1019 1001 1038 1008 c 2,39,-1
 1067 1018 l 1,40,-1
 1065 987 l 1,41,42
 1055 858 1055 858 1055 679 c 2,43,-1
 1055 379 l 2,44,45
 1055 263 1055 263 1074 219 c 0,46,47
 1142 61 1142 61 1313 63 c 0,48,49
 1484 65 1484 65 1568 193.5 c 0,50,51
 1652 322 1652 322 1646 496 c 1,52,53
 1646 631 1646 631 1585 754 c 0,54,55
 1524 877 1524 877 1412 918 c 2,56,-1
 1380 930 l 1,57,-1
 1406 952 l 2,58,59
 1430 973 1430 973 1435 1016 c 2,60,-1
 1438 1043 l 1,61,-1
 1463 1032 l 2,62,63
 1623 962 1623 962 1714 811.5 c 0,64,65
 1805 661 1805 661 1805 484 c 0,0,1
EndSplineSet
EndChar

StartChar: n1
Encoding: 78 3368 81
Width: 1812
VWidth: 2064
GlyphClass: 2
Flags: W
LayerCount: 2
Fore
SplineSet
1805 518 m 0,0,1
 1805 337 1805 337 1715 189.5 c 0,2,3
 1625 42 1625 42 1463 -27 c 1,4,-1
 1438 -38 l 1,5,-1
 1435 -11 l 2,6,7
 1430 34 1430 34 1410 54 c 2,8,-1
 1390 74 l 1,9,-1
 1416 86 l 2,10,11
 1647 193 1647 193 1647 518 c 0,12,13
 1647 691 1647 691 1568 816 c 0,14,15
 1489 941 1489 941 1332 945 c 1,16,17
 1138 945 1138 945 1075 787 c 0,18,19
 1056 742 1056 742 1056 626 c 2,20,-1
 1056 344 l 1,21,-1
 1067 -11 l 1,22,-1
 1040 -3 l 2,23,24
 1012 5 1012 5 984 5 c 0,25,26
 956 5 956 5 938 -3 c 2,27,-1
 908 -15 l 1,28,-1
 910 18 l 1,29,30
 920 147 920 147 920 327 c 2,31,-1
 920 626 l 2,32,33
 920 743 920 743 901 786 c 0,34,35
 833 945 833 945 653 944 c 1,36,37
 491 939 491 939 407 811 c 0,38,39
 323 683 323 683 329 510 c 1,40,41
 329 374 329 374 390 251.5 c 0,42,43
 451 129 451 129 563 87 c 2,44,-1
 595 75 l 1,45,-1
 569 53 l 2,46,47
 544 32 544 32 540 -11 c 2,48,-1
 537 -38 l 1,49,-1
 512 -27 l 2,50,51
 352 43 352 43 261 193.5 c 0,52,53
 170 344 170 344 170 522 c 0,54,55
 170 743 170 743 303 888 c 0,56,57
 436 1033 436 1033 647 1033 c 0,58,59
 858 1033 858 1033 989 899 c 1,60,61
 1112 1034 1112 1034 1329 1034 c 0,62,63
 1546 1034 1546 1034 1675.5 890 c 0,64,65
 1805 746 1805 746 1805 518 c 0,0,1
EndSplineSet
EndChar

StartChar: p1
Encoding: 80 3370 82
Width: 1563
VWidth: 2064
GlyphClass: 2
Flags: W
LayerCount: 2
Fore
SplineSet
1548.01 374 m 2,0,1
 1548.01 271 1548.01 271 1557.01 -4 c 1,2,-1
 582.014 -4 l 1,3,-1
 582.014 76 l 1,4,-1
 591.014 82 l 1,5,6
 721.014 163 721.014 163 721.014 339 c 0,7,8
 721.014 444 721.014 444 668.514 507.5 c 128,-1,9
 616.014 571 616.014 571 516.014 571 c 1,10,11
 420.014 564 420.014 564 369.514 497 c 128,-1,12
 319.014 430 319.014 430 318.014 330.5 c 128,-1,13
 317.014 231 317.014 231 358.014 163 c 128,-1,14
 399.014 95 399.014 95 460.014 73 c 2,15,-1
 496.014 60 l 1,16,-1
 465.014 38 l 2,17,18
 448.014 26 448.014 26 451.014 0 c 2,19,-1
 455.014 -30 l 1,20,-1
 426.014 -22 l 2,21,22
 316.014 8 316.014 8 242.514 101 c 128,-1,23
 169.014 194 169.014 194 170.014 335.5 c 128,-1,24
 171.014 477 171.014 477 271.514 569 c 128,-1,25
 372.014 661 372.014 661 523.014 661 c 128,-1,26
 674.014 661 674.014 661 772.514 572.5 c 128,-1,27
 871.014 484 871.014 484 871.514 330.5 c 128,-1,28
 872.014 177 872.014 177 767.014 85 c 1,29,-1
 1412.01 85 l 1,30,-1
 1412.01 661 l 2,31,32
 1412.01 877 1412.01 877 1399.01 985 c 2,33,-1
 1395.01 1019 l 1,34,-1
 1427.01 1005 l 2,35,36
 1447.01 997 1447.01 997 1476.51 997 c 128,-1,37
 1506.01 997 1506.01 997 1529.01 1006 c 2,38,-1
 1557.01 1016 l 1,39,-1
 1556.01 987 l 1,40,41
 1548.01 674 1548.01 674 1548.01 661 c 2,42,-1
 1548.01 374 l 2,0,1
EndSplineSet
EndChar

StartChar: p2
Encoding: 81 3371 83
Width: 1958
VWidth: 2064
GlyphClass: 2
Flags: W
LayerCount: 2
Fore
SplineSet
1952.01 -4 m 1,0,-1
 582.014 -4 l 1,1,-1
 582.014 76 l 1,2,-1
 591.014 82 l 1,3,4
 721.014 163 721.014 163 721.014 339 c 0,5,6
 721.014 444 721.014 444 668.014 507 c 0,7,8
 615.014 570 615.014 570 516.014 571 c 1,9,10
 420.014 564 420.014 564 369.514 497 c 0,11,12
 319.014 430 319.014 430 318.014 331 c 0,13,14
 317.014 232 317.014 232 358.014 163.5 c 0,15,16
 399.014 95 399.014 95 460.014 73 c 2,17,-1
 496.014 60 l 1,18,-1
 465.014 38 l 2,19,20
 448.014 26 448.014 26 451.014 0 c 2,21,-1
 455.014 -30 l 1,22,-1
 426.014 -22 l 2,23,24
 316.014 8 316.014 8 242.014 101 c 0,25,26
 169.014 194 169.014 194 170.014 335.5 c 0,27,28
 171.014 477 171.014 477 272.014 569 c 0,29,30
 373.014 661 373.014 661 523.514 661 c 128,-1,31
 674.014 661 674.014 661 772.514 572 c 0,32,33
 871.014 483 871.014 483 871.014 330.5 c 0,34,35
 871.014 178 871.014 178 767.014 85 c 1,36,-1
 1204.01 85 l 1,37,38
 1219.01 278 1219.01 278 1219.01 383 c 2,39,-1
 1219.01 661 l 1,40,41
 1215.01 791 1215.01 791 1288.01 894 c 1,42,43
 1387.01 1037 1387.01 1037 1580.51 1037 c 0,44,45
 1774.01 1037 1774.01 1037 1868.01 914 c 0,46,47
 1943.01 815 1943.01 815 1943.01 661 c 2,48,-1
 1943.01 383 l 2,49,50
 1943.01 327 1943.01 327 1951.01 17 c 1,51,-1
 1952.01 -4 l 1,0,-1
1807.01 661 m 2,52,53
 1807.01 810 1807.01 810 1745.01 880 c 0,54,55
 1683.01 950 1683.01 950 1589.01 948 c 0,56,57
 1459.01 946 1459.01 946 1399.01 845 c 0,58,59
 1355.01 770 1355.01 770 1355.01 661 c 2,60,-1
 1356.01 85 l 1,61,-1
 1807.01 85 l 1,62,-1
 1807.01 661 l 2,52,53
EndSplineSet
EndChar

StartChar: p3
Encoding: 82 3372 84
Width: 2451
VWidth: 2064
GlyphClass: 2
Flags: W
LayerCount: 2
Fore
SplineSet
2435.38 371 m 2,0,1
 2435.38 270 2435.38 270 2444.38 -4 c 1,2,-1
 1543.38 -4 l 1,3,-1
 1563.38 27 l 2,4,5
 1570.38 38 1570.38 38 1554.38 75 c 1,6,-1
 1572.38 83 l 1,7,8
 1802.38 190 1802.38 190 1802.38 518 c 1,9,10
 1808.38 689 1808.38 689 1731.38 814.5 c 128,-1,11
 1654.38 940 1654.38 940 1488.38 945 c 1,12,13
 1302.38 945 1302.38 945 1234.38 782 c 0,14,15
 1212.38 730 1212.38 730 1212.38 643 c 2,16,-1
 1212.38 344 l 1,17,-1
 1223.38 -11 l 1,18,-1
 1196.38 -3 l 2,19,20
 1168.38 5 1168.38 5 1140.38 5 c 128,-1,21
 1112.38 5 1112.38 5 1092.38 -3 c 2,22,-1
 1062.38 -14 l 1,23,-1
 1065.38 18 l 1,24,25
 1076.38 148 1076.38 148 1076.38 352 c 2,26,-1
 1076.38 634 l 2,27,28
 1076.38 735 1076.38 735 1053.38 781 c 1,29,30
 955.375 950 955.375 950 721.375 942 c 1,31,32
 537.375 938 537.375 938 425.375 823 c 128,-1,33
 313.375 708 313.375 708 305.375 530 c 1,34,35
 336.375 575 336.375 575 402.375 618.5 c 128,-1,36
 468.375 662 468.375 662 567.375 662 c 0,37,38
 704.375 662 704.375 662 799.375 567.5 c 128,-1,39
 894.375 473 894.375 473 894.375 326 c 128,-1,40
 894.375 179 894.375 179 805.375 78.5 c 128,-1,41
 716.375 -22 716.375 -22 559.375 -22 c 0,42,43
 359.375 -22 359.375 -22 254.375 139 c 0,44,45
 164.375 277 164.375 277 170.375 485 c 1,46,47
 170.375 734 170.375 734 321.875 883 c 128,-1,48
 473.375 1032 473.375 1032 731.375 1032 c 128,-1,49
 989.375 1032 989.375 1032 1144.38 893 c 1,50,51
 1269.38 1034 1269.38 1034 1485.88 1034 c 128,-1,52
 1702.38 1034 1702.38 1034 1833.88 889 c 128,-1,53
 1965.38 744 1965.38 744 1961.38 518 c 1,54,55
 1961.38 248 1961.38 248 1772.38 85 c 1,56,-1
 2298.38 85 l 1,57,-1
 2298.38 661 l 2,58,59
 2298.38 908 2298.38 908 2282.38 1020 c 1,60,-1
 2314.38 1005 l 2,61,62
 2332.38 997 2332.38 997 2362.38 997 c 128,-1,63
 2392.38 997 2392.38 997 2416.38 1006 c 2,64,-1
 2444.38 1016 l 1,65,66
 2439.38 795 2439.38 795 2435.38 661 c 1,67,-1
 2435.38 371 l 2,0,1
547.375 68 m 128,-1,69
 646.375 68 646.375 68 698.375 140.5 c 128,-1,70
 750.375 213 750.375 213 750.375 321.5 c 128,-1,71
 750.375 430 750.375 430 698.375 500 c 128,-1,72
 646.375 570 646.375 570 548.875 570 c 128,-1,73
 451.375 570 451.375 570 395.875 499.5 c 128,-1,74
 340.375 429 340.375 429 340.375 327 c 128,-1,75
 340.375 225 340.375 225 394.375 146.5 c 128,-1,68
 448.375 68 448.375 68 547.375 68 c 128,-1,69
EndSplineSet
EndChar

StartChar: p4
Encoding: 83 3373 85
Width: 1263
VWidth: 2064
GlyphClass: 2
Flags: W
LayerCount: 2
Fore
SplineSet
691 499 m 1,0,1
 696.605 428 696.605 428 767.5 428 c 0,2,3
 803 428 803 428 877.5 450 c 128,-1,4
 952 472 952 472 1001 469 c 1,5,6
 1096 469 1096 469 1161 409 c 128,-1,7
 1226 349 1226 349 1226 254 c 0,8,9
 1226 -31 1226 -31 819 -31 c 0,10,11
 684 -31 684 -31 541 11 c 2,12,-1
 514 19 l 1,13,-1
 531 42 l 1,14,15
 559 82 559 82 559 120 c 2,16,-1
 559 165 l 1,17,-1
 592 135 l 2,18,19
 626 105 626 105 701 84 c 128,-1,20
 776 63 776 63 855 63 c 128,-1,21
 934 63 934 63 1004 103.5 c 128,-1,22
 1074 144 1074 144 1074 232 c 0,23,24
 1074 290 1074 290 1039 328.5 c 128,-1,25
 1004 367 1004 367 961.5 367 c 128,-1,26
 919 367 919 367 852.5 343.5 c 128,-1,27
 786 320 786 320 714.5 321.5 c 128,-1,28
 643 323 643 323 594 371 c 128,-1,29
 545 419 545 419 545 506.5 c 128,-1,30
 545 594 545 594 606 639 c 128,-1,31
 667 684 667 684 731 684 c 128,-1,32
 795 684 795 684 860 668.5 c 128,-1,33
 925 653 925 653 959.5 651 c 128,-1,34
 994 649 994 649 1021.5 673 c 128,-1,35
 1049 697 1049 697 1049 742 c 0,36,37
 1049 841 1049 841 950.5 894.5 c 128,-1,38
 852 948 852 948 736 948 c 0,39,40
 544 948 544 948 432 842.5 c 128,-1,41
 320 737 320 737 320 528 c 2,42,-1
 320 289 l 1,43,44
 323 161 323 161 329 17 c 2,45,-1
 330 -11 l 1,46,-1
 303 -3 l 2,47,48
 275 5 275 5 249.5 5 c 128,-1,49
 224 5 224 5 198 -3 c 2,50,-1
 170 -12 l 1,51,-1
 172 18 l 1,52,53
 185 183 185 183 183.5 347.5 c 128,-1,54
 182 512 182 512 182 532 c 0,55,56
 182 722 182 722 262 836 c 1,57,58
 399 1035 399 1035 722 1035 c 1,59,60
 895 1039 895 1039 1033 968 c 0,61,62
 1207 879 1207 879 1201 715 c 1,63,64
 1200 632 1200 632 1143.5 592 c 128,-1,65
 1087 552 1087 552 1008 556 c 1,66,67
 968 556 968 556 898 569.5 c 128,-1,68
 828 583 828 583 785 583 c 0,69,70
 695 583 695 583 691 499 c 1,0,1
EndSplineSet
EndChar

StartChar: m1
Encoding: 84 3374 86
Width: 1233
VWidth: 2064
GlyphClass: 2
Flags: W
LayerCount: 2
Fore
SplineSet
1211 -4 m 1,0,-1
 170 -4 l 1,1,-1
 171 17 l 2,2,3
 176 113 176 113 180 543 c 0,4,5
 182 775 182 775 329.5 906 c 128,-1,6
 477 1037 477 1037 708 1037 c 128,-1,7
 939 1037 939 1037 1079 899 c 0,8,9
 1155 824 1155 824 1175 743 c 128,-1,10
 1195 662 1195 662 1197 559.5 c 128,-1,11
 1199 457 1199 457 1199.5 359 c 128,-1,12
 1200 261 1200 261 1210 17 c 1,13,-1
 1211 -4 l 1,0,-1
1064 85 m 1,14,15
 1066 307 1066 307 1063.5 511 c 128,-1,16
 1061 715 1061 715 1006 793.5 c 128,-1,17
 951 872 951 872 869.5 910 c 128,-1,18
 788 948 788 948 701 948 c 0,19,20
 548 948 548 948 443 860 c 0,21,22
 377 805 377 805 341 726 c 1,23,24
 433 814 433 814 570 814 c 128,-1,25
 707 814 707 814 793 727 c 128,-1,26
 879 640 879 640 878 502 c 1,27,28
 871 248 871 248 646 85 c 1,29,-1
 1064 85 l 1,14,15
470 85 m 1,30,31
 585 159 585 159 655.5 275 c 128,-1,32
 726 391 726 391 726 503 c 0,33,34
 726 722 726 722 559 725 c 1,35,36
 473 728 473 728 399.5 657.5 c 128,-1,37
 326 587 326 587 313 505 c 1,38,39
 310 297 310 297 313 85 c 1,40,-1
 470 85 l 1,30,31
EndSplineSet
EndChar

StartChar: y1
Encoding: 85 3375 87
Width: 1854
VWidth: 2064
GlyphClass: 2
Flags: W
LayerCount: 2
Fore
SplineSet
1847.04 528 m 0,0,1
 1847.04 283 1847.04 283 1710.04 129 c 128,-1,2
 1573.04 -25 1573.04 -25 1323.04 -32 c 1,3,4
 1174.04 -32 1174.04 -32 1043.04 23 c 1,5,6
 930.045 -30 930.045 -30 765.045 -30 c 1,7,8
 501.045 -34 501.045 -34 335.545 125 c 128,-1,9
 170.045 284 170.045 284 170.045 546 c 1,10,11
 168.045 739 168.045 739 255.045 876 c 0,12,13
 359.045 1038 359.045 1038 546.045 1038 c 0,14,15
 642.045 1038 642.045 1038 700.045 994 c 128,-1,16
 758.045 950 758.045 950 783.045 893 c 1,17,18
 869.045 1039 869.045 1039 1052.04 1038 c 128,-1,19
 1235.04 1037 1235.04 1037 1331.54 899 c 128,-1,20
 1428.04 761 1428.04 761 1426.54 587 c 128,-1,21
 1425.04 413 1425.04 413 1350.04 282 c 128,-1,22
 1275.04 151 1275.04 151 1154.04 76 c 1,23,24
 1220.04 48 1220.04 48 1323.04 58 c 0,25,26
 1508.04 75 1508.04 75 1600.54 206 c 128,-1,27
 1693.04 337 1693.04 337 1693.04 533 c 0,28,29
 1693.04 650 1693.04 650 1641.04 760.5 c 128,-1,30
 1589.04 871 1589.04 871 1502.04 932 c 2,31,-1
 1478.04 949 l 1,32,33
 1490.04 957 1490.04 957 1513.04 971 c 0,34,35
 1535.04 985 1535.04 985 1537.04 1004.5 c 0,36,37
 1540.73 1040.42 1540.73 1040.42 1543.04 1052 c 1,38,-1
 1570.04 1033 l 1,39,40
 1846.04 845 1846.04 845 1847.04 528 c 0,0,1
1040.04 127 m 1,41,42
 1154.04 191 1154.04 191 1213.04 320 c 0,43,44
 1271.04 449 1271.04 449 1271.04 596 c 128,-1,45
 1271.04 743 1271.04 743 1217.54 847 c 128,-1,46
 1164.04 951 1164.04 951 1062.04 949 c 128,-1,47
 960.045 947 960.045 947 905.045 874 c 0,48,49
 816.045 758 816.045 758 816.045 560 c 0,50,51
 816.045 250 816.045 250 1040.04 127 c 1,41,42
920.045 80 m 1,52,53
 657.045 223 657.045 223 665.045 559 c 0,54,55
 667.045 601 667.045 601 675.545 669.5 c 128,-1,56
 684.045 738 684.045 738 684.045 755.5 c 2,57,-1
 684.045 779 l 1,58,59
 685.045 868 685.045 868 652.045 908 c 128,-1,60
 619.045 948 619.045 948 549.045 949 c 1,61,62
 433.045 944 433.045 944 372.045 811 c 1,63,64
 320.045 702 320.045 702 322.045 567 c 1,65,-1
 322.045 566 l 1,66,67
 314.045 347 314.045 347 430.045 203.5 c 128,-1,68
 546.045 60 546.045 60 763.045 59 c 0,69,70
 848.045 59 848.045 59 920.045 80 c 1,52,53
EndSplineSet
EndChar

StartChar: r3
Encoding: 86 3376 88
Width: 1301
VWidth: 2064
GlyphClass: 2
Flags: W
LayerCount: 2
Fore
SplineSet
1268 670 m 0,0,1
 1294 579 1294 579 1294 419 c 128,-1,2
 1294 259 1294 259 1195.5 118.5 c 128,-1,3
 1097 -22 1097 -22 926 -22 c 128,-1,4
 755 -22 755 -22 659 90 c 128,-1,5
 563 202 563 202 563 362.5 c 128,-1,6
 563 523 563 523 659 631 c 128,-1,7
 755 739 755 739 921 739 c 0,8,9
 1038 739 1038 739 1109 686 c 1,10,11
 1075 794 1075 794 979.5 867.5 c 128,-1,12
 884 941 884 941 736 938 c 0,13,14
 542 934 542 934 433 799 c 128,-1,15
 324 664 324 664 324 465 c 0,16,17
 324 214 324 214 475 71 c 1,18,-1
 494 52 l 1,19,-1
 471 39 l 2,20,21
 441 22 441 22 438 -11 c 2,22,-1
 434 -49 l 1,23,-1
 405 -24 l 1,24,25
 170 175 170 175 170 479 c 0,26,27
 170 719 170 719 323.5 875 c 128,-1,28
 477 1031 477 1031 717 1031 c 1,29,30
 918 1035 918 1035 1066 944.5 c 128,-1,31
 1214 854 1214 854 1268 670 c 0,0,1
927 67 m 1,32,33
 1032 74 1032 74 1079 164 c 128,-1,34
 1126 254 1126 254 1126 383 c 0,35,36
 1126 644 1126 644 926 641 c 1,37,38
 825 638 825 638 775 559 c 128,-1,39
 725 480 725 480 722.5 360 c 128,-1,40
 720 240 720 240 769.5 154 c 128,-1,41
 819 68 819 68 927 67 c 1,32,33
EndSplineSet
EndChar

StartChar: rh
Encoding: 87 3377 89
Width: 1224
VWidth: 2064
GlyphClass: 2
Flags: W
LayerCount: 2
Fore
SplineSet
170.038 505 m 0,0,1
 173.038 756 173.038 756 328.038 894 c 0,2,3
 483.038 1032 483.038 1032 701.038 1033 c 0,4,5
 919.038 1034 919.038 1034 1073.54 889.5 c 0,6,7
 1228.04 745 1228.04 745 1225.54 525.5 c 0,8,9
 1223.04 306 1223.04 306 1119.04 167 c 0,10,11
 1015.04 28 1015.04 28 871.038 -23 c 2,12,-1
 843.038 -33 l 1,13,-1
 844.038 -3 l 2,14,15
 845.038 20 845.038 20 827.038 42 c 2,16,-1
 809.038 64 l 1,17,-1
 835.038 74 l 1,18,19
 945.038 115 945.038 115 1008.04 231.5 c 0,20,21
 1071.04 348 1071.04 348 1072.04 524 c 0,22,23
 1072.04 700 1072.04 700 976.538 822 c 0,24,25
 881.038 944 881.038 944 696.538 945 c 0,26,27
 512.038 946 512.038 946 412.038 808 c 1,28,29
 323.038 687 323.038 687 324.038 520 c 0,30,31
 325.038 353 325.038 353 388.038 235 c 0,32,33
 451.038 117 451.038 117 566.038 74 c 1,34,-1
 591.038 65 l 1,35,-1
 575.038 43 l 2,36,37
 560.038 23 560.038 23 557.038 -6 c 2,38,-1
 554.038 -33 l 1,39,-1
 529.038 -22 l 1,40,41
 375.038 43 375.038 43 271.538 181.5 c 0,42,43
 168.038 320 168.038 320 170.038 505 c 0,0,1
EndSplineSet
EndChar

StartChar: l3
Encoding: 88 3378 90
Width: 1450
VWidth: 2064
GlyphClass: 2
Flags: W
LayerCount: 2
Fore
SplineSet
1412 -4 m 1,0,-1
 170 -4 l 1,1,-1
 172 18 l 2,2,3
 180 106 180 106 178 281 c 128,-1,4
 176 456 176 456 177 488 c 0,5,6
 183 827 183 827 244 907 c 0,7,8
 344 1037 344 1037 545.5 1037 c 128,-1,9
 747 1037 747 1037 846 907 c 0,10,11
 904 831 904 831 907 673.5 c 0,12,13
 910 516 910 516 911 363 c 1,14,-1
 319 363 l 1,15,-1
 325 85 l 1,16,-1
 1268 85 l 1,17,18
 1268 148 1268 148 1271 455 c 128,-1,19
 1274 762 1274 762 1256 985 c 1,20,-1
 1253 1018 l 1,21,-1
 1284 1006 l 2,22,23
 1302 998 1302 998 1330.5 998 c 128,-1,24
 1359 998 1359 998 1386 1006 c 2,25,-1
 1413 1014 l 1,26,-1
 1412 987 l 1,27,28
 1401 530 1401 530 1412 -4 c 1,0,-1
315 613 m 1,29,-1
 319 452 l 1,30,-1
 771 452 l 1,31,-1
 771 578 l 2,32,33
 771 756 771 756 743 825 c 0,34,35
 696 937 696 937 552.5 937 c 128,-1,36
 409 937 409 937 356 840 c 0,37,38
 315 767 315 767 315 613 c 1,29,-1
EndSplineSet
EndChar

StartChar: lh
Encoding: 89 3379 91
Width: 1264
VWidth: 2064
GlyphClass: 2
Flags: W
LayerCount: 2
Fore
SplineSet
298 601 m 1,0,1
 371 715 371 715 521 715 c 0,2,3
 634 715 634 715 713.5 635 c 128,-1,4
 793 555 793 555 793 425.5 c 128,-1,5
 793 296 793 296 714.5 218 c 128,-1,6
 636 140 636 140 487.5 140 c 128,-1,7
 339 140 339 140 254.5 256.5 c 128,-1,8
 170 373 170 373 170 534 c 0,9,10
 170 779 170 779 329 909 c 128,-1,11
 488 1039 488 1039 735 1039 c 0,12,13
 905 1039 905 1039 1043 964 c 1,14,15
 1214 869 1214 869 1214 699 c 0,16,17
 1214 556 1214 556 1104 507 c 1,18,19
 1153 478 1153 478 1196.5 419.5 c 128,-1,20
 1240 361 1240 361 1240 275 c 0,21,22
 1240 108 1240 108 1096 35 c 0,23,24
 1019 -4 1019 -4 787 -4 c 2,25,-1
 525 -4 l 2,26,27
 372 -4 372 -4 372 -68 c 0,28,29
 372 -116 372 -116 422 -131 c 0,30,31
 452 -139 452 -139 534 -139 c 2,32,-1
 809 -139 l 2,33,34
 1044 -139 1044 -139 1217 -122 c 2,35,-1
 1257 -118 l 1,36,-1
 1236 -152 l 2,37,38
 1227 -167 1227 -167 1227 -192.5 c 128,-1,39
 1227 -218 1227 -218 1236 -234 c 2,40,-1
 1254 -265 l 1,41,-1
 1219 -264 l 1,42,43
 848 -257 848 -257 474 -257 c 0,44,45
 364 -257 364 -257 309 -233 c 0,46,47
 219 -194 219 -194 219 -89 c 0,48,49
 219 87 219 87 485 87 c 2,50,-1
 727 87 l 2,51,52
 892 87 892 87 960 110.5 c 128,-1,53
 1028 134 1028 134 1057 173.5 c 128,-1,54
 1086 213 1086 213 1086 282 c 128,-1,55
 1086 351 1086 351 1044.5 398 c 128,-1,56
 1003 445 1003 445 929 445 c 0,57,58
 911 445 911 445 895 441 c 2,59,-1
 856 430 l 1,60,-1
 871 467 l 2,61,62
 878 483 878 483 878 507.5 c 128,-1,63
 878 532 878 532 872 550 c 2,64,-1
 862 581 l 1,65,-1
 894 576 l 2,66,67
 913 573 913 573 930 573 c 0,68,69
 987 573 987 573 1023 608.5 c 128,-1,70
 1059 644 1059 644 1059 702 c 0,71,72
 1059 820 1059 820 954 884 c 128,-1,73
 849 948 849 948 717 948 c 0,74,75
 528 948 528 948 411 835 c 0,76,77
 316 743 316 743 298 601 c 1,0,1
498 228 m 128,-1,79
 571 228 571 228 606.5 275.5 c 128,-1,80
 642 323 642 323 642 427 c 128,-1,81
 642 531 642 531 606.5 578.5 c 128,-1,82
 571 626 571 626 497.5 626 c 128,-1,83
 424 626 424 626 389 569 c 128,-1,84
 354 512 354 512 354 427.5 c 128,-1,85
 354 343 354 343 389.5 285.5 c 128,-1,78
 425 228 425 228 498 228 c 128,-1,79
EndSplineSet
EndChar

StartChar: zh
Encoding: 90 3380 92
Width: 1389
VWidth: 2064
GlyphClass: 2
Flags: W
LayerCount: 2
Fore
SplineSet
480 923 m 2,0,1
 328 834 328 834 320 649 c 1,2,3
 325 583 325 583 349 523 c 1,4,5
 384 464 384 464 436 420 c 1,6,7
 500 384 500 384 572 363 c 1,8,9
 740 327 740 327 878 335 c 1,10,11
 829 359 829 359 796 383 c 128,-1,12
 763 407 763 407 715 456 c 1,13,14
 663 523 663 523 647.5 573 c 128,-1,15
 632 623 632 623 628 685 c 1,16,17
 632 773 632 773 656 821.5 c 128,-1,18
 680 870 680 870 725 920 c 1,19,20
 784 969 784 969 854 1001 c 1,21,22
 924 1023 924 1023 996 1027 c 1,23,24
 1121 1019 1121 1019 1230 958 c 1,25,26
 1356 866 1356 866 1377 743.5 c 128,-1,27
 1398 621 1398 621 1353 513 c 1,28,29
 1307.25 415.373 1307.25 415.373 1220.5 355.5 c 0,30,31
 1185 331 1185 331 1144 310 c 1,32,33
 1183 285 1183 285 1200 255.5 c 128,-1,34
 1217 226 1217 226 1220 178 c 1,35,36
 1212 129 1212 129 1184 89 c 1,37,38
 1137 45 1137 45 1085 24 c 0,39,40
 867 -65 867 -65 591 15 c 1,41,42
 509 59 509 59 451 130 c 1,43,-1
 428 157 l 1,44,-1
 463 163 l 2,45,46
 505 170 505 170 534 201 c 2,47,-1
 558 226 l 1,48,-1
 568 193 l 2,49,50
 576 167 576 167 592 143 c 1,51,52
 671 66 671 66 824 62 c 1,53,54
 973 66 973 66 1047 141 c 1,55,56
 1060 162 1060 162 1066 187 c 1,57,58
 1065 212 1065 212 1056 234 c 1,59,60
 1042 253 1042 253 1023 264 c 1,61,62
 908 242 908 242 774 243 c 1,63,-1
 773 243 l 1,64,65
 627 251 627 251 537.5 268.5 c 128,-1,66
 448 286 448 286 357 328 c 1,67,68
 274 387 274 387 216 471 c 1,69,70
 181 548 181 548 170 634 c 1,71,72
 179 749 179 749 234 851 c 1,73,74
 315 947 315 947 425 1003 c 2,75,-1
 449 1015 l 1,76,-1
 454 989 l 2,77,78
 458 967 458 967 478 958 c 2,79,-1
 514 943 l 1,80,-1
 480 923 l 2,0,1
1128 419 m 1,81,82
 1258 553 1258 553 1228 752 c 1,83,84
 1220 787 1220 787 1205 820 c 1,85,86
 1173 872 1173 872 1124 908 c 1,87,88
 1068 930 1068 930 1007 934 c 1,89,90
 956 929 956 929 909 910 c 1,91,92
 868 885 868 885 835 849 c 1,93,94
 813 817 813 817 798 781 c 1,95,96
 788 742 788 742 786 703 c 1,97,98
 799 593 799 593 853 497 c 1,99,100
 935 411 935 411 1045 371 c 1,101,102
 1090 390 1090 390 1128 419 c 1,81,82
EndSplineSet
EndChar

StartChar: v1
Encoding: 91 3381 93
Width: 1615
VWidth: 2064
GlyphClass: 2
Flags: W
LayerCount: 2
Fore
SplineSet
1608 -4 m 1,0,-1
 808 -4 l 1,1,-1
 813 20 l 2,2,3
 817 40 817 40 811 75 c 1,4,-1
 823 82 l 2,5,6
 1063 221 1063 221 1063 512 c 0,7,8
 1063 698 1063 698 964.5 819.5 c 128,-1,9
 866 941 866 941 690 940 c 128,-1,10
 514 939 514 939 415 818 c 128,-1,11
 316 697 316 697 316 522 c 128,-1,12
 316 347 316 347 396 229 c 128,-1,13
 476 111 476 111 572 80 c 1,14,-1
 605 70 l 1,15,-1
 580 46 l 2,16,17
 559 27 559 27 554 -10 c 2,18,-1
 550 -36 l 1,19,-1
 526 -25 l 1,20,21
 170 135 170 135 170 520 c 0,22,23
 170 755 170 755 317 892.5 c 128,-1,24
 464 1030 464 1030 696 1030 c 128,-1,25
 928 1030 928 1030 1072.5 891 c 128,-1,26
 1217 752 1217 752 1217 524 c 0,27,28
 1217 247 1217 247 1007 85 c 1,29,-1
 1464 85 l 1,30,-1
 1464 661 l 2,31,32
 1464 829 1464 829 1452 985 c 1,33,-1
 1450 1017 l 1,34,-1
 1479 1006 l 2,35,36
 1498 998 1498 998 1528 998 c 128,-1,37
 1558 998 1558 998 1580 1006 c 2,38,-1
 1608 1015 l 1,39,-1
 1607 986 l 1,40,41
 1598 760 1598 760 1598 508 c 128,-1,42
 1598 256 1598 256 1607 17 c 1,43,-1
 1608 -4 l 1,0,-1
EndSplineSet
EndChar

StartChar: z1
Encoding: 92 3382 94
Width: 1810
VWidth: 2064
GlyphClass: 2
Flags: W
LayerCount: 2
Fore
SplineSet
855.368 337 m 1,0,-1
 840.368 513 l 2,1,2
 837.368 551 837.368 551 833.368 601 c 1,3,-1
 833.368 602 l 2,4,5
 833.368 811 833.368 811 958.368 923.5 c 128,-1,6
 1083.37 1036 1083.37 1036 1312.87 1036 c 128,-1,7
 1542.37 1036 1542.37 1036 1671.87 886.5 c 128,-1,8
 1801.37 737 1801.37 737 1803.37 490 c 1,9,10
 1812.37 278 1812.37 278 1728.37 139 c 1,11,12
 1625.37 -29 1625.37 -29 1417.37 -21 c 1,13,14
 1260.37 -17 1260.37 -17 1169.37 90.5 c 128,-1,15
 1078.37 198 1078.37 198 1078.37 360.5 c 128,-1,16
 1078.37 523 1078.37 523 1173.37 630.5 c 128,-1,17
 1268.37 738 1268.37 738 1422.87 737 c 128,-1,18
 1577.37 736 1577.37 736 1651.37 660 c 1,19,20
 1622.37 757 1622.37 757 1557.37 831 c 0,21,22
 1459.37 944 1459.37 944 1308.87 944 c 128,-1,23
 1158.37 944 1158.37 944 1073.87 856 c 128,-1,24
 989.368 768 989.368 768 991.368 625 c 1,25,-1
 1009.37 347 l 1,26,-1
 1009.37 346 l 2,27,28
 1009.37 184 1009.37 184 902.368 77.5 c 128,-1,29
 795.368 -29 795.368 -29 633.368 -29 c 1,30,31
 415.368 -35 415.368 -35 289.368 115 c 128,-1,32
 163.368 265 163.368 265 170.368 479 c 1,33,34
 170.368 761 170.368 761 366.368 936 c 0,35,36
 448.368 1009 448.368 1009 535.368 1039 c 2,37,-1
 569.368 1051 l 1,38,-1
 562.368 1016 l 2,39,40
 555.368 986 555.368 986 583.368 956 c 1,41,-1
 603.368 936 l 1,42,-1
 577.368 924 l 2,43,44
 448.368 865 448.368 865 386.868 743.5 c 128,-1,45
 325.368 622 325.368 622 325.368 469.5 c 128,-1,46
 325.368 317 325.368 317 397.368 198 c 0,47,48
 479.368 61 479.368 61 623.368 61 c 0,49,50
 737.368 61 737.368 61 796.368 138.5 c 128,-1,51
 855.368 216 855.368 216 855.368 337 c 1,0,-1
1273.37 171 m 0,52,53
 1324.37 73 1324.37 73 1432.87 69.5 c 128,-1,54
 1541.37 66 1541.37 66 1589.87 149 c 128,-1,55
 1638.37 232 1638.37 232 1640.37 353.5 c 128,-1,56
 1642.37 475 1642.37 475 1593.87 558 c 128,-1,57
 1545.37 641 1545.37 641 1441.87 641 c 128,-1,58
 1338.37 641 1338.37 641 1287.87 560.5 c 128,-1,59
 1237.37 480 1237.37 480 1237.37 369 c 1,60,61
 1232.37 248 1232.37 248 1273.37 171 c 0,52,53
EndSplineSet
EndChar

StartChar: sh
Encoding: 93 3383 95
Width: 1815
VWidth: 2064
GlyphClass: 2
Flags: W
LayerCount: 2
Fore
SplineSet
1800.01 374 m 2,0,1
 1800.01 271 1800.01 271 1809.01 -4 c 1,2,-1
 582.014 -4 l 1,3,-1
 582.014 76 l 1,4,-1
 591.014 82 l 1,5,6
 721.014 163 721.014 163 721.014 339 c 0,7,8
 721.014 444 721.014 444 668.514 507.5 c 128,-1,9
 616.014 571 616.014 571 516.014 571 c 1,10,11
 420.014 564 420.014 564 369.514 497 c 128,-1,12
 319.014 430 319.014 430 318.014 330.5 c 128,-1,13
 317.014 231 317.014 231 358.014 163 c 128,-1,14
 399.014 95 399.014 95 460.014 73 c 2,15,-1
 496.014 60 l 1,16,-1
 465.014 38 l 2,17,18
 448.014 26 448.014 26 451.014 0 c 2,19,-1
 455.014 -30 l 1,20,-1
 426.014 -22 l 2,21,22
 316.014 8 316.014 8 242.514 101 c 128,-1,23
 169.014 194 169.014 194 170.014 335.5 c 128,-1,24
 171.014 477 171.014 477 271.514 569 c 128,-1,25
 372.014 661 372.014 661 523.014 661 c 128,-1,26
 674.014 661 674.014 661 772.514 572.5 c 128,-1,27
 871.014 484 871.014 484 871.514 330.5 c 128,-1,28
 872.014 177 872.014 177 767.014 85 c 1,29,-1
 1212.01 85 l 1,30,31
 1222.01 253 1222.01 253 1219.01 461 c 1,32,33
 1168.01 448 1168.01 448 1116.01 448 c 0,34,35
 988.014 448 988.014 448 897.014 528.5 c 128,-1,36
 806.014 609 806.014 609 804.014 739 c 128,-1,37
 802.014 869 802.014 869 886.014 953 c 128,-1,38
 970.014 1037 970.014 1037 1098.01 1036 c 0,39,40
 1355.01 1034 1355.01 1034 1359.01 774 c 1,41,-1
 1359.01 615 l 1,42,43
 1429.01 667 1429.01 667 1513.01 776.5 c 128,-1,44
 1597.01 886 1597.01 886 1662.01 1013 c 1,45,46
 1697.01 997 1697.01 997 1727.51 997 c 128,-1,47
 1758.01 997 1758.01 997 1781.01 1006 c 2,48,-1
 1809.01 1016 l 1,49,-1
 1800.01 661 l 1,50,-1
 1800.01 374 l 2,0,1
1664.01 85 m 1,51,-1
 1663.01 659 l 2,52,53
 1662.01 733 1662.01 733 1660.01 801 c 1,54,55
 1516.01 594 1516.01 594 1357.01 500 c 1,56,-1
 1357.01 327 l 1,57,58
 1358.01 184 1358.01 184 1365.01 85 c 1,59,-1
 1664.01 85 l 1,51,-1
1219.01 562 m 1,60,-1
 1222.01 774 l 2,61,62
 1222.01 843 1222.01 843 1216.51 871.5 c 128,-1,63
 1211.01 900 1211.01 900 1178.01 923 c 128,-1,64
 1145.01 946 1145.01 946 1087.51 943.5 c 128,-1,65
 1030.01 941 1030.01 941 993.014 886.5 c 128,-1,66
 956.014 832 956.014 832 957.514 749.5 c 128,-1,67
 959.014 667 959.014 667 1011.01 609.5 c 128,-1,68
 1063.01 552 1063.01 552 1145.01 552 c 0,69,70
 1189.01 552 1189.01 552 1219.01 562 c 1,60,-1
EndSplineSet
EndChar

StartChar: s1
Encoding: 94 3384 96
Width: 2278
VWidth: 2064
GlyphClass: 2
Flags: W
LayerCount: 2
Fore
SplineSet
1922 1032 m 2,0,1
 2093 975 2093 975 2182 824 c 0,2,3
 2271 673 2271 673 2271 471.5 c 0,4,5
 2271 270 2271 270 2164 123.5 c 0,6,7
 2057 -23 2057 -23 1840 -24 c 0,8,9
 1676 -25 1676 -25 1574 68 c 0,10,11
 1472 161 1472 161 1472 323 c 0,12,13
 1472 379 1472 379 1487 488 c 0,14,15
 1502 597 1502 597 1502 651 c 1,16,17
 1507 764 1507 764 1457 849 c 0,18,19
 1407 934 1407 934 1296 942 c 0,20,21
 1224 947 1224 947 1161.5 905 c 0,22,23
 1099 863 1099 863 1074 797 c 0,24,25
 1049 731 1049 731 1049 626 c 2,26,-1
 1049 352 l 1,27,-1
 1059 -11 l 1,28,-1
 1032 -3 l 2,29,30
 1004 5 1004 5 975.5 5 c 0,31,32
 947 5 947 5 929 -3 c 2,33,-1
 899 -15 l 1,34,-1
 901 18 l 1,35,36
 913 173 913 173 913 352 c 2,37,-1
 913 626 l 2,38,39
 913 730 913 730 890 786 c 0,40,41
 825 945 825 945 643 945 c 0,42,43
 492 945 492 945 410 823 c 0,44,45
 328 701 328 701 328 538 c 0,46,47
 328 185 328 185 554 87 c 1,48,-1
 582 75 l 1,49,-1
 560 54 l 2,50,51
 541 36 541 36 531 -8 c 2,52,-1
 525 -32 l 1,53,-1
 503 -22 l 1,54,55
 343 45 343 45 256.5 195.5 c 0,56,57
 170 346 170 346 170 544.5 c 0,58,59
 170 743 170 743 300 889 c 0,60,61
 430 1035 430 1035 644.5 1035 c 0,62,63
 859 1035 859 1035 988 896 c 1,64,65
 1097 1035 1097 1035 1298 1035 c 0,66,67
 1463 1035 1463 1035 1559.5 923 c 0,68,69
 1656 811 1656 811 1653 646 c 1,70,71
 1653 587 1653 587 1637 474 c 0,72,73
 1621 361 1621 361 1622 305 c 1,74,75
 1622 195 1622 195 1680 129 c 0,76,77
 1738 63 1738 63 1844 65 c 1,78,79
 1989 78 1989 78 2060 220 c 1,80,81
 2120 336 2120 336 2116 486 c 0,82,83
 2112 636 2112 636 2060 749 c 0,84,85
 1997 885 1997 885 1881 917 c 1,86,-1
 1847 926 l 1,87,-1
 1872 951 l 2,88,89
 1885 964 1885 964 1896 1017 c 1,90,-1
 1901 1039 l 1,91,-1
 1922 1032 l 2,0,1
EndSplineSet
EndChar

StartChar: h1
Encoding: 95 3385 97
Width: 2156
VWidth: 2064
GlyphClass: 2
Flags: W
LayerCount: 2
Fore
SplineSet
2150.01 505 m 0,0,1
 2150.01 332 2150.01 332 2053.01 183 c 0,2,3
 1956.01 34 1956.01 34 1795.01 -23 c 2,4,-1
 1767.01 -33 l 1,5,-1
 1768.01 -3 l 2,6,7
 1769.01 22 1769.01 22 1750.01 41 c 1,8,-1
 1730.01 63 l 1,9,-1
 1758.01 74 l 1,10,11
 1877.01 119 1877.01 119 1936.01 240 c 0,12,13
 1995.01 361 1995.01 361 1995.01 505 c 0,14,15
 1995.01 697 1995.01 697 1900.01 820.5 c 0,16,17
 1805.01 944 1805.01 944 1622.51 944 c 128,-1,18
 1440.01 944 1440.01 944 1344.51 820 c 0,19,20
 1249.01 696 1249.01 696 1249.01 505 c 0,21,22
 1249.01 368 1249.01 368 1303.01 251 c 0,23,24
 1357.01 134 1357.01 134 1466.01 83 c 1,25,-1
 1486.01 74 l 1,26,-1
 1476.01 55 l 2,27,28
 1472.01 48 1472.01 48 1472.01 40 c 128,-1,29
 1472.01 32 1472.01 32 1476.01 26 c 2,30,-1
 1492.01 -4 l 1,31,-1
 582.014 -4 l 1,32,-1
 582.014 76 l 1,33,-1
 591.014 82 l 1,34,35
 721.014 163 721.014 163 721.014 339 c 0,36,37
 721.014 444 721.014 444 668.014 507 c 0,38,39
 615.014 570 615.014 570 516.014 571 c 1,40,41
 420.014 564 420.014 564 369.514 497 c 0,42,43
 319.014 430 319.014 430 318.014 331 c 0,44,45
 317.014 232 317.014 232 358.014 163.5 c 0,46,47
 399.014 95 399.014 95 460.014 73 c 2,48,-1
 496.014 60 l 1,49,-1
 465.014 38 l 2,50,51
 448.014 26 448.014 26 451.014 0 c 2,52,-1
 455.014 -30 l 1,53,-1
 426.014 -22 l 2,54,55
 316.014 8 316.014 8 242.014 101 c 0,56,57
 169.014 194 169.014 194 170.014 335.5 c 0,58,59
 171.014 477 171.014 477 272.014 569 c 0,60,61
 373.014 661 373.014 661 523.514 661 c 128,-1,62
 674.014 661 674.014 661 772.514 572 c 0,63,64
 871.014 483 871.014 483 871.014 330.5 c 0,65,66
 871.014 178 871.014 178 767.014 85 c 1,67,-1
 1284.01 85 l 1,68,69
 1094.01 252 1094.01 252 1094.01 493.5 c 0,70,71
 1094.01 735 1094.01 735 1243.51 884 c 128,-1,72
 1393.01 1033 1393.01 1033 1622.51 1033 c 128,-1,73
 1852.01 1033 1852.01 1033 2001.01 884.5 c 128,-1,74
 2150.01 736 2150.01 736 2150.01 505 c 0,0,1
EndSplineSet
EndChar

StartChar: a2
Encoding: 97 3390 98
Width: 998
VWidth: 2064
GlyphClass: 2
Flags: W
LayerCount: 2
Fore
SplineSet
902 848 m 0,0,1
 1004 699 1004 699 998.5 489 c 128,-1,2
 993 279 993 279 872.5 133.5 c 128,-1,3
 752 -12 752 -12 548 -12 c 0,4,5
 243 -12 243 -12 149 249 c 1,6,-1
 137 284 l 1,7,-1
 173 275 l 2,8,9
 179 274 179 274 200 274 c 128,-1,10
 221 274 221 274 250 286 c 1,11,-1
 272 296 l 1,12,-1
 278 272 l 1,13,14
 299 178 299 178 375 122.5 c 128,-1,15
 451 67 451 67 549 67 c 1,16,17
 696 70 696 70 774 205 c 0,18,19
 840 320 840 320 842 494.5 c 128,-1,20
 844 669 844 669 783 791 c 0,21,22
 707 942 707 942 542 942 c 0,23,24
 440 942 440 942 365.5 873 c 128,-1,25
 291 804 291 804 280 702 c 2,26,-1
 276 663 l 1,27,-1
 247 689 l 2,28,29
 219 714 219 714 172 717 c 1,30,-1
 146 718 l 1,31,-1
 154 743 l 1,32,33
 249 1026 249 1026 563 1026 c 1,34,35
 784 1022 784 1022 902 848 c 0,0,1
EndSplineSet
EndChar

StartChar: i1
Encoding: 98 3391 99
Width: 376
VWidth: 2064
GlyphClass: 2
Flags: W
LayerCount: 2
Fore
SplineSet
347 -3 m 2,0,1
 319 8 319 8 300 8 c 128,-1,2
 281 8 281 8 246 -3 c 2,3,-1
 218 -12 l 1,4,-1
 220 17 l 2,5,6
 228 135 228 135 228 421 c 2,7,-1
 228 1104 l 2,8,9
 228 1331 228 1331 105 1334 c 1,10,11
 40 1334 40 1334 6 1287 c 128,-1,12
 -28 1240 -28 1240 -27 1168 c 1,13,-1
 -22 1039 l 1,14,-1
 -50 1050 l 2,15,16
 -73 1059 -73 1059 -102 1059 c 128,-1,17
 -131 1059 -131 1059 -149 1050 c 2,18,-1
 -178 1036 l 1,19,-1
 -178 1068 l 1,20,21
 -177 1206 -177 1206 -135 1287 c 0,22,23
 -60 1429 -60 1429 105 1429 c 0,24,25
 218 1429 218 1429 285.5 1356 c 0,26,27
 353 1283 353 1283 362 1173 c 1,28,29
 367 1136 367 1136 367 1032 c 2,30,-1
 366 422 l 2,31,32
 366 132 366 132 374 17 c 2,33,-1
 376 -14 l 1,34,-1
 347 -3 l 2,0,1
EndSplineSet
EndChar

StartChar: i2
Encoding: 99 3392 100
Width: 325
VWidth: 2064
GlyphClass: 2
Flags: W
LayerCount: 2
Fore
SplineSet
113 1311 m 1,0,1
 132 1263 132 1263 132 1220 c 0,2,3
 132 1137 132 1137 81 1082.5 c 128,-1,4
 30 1028 30 1028 -56 1022 c 1,5,-1
 -57 1022 l 2,6,7
 -138 1022 -138 1022 -188 1075.5 c 128,-1,8
 -238 1129 -238 1129 -238 1223 c 128,-1,9
 -238 1317 -238 1317 -159.5 1372 c 128,-1,10
 -81 1427 -81 1427 34 1427 c 128,-1,11
 149 1427 149 1427 221.5 1362.5 c 128,-1,12
 294 1298 294 1298 311 1174 c 0,13,14
 315 1145 315 1145 315 925 c 2,15,-1
 315 422 l 2,16,17
 315 132 315 132 323 17 c 2,18,-1
 325 -11 l 1,19,-1
 298 -3 l 2,20,21
 273 4 273 4 246 4 c 128,-1,22
 219 4 219 4 193 -3 c 2,23,-1
 166 -11 l 1,24,-1
 168 18 l 2,25,26
 177 136 177 136 177 421 c 2,27,-1
 177 1151 l 2,28,29
 177 1267 177 1267 113 1311 c 1,0,1
-117 1148.5 m 128,-1,31
 -98 1128 -98 1128 -57.5 1127 c 128,-1,32
 -17 1126 -17 1126 11 1157 c 128,-1,33
 39 1188 39 1188 39 1249.5 c 128,-1,34
 39 1311 39 1311 -4 1337 c 1,35,36
 -60 1337 -60 1337 -99 1306 c 128,-1,37
 -138 1275 -138 1275 -137 1222 c 128,-1,30
 -136 1169 -136 1169 -117 1148.5 c 128,-1,31
EndSplineSet
EndChar

StartChar: u1
Encoding: 100 3393 101
Width: 610
VWidth: 2064
GlyphClass: 2
Flags: W
LayerCount: 2
Fore
SplineSet
425 124 m 1,0,1
 504 100 504 100 557 32.5 c 128,-1,2
 610 -35 610 -35 610 -145.5 c 128,-1,3
 610 -256 610 -256 529.5 -335 c 128,-1,4
 449 -414 449 -414 327.5 -414 c 128,-1,5
 206 -414 206 -414 126 -336 c 128,-1,6
 46 -258 46 -258 46 -140 c 128,-1,7
 46 -22 46 -22 117 51 c 128,-1,8
 188 124 188 124 297 135 c 1,9,10
 422 364 422 364 422 564.5 c 128,-1,11
 422 765 422 765 330 862 c 0,12,13
 295 899 295 899 211 930 c 2,14,-1
 179 942 l 1,15,-1
 205 964 l 2,16,17
 234 989 234 989 233 1036 c 1,18,-1
 233 1062 l 1,19,-1
 258 1055 l 1,20,21
 411 1015 411 1015 495.5 884 c 128,-1,22
 580 753 580 753 577 592 c 1,23,24
 577 405 577 405 425 124 c 1,0,1
468 -138.5 m 0,25,26
 468 52 468 52 328.5 52 c 0,27,28
 258 52 258 52 223 0 c 128,-1,29
 188 -52 188 -52 188 -131 c 0,30,31
 188 -323 188 -323 328 -329 c 1,32,33
 399 -329 399 -329 433.5 -283.5 c 128,-1,34
 468 -238 468 -238 468 -138.5 c 0,25,26
EndSplineSet
EndChar

StartChar: u2
Encoding: 101 3394 102
Width: 686
VWidth: 2064
GlyphClass: 2
Flags: W
LayerCount: 2
Fore
SplineSet
686 -110 m 0,0,1
 684 -245 684 -245 589 -329.5 c 128,-1,2
 494 -414 494 -414 375 -414 c 0,3,4
 128 -414 128 -414 43 -247 c 1,5,-1
 32 -225 l 1,6,-1
 56 -219 l 2,7,8
 92 -210 92 -210 134 -174 c 2,9,-1
 158 -153 l 1,10,-1
 166 -183 l 1,11,12
 207 -324 207 -324 365 -324 c 0,13,14
 442 -324 442 -324 497 -263.5 c 128,-1,15
 552 -203 552 -203 552 -142 c 128,-1,16
 552 -81 552 -81 535 -50 c 1,17,18
 531 -99 531 -99 493 -145 c 128,-1,19
 455 -191 455 -191 361 -191 c 0,20,21
 174 -192 174 -192 174 -19 c 0,22,23
 174 71 174 71 229.5 112 c 128,-1,24
 285 153 285 153 360 159 c 1,25,26
 483 393 483 393 483 578.5 c 128,-1,27
 483 764 483 764 390 862 c 1,28,29
 344 912 344 912 275 930 c 1,30,-1
 238 939 l 1,31,-1
 267 964 l 2,32,33
 295 989 295 989 295 1036 c 2,34,-1
 295 1062 l 1,35,-1
 320 1055 l 1,36,37
 472 1015 472 1015 555.5 884 c 128,-1,38
 639 753 639 753 639 579 c 128,-1,39
 639 405 639 405 489 149 c 1,40,41
 576 126 576 126 631.5 56.5 c 128,-1,42
 687 -13 687 -13 686 -110 c 0,0,1
305.5 -79.5 m 128,-1,44
 320 -97 320 -97 356 -97 c 0,45,46
 426 -97 426 -97 428 -26 c 0,47,48
 429 26 429 26 413 47.5 c 128,-1,49
 397 69 397 69 357 69.5 c 128,-1,50
 317 70 317 70 301 44 c 128,-1,51
 285 18 285 18 288 -22 c 128,-1,43
 291 -62 291 -62 305.5 -79.5 c 128,-1,44
EndSplineSet
EndChar

StartChar: r1
Encoding: 102 3395 103
Width: 556
VWidth: 2064
GlyphClass: 2
Flags: W
LayerCount: 2
Fore
SplineSet
249 1012 m 1,0,1
 284 998 284 998 314.5 998 c 128,-1,2
 345 998 345 998 366 1006 c 2,3,-1
 422 1026 l 1,4,-1
 390 976 l 1,5,6
 272 795 272 795 272 608 c 1,7,8
 269 493 269 493 332 341 c 0,9,10
 347 304 347 304 451.5 142.5 c 128,-1,11
 556 -19 556 -19 556 -138.5 c 128,-1,12
 556 -258 556 -258 469.5 -335 c 128,-1,13
 383 -412 383 -412 246 -412 c 1,14,15
 158 -414 158 -414 79 -373.5 c 128,-1,16
 0 -333 0 -333 0 -246.5 c 128,-1,17
 0 -160 0 -160 78 -120 c 0,18,19
 223 -45 223 -45 419 -128 c 1,20,21
 421 -112 421 -112 421 -96 c 0,22,23
 421 3 421 3 341 120 c 0,24,25
 207 314 207 314 201 324 c 1,26,27
 138 457 138 457 138 597 c 0,28,29
 138 812 138 812 249 1012 c 1,0,1
398 -223 m 1,30,31
 331 -164 331 -164 244 -164 c 1,32,33
 196 -162 196 -162 165.5 -182 c 128,-1,34
 135 -202 135 -202 136 -242.5 c 128,-1,35
 137 -283 137 -283 161.5 -301.5 c 128,-1,36
 186 -320 186 -320 243 -320 c 128,-1,37
 300 -320 300 -320 341.5 -292.5 c 128,-1,38
 383 -265 383 -265 398 -223 c 1,30,31
EndSplineSet
EndChar

StartChar: e1
Encoding: 103 3398 104
Width: 1263
VWidth: 2064
GlyphClass: 2
Flags: W
LayerCount: 2
Fore
SplineSet
1263 490 m 0,0,1
 1263 169 1263 169 1009 -23 c 2,2,-1
 984 -42 l 1,3,-1
 977 -11 l 2,4,5
 971 17 971 17 939 44 c 2,6,-1
 917 62 l 1,7,-1
 942 76 l 1,8,9
 1026 125 1026 125 1070 242.5 c 0,10,11
 1114 360 1114 360 1114 477 c 0,12,13
 1114 672 1114 672 1013 805 c 128,-1,14
 912 938 912 938 725 938 c 128,-1,15
 538 938 538 938 429 822 c 128,-1,16
 320 706 320 706 313 531 c 1,17,18
 344 576 344 576 393 607 c 1,19,20
 476 662 476 662 575 662 c 0,21,22
 712 662 712 662 806.5 567.5 c 128,-1,23
 901 473 901 473 901 326 c 128,-1,24
 901 179 901 179 812 78.5 c 0,25,26
 723 -22 723 -22 567 -22 c 1,27,28
 363 -24 363 -24 256 144 c 1,29,30
 168 285 168 285 177 486 c 1,31,32
 181 736 181 736 326.5 884.5 c 0,33,34
 472 1033 472 1033 719 1033 c 128,-1,35
 966 1033 966 1033 1114.5 882.5 c 128,-1,36
 1263 732 1263 732 1263 490 c 0,0,1
758 321 m 128,-1,38
 758 429 758 429 706 499.5 c 0,39,40
 654 570 654 570 556 570 c 128,-1,41
 458 570 458 570 402.5 500 c 0,42,43
 347 430 347 430 347 327.5 c 0,44,45
 347 225 347 225 402 146.5 c 0,46,47
 457 68 457 68 555 68 c 128,-1,48
 653 68 653 68 705.5 140.5 c 0,49,37
 758 213 758 213 758 321 c 128,-1,38
EndSplineSet
EndChar

StartChar: e2
Encoding: 104 3399 105
Width: 1017
VWidth: 2064
GlyphClass: 2
Flags: W
LayerCount: 2
Fore
SplineSet
1017 219 m 0,0,1
 1017 84 1017 84 894 21 c 0,2,3
 804 -26 804 -26 664 -26 c 0,4,5
 439 -26 439 -26 308 123.5 c 128,-1,6
 177 273 177 273 177 501 c 128,-1,7
 177 729 177 729 313 882.5 c 128,-1,8
 449 1036 449 1036 677 1036 c 0,9,10
 811 1036 811 1036 900 985 c 1,11,12
 1016 921 1016 921 1016 790 c 0,13,14
 1016 688 1016 688 947 634 c 128,-1,15
 878 580 878 580 777 580 c 128,-1,16
 676 580 676 580 602.5 634 c 128,-1,17
 529 688 529 688 529 784 c 0,18,19
 529 880 529 880 601 939 c 1,20,21
 468 907 468 907 400.5 791.5 c 128,-1,22
 333 676 333 676 333 503 c 128,-1,23
 333 330 333 330 399 216 c 128,-1,24
 465 102 465 102 597 71 c 1,25,26
 530 123 530 123 530 224 c 128,-1,27
 530 325 530 325 604.5 377.5 c 128,-1,28
 679 430 679 430 780.5 430 c 128,-1,29
 882 430 882 430 949.5 374 c 128,-1,30
 1017 318 1017 318 1017 219 c 0,0,1
774 669 m 0,31,32
 873 669 873 669 873 785 c 0,33,34
 873 844 873 844 847.5 881 c 128,-1,35
 822 918 822 918 773.5 918 c 128,-1,36
 725 918 725 918 698 883.5 c 128,-1,37
 671 849 671 849 671 795 c 128,-1,38
 671 741 671 741 697.5 705 c 128,-1,39
 724 669 724 669 774 669 c 0,31,32
776 340 m 1,40,41
 671 333 671 333 672 218 c 0,42,43
 672 160 672 160 699 125.5 c 128,-1,44
 726 91 726 91 776 91 c 128,-1,45
 826 91 826 91 852 129.5 c 128,-1,46
 878 168 878 168 875 226 c 0,47,48
 870 340 870 340 776 340 c 1,40,41
EndSplineSet
EndChar

StartChar: ai1
Encoding: 105 3400 106
Width: 2475
VWidth: 2064
GlyphClass: 2
Flags: W
LayerCount: 2
Fore
SplineSet
2475 490 m 0,0,1
 2475 169 2475 169 2221 -23 c 2,2,-1
 2196 -42 l 1,3,-1
 2189 -11 l 2,4,5
 2183 17 2183 17 2151 44 c 2,6,-1
 2129 62 l 1,7,-1
 2154 76 l 1,8,9
 2239 125 2239 125 2282.5 242.5 c 0,10,11
 2326 360 2326 360 2326 477 c 0,12,13
 2326 672 2326 672 2226 805 c 0,14,15
 2126 938 2126 938 1937.5 938 c 0,16,17
 1749 938 1749 938 1640.5 822 c 0,18,19
 1532 706 1532 706 1525 530 c 1,20,21
 1556 575 1556 575 1622 618.5 c 0,22,23
 1688 662 1688 662 1787 662 c 0,24,25
 1924 662 1924 662 2019 567.5 c 128,-1,26
 2114 473 2114 473 2114 326 c 0,27,28
 2114 179 2114 179 2025 78.5 c 0,29,30
 1936 -22 1936 -22 1779 -22 c 1,31,32
 1575 -24 1575 -24 1469 144 c 0,33,34
 1380 285 1380 285 1390 486 c 1,35,36
 1394 736 1394 736 1539.5 884.5 c 0,37,38
 1685 1033 1685 1033 1931.5 1033 c 128,-1,39
 2178 1033 2178 1033 2326.5 882.5 c 128,-1,40
 2475 732 2475 732 2475 490 c 0,0,1
1263 490 m 0,41,42
 1263 169 1263 169 1009 -23 c 2,43,-1
 984 -42 l 1,44,-1
 977 -11 l 2,45,46
 971 17 971 17 939 44 c 2,47,-1
 917 62 l 1,48,-1
 942 76 l 1,49,50
 1026 125 1026 125 1070 242.5 c 0,51,52
 1114 360 1114 360 1114 477 c 0,53,54
 1114 672 1114 672 1013 805 c 0,55,56
 912 938 912 938 725 938 c 0,57,58
 538 938 538 938 429 822 c 0,59,60
 320 706 320 706 313 531 c 1,61,62
 344 576 344 576 393 607 c 1,63,64
 476 662 476 662 575 662 c 0,65,66
 712 662 712 662 806.5 567.5 c 128,-1,67
 901 473 901 473 901 326 c 0,68,69
 901 179 901 179 812 78.5 c 0,70,71
 723 -22 723 -22 567 -22 c 1,72,73
 363 -24 363 -24 256 144 c 1,74,75
 168 285 168 285 177 486 c 1,76,77
 181 736 181 736 326.5 884.5 c 0,78,79
 472 1033 472 1033 719 1033 c 128,-1,80
 966 1033 966 1033 1114.5 882.5 c 128,-1,81
 1263 732 1263 732 1263 490 c 0,41,42
1970 321 m 128,-1,83
 1970 429 1970 429 1918 499.5 c 0,84,85
 1866 570 1866 570 1769 570 c 0,86,87
 1672 570 1672 570 1615.5 499 c 0,88,89
 1559 428 1559 428 1559 326.5 c 0,90,91
 1559 225 1559 225 1614 146.5 c 0,92,93
 1669 68 1669 68 1767 68 c 0,94,95
 1865 68 1865 68 1917.5 140.5 c 0,96,82
 1970 213 1970 213 1970 321 c 128,-1,83
758 321 m 128,-1,98
 758 429 758 429 706 499.5 c 0,99,100
 654 570 654 570 556 570 c 0,101,102
 458 570 458 570 402.5 500 c 0,103,104
 347 430 347 430 347 327.5 c 0,105,106
 347 225 347 225 402 146.5 c 0,107,108
 457 68 457 68 555 68 c 0,109,110
 653 68 653 68 705.5 140.5 c 0,111,97
 758 213 758 213 758 321 c 128,-1,98
EndSplineSet
EndChar

StartChar: o1
Encoding: 106 3402 107
Width: 3436
VWidth: 2064
GlyphClass: 2
Flags: W
LayerCount: 2
Fore
SplineSet
3436 517 m 1,0,1
 3443 277 3443 277 3309 129 c 128,-1,2
 3175 -19 3175 -19 2989 -12 c 1,3,4
 2872 -16 2872 -16 2772 36 c 0,5,6
 2642 105 2642 105 2589 249 c 1,7,-1
 2577 283 l 1,8,-1
 2612 276 l 2,9,10
 2650 268 2650 268 2691 286 c 2,11,-1
 2713 296 l 1,12,-1
 2719 272 l 1,13,14
 2742 165 2742 165 2821.5 114 c 0,15,16
 2901 63 2901 63 2988 67 c 1,17,18
 3140 80 3140 80 3211.5 201.5 c 128,-1,19
 3283 323 3283 323 3280 513 c 1,20,21
 3282 698 3282 698 3206 818.5 c 128,-1,22
 3130 939 3130 939 2999.5 942 c 128,-1,23
 2869 945 2869 945 2799.5 867 c 128,-1,24
 2730 789 2730 789 2721 702 c 2,25,-1
 2717 662 l 1,26,-1
 2687 689 l 2,27,28
 2661 713 2661 713 2612 717 c 2,29,-1
 2586 719 l 1,30,-1
 2594 743 l 2,31,32
 2685 1014 2685 1014 2984 1025 c 0,33,34
 3176 1033 3176 1033 3306.5 892.5 c 128,-1,35
 3437 752 3437 752 3436 517 c 1,0,1
1263 490 m 0,36,37
 1263 169 1263 169 1009 -23 c 2,38,-1
 984 -42 l 1,39,-1
 977 -11 l 2,40,41
 971 17 971 17 939 44 c 2,42,-1
 917 62 l 1,43,-1
 942 76 l 1,44,45
 1026 125 1026 125 1070 242.5 c 128,-1,46
 1114 360 1114 360 1114 477 c 0,47,48
 1114 672 1114 672 1013 805 c 128,-1,49
 912 938 912 938 725 938 c 128,-1,50
 538 938 538 938 429 822 c 128,-1,51
 320 706 320 706 313 531 c 1,52,53
 344 576 344 576 393 607 c 1,54,55
 476 662 476 662 575 662 c 0,56,57
 712 662 712 662 806.5 567.5 c 128,-1,58
 901 473 901 473 901 326 c 128,-1,59
 901 179 901 179 812 78.5 c 128,-1,60
 723 -22 723 -22 567 -22 c 1,61,62
 363 -24 363 -24 256 144 c 1,63,64
 168 285 168 285 177 486 c 1,65,66
 181 736 181 736 326.5 884.5 c 128,-1,67
 472 1033 472 1033 719 1033 c 128,-1,68
 966 1033 966 1033 1114.5 882.5 c 128,-1,69
 1263 732 1263 732 1263 490 c 0,36,37
758 321 m 128,-1,71
 758 429 758 429 706 499.5 c 128,-1,72
 654 570 654 570 556.5 570 c 128,-1,73
 459 570 459 570 403 499.5 c 128,-1,74
 347 429 347 429 347 327 c 128,-1,75
 347 225 347 225 401.5 146.5 c 128,-1,76
 456 68 456 68 554.5 68 c 128,-1,77
 653 68 653 68 705.5 140.5 c 128,-1,70
 758 213 758 213 758 321 c 128,-1,71
EndSplineSet
EndChar

StartChar: o2
Encoding: 107 3403 108
Width: 3170
VWidth: 2064
GlyphClass: 2
Flags: W
LayerCount: 2
Fore
SplineSet
3170 486 m 1,0,1
 3168 279 3168 279 3047 133.5 c 128,-1,2
 2926 -12 2926 -12 2723 -12 c 0,3,4
 2418 -12 2418 -12 2323 249 c 0,5,6
 2316 268 2316 268 2310 285 c 1,7,-1
 2347 275 l 2,8,9
 2353 274 2353 274 2374.5 274 c 128,-1,10
 2396 274 2396 274 2425 286 c 1,11,-1
 2447 296 l 1,12,-1
 2453 272 l 1,13,14
 2473 178 2473 178 2549.5 122.5 c 128,-1,15
 2626 67 2626 67 2724 67 c 1,16,17
 2871 70 2871 70 2949 205 c 0,18,19
 3015 320 3015 320 3016.5 494.5 c 128,-1,20
 3018 669 3018 669 2957 791 c 0,21,22
 2881 942 2881 942 2717 942 c 0,23,24
 2614 942 2614 942 2540 873 c 128,-1,25
 2466 804 2466 804 2455 702 c 2,26,-1
 2451 663 l 1,27,-1
 2422 689 l 2,28,29
 2394 714 2394 714 2347 717 c 1,30,-1
 2321 718 l 1,31,-1
 2329 743 l 1,32,33
 2423 1026 2423 1026 2737 1026 c 1,34,35
 2958 1022 2958 1022 3077 848 c 0,36,37
 3178 700 3178 700 3170 486 c 1,0,1
1017 219 m 0,38,39
 1017 84 1017 84 894 21 c 0,40,41
 804 -26 804 -26 664 -26 c 0,42,43
 439 -26 439 -26 308 123.5 c 128,-1,44
 177 273 177 273 177 501 c 128,-1,45
 177 729 177 729 313 882.5 c 128,-1,46
 449 1036 449 1036 677 1036 c 0,47,48
 811 1036 811 1036 900 985 c 1,49,50
 1016 921 1016 921 1016 790 c 0,51,52
 1016 688 1016 688 947 634 c 128,-1,53
 878 580 878 580 777 580 c 128,-1,54
 676 580 676 580 602.5 634 c 128,-1,55
 529 688 529 688 529 784 c 0,56,57
 529 880 529 880 601 939 c 1,58,59
 468 907 468 907 400.5 791.5 c 128,-1,60
 333 676 333 676 333 503 c 128,-1,61
 333 330 333 330 399 216 c 128,-1,62
 465 102 465 102 597 71 c 1,63,64
 530 123 530 123 530 224 c 128,-1,65
 530 325 530 325 604.5 377.5 c 128,-1,66
 679 430 679 430 780.5 430 c 128,-1,67
 882 430 882 430 949.5 374 c 128,-1,68
 1017 318 1017 318 1017 219 c 0,38,39
774 669 m 0,69,70
 873 669 873 669 873 785 c 0,71,72
 873 844 873 844 847.5 881 c 128,-1,73
 822 918 822 918 773.5 918 c 128,-1,74
 725 918 725 918 698 883.5 c 128,-1,75
 671 849 671 849 671 795 c 128,-1,76
 671 741 671 741 697.5 705 c 128,-1,77
 724 669 724 669 774 669 c 0,69,70
776 340 m 1,78,79
 671 333 671 333 672 218 c 0,80,81
 672 160 672 160 699 125.5 c 128,-1,82
 726 91 726 91 776 91 c 128,-1,83
 826 91 826 91 852 129.5 c 128,-1,84
 878 168 878 168 875 226 c 0,85,86
 870 340 870 340 776 340 c 1,78,79
EndSplineSet
EndChar

StartChar: au1
Encoding: 108 3404 109
Width: 1332
VWidth: 2064
GlyphClass: 2
Flags: W
LayerCount: 2
Fore
SplineSet
1332 562 m 0,0,1
 1332 291 1332 291 1176.5 136 c 128,-1,2
 1021 -19 1021 -19 750 -19 c 0,3,4
 602 -19 602 -19 467 38.5 c 128,-1,5
 332 96 332 96 262 213 c 1,6,-1
 248 236 l 1,7,-1
 274 242 l 1,8,9
 307 251 307 251 334 280 c 1,10,-1
 354 300 l 1,11,-1
 367 275 l 1,12,13
 475 71 475 71 724 71 c 0,14,15
 945 71 945 71 1061 197 c 128,-1,16
 1177 323 1177 323 1177 546 c 0,17,18
 1177 709 1177 709 1131 813 c 0,19,20
 1070 949 1070 949 938 946 c 1,21,22
 857 946 857 946 806.5 884 c 128,-1,23
 756 822 756 822 756 737 c 2,24,-1
 755 643 l 2,25,26
 755 601 755 601 762 510 c 2,27,-1
 764 482 l 1,28,-1
 737 489 l 2,29,30
 712 495 712 495 684 495 c 128,-1,31
 656 495 656 495 630 489 c 2,32,-1
 603 482 l 1,33,-1
 605 509 l 2,34,35
 614 640 614 640 612.5 732.5 c 128,-1,36
 611 825 611 825 565.5 886.5 c 128,-1,37
 520 948 520 948 433 946 c 0,38,39
 257 943 257 943 254 690 c 0,40,41
 253 580 253 580 258 509 c 2,42,-1
 260 482 l 1,43,-1
 233 489 l 2,44,45
 219 492 219 492 202.5 492 c 128,-1,46
 186 492 186 492 168 488 c 2,47,-1
 143 483 l 1,48,-1
 150 689 l 1,49,50
 164.285 1040 164.285 1040 460 1040 c 0,51,52
 645 1040 645 1040 712 887 c 1,53,54
 783 1041 783 1041 971.5 1041 c 128,-1,55
 1160 1041 1160 1041 1255 881 c 0,56,57
 1332 753 1332 753 1332 562 c 0,0,1
EndSplineSet
EndChar

StartChar: xx
Encoding: 109 3405 110
Width: 147
VWidth: 2064
GlyphClass: 2
Flags: W
LayerCount: 2
Fore
SplineSet
497 1458 m 1,0,1
 495 1308 495 1308 412.5 1228.5 c 128,-1,2
 330 1149 330 1149 172 1145 c 1,3,4
 14 1148 14 1148 -68.5 1227.5 c 128,-1,5
 -151 1307 -151 1307 -153 1458 c 1,6,-1
 -153 1492 l 1,7,-1
 -123 1476 l 2,8,9
 -85 1455 -85 1455 -25 1477 c 2,10,-1
 5 1488 l 1,11,-1
 2 1456 l 2,12,13
 0 1439 0 1439 0 1423 c 0,14,15
 0 1325 0 1325 42 1279.5 c 128,-1,16
 84 1234 84 1234 172 1234 c 128,-1,17
 260 1234 260 1234 302 1279.5 c 128,-1,18
 344 1325 344 1325 344 1423 c 0,19,20
 344 1439 344 1439 342 1456 c 2,21,-1
 339 1488 l 1,22,-1
 369 1477 l 2,23,24
 430 1455 430 1455 467 1476 c 0,25,26
 472 1479 472 1479 482 1484 c 128,-1,27
 492 1489 492 1489 497 1492 c 1,28,-1
 497 1458 l 1,0,1
EndSplineSet
EndChar

StartChar: au2
Encoding: 110 3415 111
Width: 1336
VWidth: 2064
GlyphClass: 2
Flags: W
LayerCount: 2
Fore
SplineSet
1336 562 m 0,0,1
 1336 291 1336 291 1180.5 136 c 128,-1,2
 1025 -19 1025 -19 754 -19 c 0,3,4
 606 -19 606 -19 471 38.5 c 128,-1,5
 336 96 336 96 266 213 c 1,6,-1
 252 236 l 1,7,-1
 278 242 l 1,8,9
 311 251 311 251 338 280 c 1,10,-1
 358 300 l 1,11,-1
 371 275 l 1,12,13
 479 71 479 71 728 71 c 0,14,15
 949 71 949 71 1065 197 c 128,-1,16
 1181 323 1181 323 1181 546 c 0,17,18
 1181 709 1181 709 1135 813 c 0,19,20
 1074 949 1074 949 942 946 c 1,21,22
 861 946 861 946 810.5 884 c 128,-1,23
 760 822 760 822 760 737 c 2,24,-1
 759 643 l 2,25,26
 759 601 759 601 766 510 c 2,27,-1
 768 481 l 1,28,-1
 741 489 l 2,29,30
 718 495 718 495 689 495 c 128,-1,31
 660 495 660 495 634 489 c 2,32,-1
 607 482 l 1,33,-1
 609 509 l 2,34,35
 618 640 618 640 616.5 732.5 c 128,-1,36
 615 825 615 825 569.5 886.5 c 128,-1,37
 524 948 524 948 437 946 c 0,38,39
 261 943 261 943 258 690 c 0,40,41
 257 580 257 580 262 509 c 2,42,-1
 264 482 l 1,43,-1
 237 489 l 2,44,45
 223 492 223 492 206.5 492 c 128,-1,46
 190 492 190 492 172 488 c 2,47,-1
 147 483 l 1,48,-1
 154 689 l 1,49,50
 168.285 1040 168.285 1040 464 1040 c 0,51,52
 649 1040 649 1040 716 887 c 1,53,54
 787 1041 787 1041 975.5 1041 c 128,-1,55
 1164 1041 1164 1041 1259 881 c 0,56,57
 1336 753 1336 753 1336 562 c 0,0,1
EndSplineSet
EndChar

StartChar: ml_rr
Encoding: 111 3424 112
Width: 1349
VWidth: 2064
GlyphClass: 2
Flags: W
LayerCount: 2
Fore
SplineSet
310 673 m 1,0,1
 333 403 333 403 756 403 c 0,2,3
 1179 403 1179 403 1201 678 c 1,4,5
 1143 595 1143 595 1042 593.5 c 128,-1,6
 941 592 941 592 875.5 654 c 128,-1,7
 810 716 810 716 810 817.5 c 128,-1,8
 810 919 810 919 875.5 977.5 c 128,-1,9
 941 1036 941 1036 1043 1036 c 0,10,11
 1180 1036 1180 1036 1261 935.5 c 128,-1,12
 1342 835 1342 835 1342 701 c 128,-1,13
 1342 567 1342 567 1275.5 482 c 128,-1,14
 1209 397 1209 397 1120 359 c 1,15,16
 1202 327 1202 327 1259 266 c 0,17,18
 1338 182 1338 182 1338 62 c 0,19,20
 1338 -130 1338 -130 1122 -220 c 1,21,22
 971 -281 971 -281 758 -281 c 128,-1,23
 545 -281 545 -281 392 -219 c 0,24,25
 174 -130 174 -130 174 62 c 0,26,27
 174 182 174 182 253 266 c 0,28,29
 310 327 310 327 392 359 c 1,30,31
 303 397 303 397 236.5 482 c 128,-1,32
 170 567 170 567 170 701 c 128,-1,33
 170 835 170 835 251 935.5 c 128,-1,34
 332 1036 332 1036 468 1036 c 0,35,36
 571 1036 571 1036 636 977.5 c 128,-1,37
 701 919 701 919 701 817.5 c 128,-1,38
 701 716 701 716 636 654 c 128,-1,39
 571 592 571 592 469.5 592 c 128,-1,40
 368 592 368 592 310 673 c 1,0,1
1047 946 m 0,41,42
 945 946 945 946 945 818 c 0,43,44
 945 754 945 754 971 718 c 128,-1,45
 997 682 997 682 1045 682 c 128,-1,46
 1093 682 1093 682 1120.5 720 c 128,-1,47
 1148 758 1148 758 1148 812 c 128,-1,48
 1148 866 1148 866 1121.5 906 c 128,-1,49
 1095 946 1095 946 1047 946 c 0,41,42
466 682 m 128,-1,51
 514 682 514 682 540.5 718.5 c 128,-1,52
 567 755 567 755 567 818 c 0,53,54
 567 946 567 946 465 946 c 0,55,56
 417 946 417 946 390.5 906 c 128,-1,57
 364 866 364 866 364 812 c 128,-1,58
 364 758 364 758 391 720 c 128,-1,50
 418 682 418 682 466 682 c 128,-1,51
1035 -134 m 0,59,60
 1183 -64 1183 -64 1183 65.5 c 128,-1,61
 1183 195 1183 195 1046 262 c 1,62,63
 931 317 931 317 784 314 c 0,64,65
 754 313 754 313 724 314 c 0,66,67
 576 317 576 317 464 262 c 0,68,69
 329 196 329 196 329 66.5 c 128,-1,70
 329 -63 329 -63 479 -134 c 0,71,72
 600 -191 600 -191 758 -191 c 128,-1,73
 916 -191 916 -191 1035 -134 c 0,59,60
982.5 115.5 m 128,-1,75
 1012 86 1012 86 1012 44.5 c 128,-1,76
 1012 3 1012 3 982.5 -26.5 c 128,-1,77
 953 -56 953 -56 911.5 -56 c 128,-1,78
 870 -56 870 -56 840.5 -26.5 c 128,-1,79
 811 3 811 3 811 44.5 c 128,-1,80
 811 86 811 86 840.5 115.5 c 128,-1,81
 870 145 870 145 911.5 145 c 128,-1,74
 953 145 953 145 982.5 115.5 c 128,-1,75
684.5 115.5 m 128,-1,83
 714 86 714 86 714 44.5 c 128,-1,84
 714 3 714 3 684.5 -26.5 c 128,-1,85
 655 -56 655 -56 613.5 -56 c 128,-1,86
 572 -56 572 -56 542.5 -26.5 c 128,-1,87
 513 3 513 3 513 44.5 c 128,-1,88
 513 86 513 86 542.5 115.5 c 128,-1,89
 572 145 572 145 613.5 145 c 128,-1,82
 655 145 655 145 684.5 115.5 c 128,-1,83
EndSplineSet
EndChar

StartChar: ml_ll
Encoding: 112 3425 113
Width: 2298
VWidth: 2064
GlyphClass: 2
Flags: W
LayerCount: 2
Fore
SplineSet
2291.09 127 m 0,0,1
 2291.09 -102 2291.09 -102 2135.09 -249 c 0,2,3
 1979.09 -396 1979.09 -396 1752.09 -396 c 0,4,5
 1666.09 -396 1666.09 -396 1565.09 -371 c 0,6,7
 1464.09 -346 1464.09 -346 1415.09 -295 c 1,8,-1
 1396.09 -274 l 1,9,-1
 1422.09 -263 l 2,10,11
 1464.09 -245 1464.09 -245 1476.09 -213 c 2,12,-1
 1489.09 -178 l 1,13,-1
 1511.09 -208 l 2,14,15
 1579.09 -301 1579.09 -301 1756.09 -301 c 0,16,17
 1933.09 -301 1933.09 -301 2035.59 -174 c 0,18,19
 2138.09 -47 2138.09 -47 2138.09 133.5 c 0,20,21
 2138.09 314 2138.09 314 2079.09 401 c 1,22,23
 2073.09 330 2073.09 330 2043.09 225 c 0,24,25
 2013.09 120 2013.09 120 1919.59 47 c 0,26,27
 1826.09 -26 1826.09 -26 1690.09 -26 c 0,28,29
 1554.09 -26 1554.09 -26 1463.09 70 c 0,30,31
 1373.09 166 1373.09 166 1373.09 318.5 c 0,32,33
 1373.09 471 1373.09 471 1473.09 568 c 0,34,35
 1573.09 665 1573.09 665 1734.09 665 c 0,36,37
 1820.09 665 1820.09 665 1926.09 625 c 1,38,39
 1903.09 758 1903.09 758 1803.09 850 c 0,40,41
 1703.09 942 1703.09 942 1559.09 942 c 0,42,43
 1456.09 942 1456.09 942 1364.09 900 c 0,44,45
 1201.09 825 1201.09 825 1201.09 626 c 2,46,-1
 1201.09 344 l 1,47,-1
 1213.09 -11 l 1,48,-1
 1186.09 -3 l 2,49,50
 1158.09 5 1158.09 5 1129.59 5 c 0,51,52
 1101.09 5 1101.09 5 1083.09 -3 c 2,53,-1
 1053.09 -15 l 1,54,-1
 1055.09 18 l 1,55,56
 1065.09 148 1065.09 148 1065.09 344 c 2,57,-1
 1065.09 626 l 2,58,59
 1065.09 730 1065.09 730 1036.09 777 c 0,60,61
 932.09 944 932.09 944 730.09 944 c 0,62,63
 528.09 944 528.09 944 426.09 821 c 0,64,65
 324.09 698 324.09 698 310.09 537 c 1,66,67
 340.09 578 340.09 578 385.09 607 c 0,68,69
 468.09 662 468.09 662 567.09 662 c 0,70,71
 704.09 662 704.09 662 799.09 567.5 c 128,-1,72
 894.09 473 894.09 473 894.09 326 c 0,73,74
 894.09 179 894.09 179 805.09 79 c 0,75,76
 716.09 -21 716.09 -21 559.09 -22 c 1,77,78
 360.09 -22 360.09 -22 263.59 127 c 0,79,80
 167.09 276 167.09 276 170.09 485 c 1,81,82
 170.09 734 170.09 734 322.09 884.5 c 128,-1,83
 474.09 1035 474.09 1035 726.09 1035 c 0,84,85
 978.09 1035 978.09 1035 1138.09 876 c 1,86,87
 1287.09 1035 1287.09 1035 1544.09 1035 c 1,88,89
 1767.09 1038 1767.09 1038 1912.09 904 c 0,90,91
 2057.09 770 2057.09 770 2078.09 557 c 1,92,93
 2177.09 485 2177.09 485 2234.09 370.5 c 0,94,95
 2291.09 256 2291.09 256 2291.09 127 c 0,0,1
1857.09 147 m 1,96,97
 1936.09 256 1936.09 256 1936.09 451 c 0,98,99
 1936.09 493 1936.09 493 1935.09 510 c 1,100,101
 1868.09 565 1868.09 565 1753.09 565 c 0,102,103
 1638.09 565 1638.09 565 1581.09 491 c 0,104,105
 1524.09 417 1524.09 417 1524.09 308.5 c 0,106,107
 1524.09 200 1524.09 200 1573.09 134 c 0,108,109
 1622.09 68 1622.09 68 1710.09 68 c 128,-1,110
 1798.09 68 1798.09 68 1857.09 147 c 1,96,97
750.09 321.5 m 128,-1,112
 750.09 430 750.09 430 698.09 500 c 0,113,114
 646.09 570 646.09 570 548.09 570 c 0,115,116
 450.09 570 450.09 570 394.59 499 c 0,117,118
 339.09 428 339.09 428 338.59 325.5 c 0,119,120
 338.09 223 338.09 223 393.09 145.5 c 0,121,122
 448.09 68 448.09 68 546.59 68 c 128,-1,123
 645.09 68 645.09 68 697.59 140.5 c 0,124,111
 750.09 213 750.09 213 750.09 321.5 c 128,-1,112
EndSplineSet
EndChar

StartChar: ml_0
Encoding: 113 3430 114
Width: 1116
VWidth: 2064
GlyphClass: 2
Flags: W
LayerCount: 2
Fore
SplineSet
1109.06 500 m 128,-1,1
 1106.06 255 1106.06 255 948.056 118.5 c 0,2,3
 790.056 -18 790.056 -18 637.556 -18 c 128,-1,4
 485.056 -18 485.056 -18 326.056 123 c 0,5,6
 167.056 264 167.056 264 170.056 510 c 0,7,8
 173.056 756 173.056 756 328.056 894 c 0,9,10
 483.056 1032 483.056 1032 643.056 1033 c 0,11,12
 803.056 1034 803.056 1034 957.556 889.5 c 0,13,0
 1112.06 745 1112.06 745 1109.06 500 c 128,-1,1
638.056 945 m 0,14,15
 511.056 946 511.056 946 417.056 817 c 0,16,17
 323.056 688 323.056 688 323.056 502 c 0,18,19
 323.056 316 323.056 316 420.556 194 c 0,20,21
 518.056 72 518.056 72 637.056 71.5 c 0,22,23
 756.056 71 756.056 71 856.056 189 c 0,24,25
 956.056 307 956.056 307 955.056 503 c 0,26,27
 955.056 699 955.056 699 860.056 821.5 c 0,28,29
 765.056 944 765.056 944 638.056 945 c 0,14,15
EndSplineSet
EndChar

StartChar: ml_1
Encoding: 114 3431 115
Width: 1571
VWidth: 2064
GlyphClass: 2
Flags: W
LayerCount: 2
Fore
SplineSet
1556 -4 m 1,0,-1
 378 -4 l 2,1,2
 332 -4 332 -4 312.5 -20.5 c 128,-1,3
 293 -37 293 -37 293 -74 c 0,4,5
 293 -150 293 -150 471 -150 c 0,6,7
 649 -150 649 -150 737 -136 c 2,8,-1
 776 -130 l 1,9,-1
 758 -165 l 2,10,11
 750 -180 750 -180 750 -203 c 128,-1,12
 750 -226 750 -226 758 -241 c 2,13,-1
 777 -277 l 1,14,-1
 736 -270 l 2,15,16
 693 -262 693 -262 629 -264 c 2,17,-1
 515 -267 l 1,18,19
 356 -267 356 -267 296.5 -251 c 0,20,21
 237 -235 237 -235 203.5 -192.5 c 128,-1,22
 170 -150 170 -150 170 -79 c 0,23,24
 170 -8 170 -8 226 38.5 c 0,25,26
 282 85 282 85 362 85 c 2,27,-1
 810 85 l 1,28,29
 823 265 823 265 823 672 c 0,30,31
 823 835 823 835 927 936 c 0,32,33
 1031 1037 1031 1037 1195 1037 c 0,34,35
 1413 1037 1413 1037 1501 842 c 0,36,37
 1564 701 1564 701 1564 430 c 0,38,39
 1564 360 1564 360 1559 217 c 0,40,41
 1554 74 1554 74 1555 17 c 1,42,-1
 1556 -4 l 1,0,-1
1413 85 m 1,43,-1
 1413 661 l 2,44,45
 1413 786 1413 786 1361 867 c 0,46,47
 1309 948 1309 948 1194.5 948 c 0,48,49
 1080 948 1080 948 1020.5 866 c 0,50,51
 961 784 961 784 961 661 c 2,52,-1
 961 85 l 1,53,-1
 1413 85 l 1,43,-1
EndSplineSet
EndChar

StartChar: ml_2
Encoding: 115 3432 116
Width: 1569
VWidth: 2064
GlyphClass: 2
Flags: W
LayerCount: 2
Fore
SplineSet
1534.08 -14 m 2,0,1
 1425.08 -11 1425.08 -11 1232.08 -4 c 1,2,-1
 822.084 -4 l 1,3,-1
 821.084 87 l 1,4,5
 1073.08 182 1073.08 182 1071.08 526 c 1,6,7
 1071.08 699 1071.08 699 975.584 821.5 c 128,-1,8
 880.084 944 880.084 944 695.584 945 c 128,-1,9
 511.085 946 511.085 946 417.085 817 c 128,-1,10
 323.085 688 323.085 688 323.585 520.5 c 128,-1,11
 324.085 353 324.085 353 387.085 234.5 c 128,-1,12
 450.085 116 450.085 116 566.084 74 c 1,13,-1
 592.084 64 l 1,14,-1
 575.084 43 l 2,15,16
 560.084 23 560.084 23 556.084 -6 c 2,17,-1
 553.084 -33 l 1,18,-1
 528.084 -22 l 1,19,20
 374.085 43 374.085 43 270.585 182 c 128,-1,21
 167.085 321 167.085 321 170.085 505 c 0,22,23
 173.085 756 173.085 756 327.585 894 c 128,-1,24
 482.085 1032 482.085 1032 700.084 1032.5 c 128,-1,25
 918.084 1033 918.084 1033 1072.58 889 c 128,-1,26
 1227.08 745 1227.08 745 1223.58 494.5 c 128,-1,27
 1220.08 244 1220.08 244 1038.08 93 c 1,28,-1
 1236.08 93 l 2,29,30
 1435.08 93 1435.08 93 1533.08 103 c 2,31,-1
 1562.08 106 l 1,32,-1
 1554.08 77 l 2,33,34
 1545.08 44 1545.08 44 1554.08 11 c 1,35,-1
 1562.08 -15 l 1,36,-1
 1534.08 -14 l 2,0,1
EndSplineSet
EndChar

StartChar: ml_3
Encoding: 116 3433 117
Width: 2365
VWidth: 2064
GlyphClass: 2
Flags: W
LayerCount: 2
Fore
SplineSet
1401 79 m 1,0,1
 1647 180.294 1647 180.294 1647 518 c 0,2,3
 1647 691 1647 691 1568.5 816 c 128,-1,4
 1490 941 1490 941 1332 945 c 1,5,6
 1138 945 1138 945 1075 787 c 0,7,8
 1056 742 1056 742 1056 626 c 2,9,-1
 1056 344 l 1,10,-1
 1067 -11 l 1,11,-1
 1040 -3 l 2,12,13
 1012 5 1012 5 984 5 c 128,-1,14
 956 5 956 5 938 -3 c 2,15,-1
 908 -15 l 1,16,-1
 910 18 l 1,17,18
 920 147 920 147 920 327 c 2,19,-1
 920 626 l 2,20,21
 920 743 920 743 901 786 c 0,22,23
 833 945 833 945 653 944 c 1,24,25
 491 939 491 939 407 810.5 c 128,-1,26
 323 682 323 682 329 510 c 1,27,28
 329 374 329 374 390 251.5 c 128,-1,29
 451 129 451 129 563 87 c 2,30,-1
 595 75 l 1,31,-1
 569 53 l 2,32,33
 544 32 544 32 540 -11 c 2,34,-1
 537 -38 l 1,35,-1
 512 -27 l 2,36,37
 352 43 352 43 261 193.5 c 128,-1,38
 170 344 170 344 170 522 c 0,39,40
 170 743 170 743 303 888 c 128,-1,41
 436 1033 436 1033 646.5 1033 c 128,-1,42
 857 1033 857 1033 989 899 c 1,43,44
 1112 1034 1112 1034 1329 1034 c 128,-1,45
 1546 1034 1546 1034 1675.5 890 c 128,-1,46
 1805 746 1805 746 1805 502 c 128,-1,47
 1805 258 1805 258 1640 93 c 1,48,-1
 1856 93 l 2,49,50
 2230 93 2230 93 2329 103 c 2,51,-1
 2358 106 l 1,52,-1
 2350 77 l 2,53,54
 2341 44 2341 44 2350 11 c 1,55,-1
 2358 -14 l 1,56,-1
 2331 -14 l 1,57,58
 2133 -11 2133 -11 1852 -4 c 1,59,-1
 1395 -4 l 1,60,-1
 1409 25 l 2,61,62
 1415 39 1415 39 1401 79 c 1,0,1
EndSplineSet
EndChar

StartChar: ml_4
Encoding: 117 3434 118
Width: 1300
VWidth: 2064
GlyphClass: 2
Flags: W
LayerCount: 2
Fore
SplineSet
1293.04 470 m 0,0,1
 1293.04 280 1293.04 280 1208.04 141 c 1,2,3
 1104.04 -26 1104.04 -26 921.035 -24.5 c 128,-1,4
 738.035 -23 738.035 -23 637.035 131 c 0,5,6
 552.035 261 552.035 261 552.035 440.5 c 128,-1,7
 552.035 620 552.035 620 631.535 751.5 c 128,-1,8
 711.035 883 711.035 883 839.035 938 c 1,9,10
 796.035 949 796.035 949 716.035 946 c 0,11,12
 534.035 937 534.035 937 428.535 798 c 128,-1,13
 323.035 659 323.035 659 323.035 470 c 0,14,15
 323.035 190 323.035 190 484.035 71 c 1,16,-1
 510.035 51 l 1,17,-1
 481.035 37 l 2,18,19
 455.035 24 455.035 24 453.035 -5 c 2,20,-1
 451.035 -40 l 1,21,-1
 422.035 -21 l 1,22,23
 167.035 149 167.035 149 170.035 496 c 1,24,25
 170.035 730 170.035 730 320.035 882.5 c 128,-1,26
 470.035 1035 470.035 1035 704.035 1035 c 0,27,28
 868.035 1035 868.035 1035 961.035 991 c 1,29,30
 1013.04 1032 1013.04 1032 1013.54 1106.5 c 128,-1,31
 1014.04 1181 1014.04 1181 968.035 1226 c 128,-1,32
 922.035 1271 922.035 1271 854.035 1271 c 128,-1,33
 786.035 1271 786.035 1271 747.035 1238 c 2,34,-1
 722.035 1217 l 1,35,-1
 715.035 1248 l 2,36,37
 702.035 1302 702.035 1302 666.035 1332 c 2,38,-1
 645.035 1350 l 1,39,-1
 669.035 1364 l 2,40,41
 740.035 1406 740.035 1406 848.035 1407 c 128,-1,42
 956.035 1408 956.035 1408 1046.04 1332 c 128,-1,43
 1136.04 1256 1136.04 1256 1138.04 1139 c 128,-1,44
 1140.04 1022 1140.04 1022 1055.04 943 c 1,45,46
 1293.04 790 1293.04 790 1293.04 470 c 0,0,1
1138.04 494 m 0,47,48
 1138.04 784 1138.04 784 961.035 878 c 1,49,50
 832.035 841 832.035 841 769.035 712 c 128,-1,51
 706.035 583 706.035 583 706.035 442 c 128,-1,52
 706.035 301 706.035 301 753.035 199 c 0,53,54
 811.035 74 811.035 74 916.035 65 c 1,55,56
 1037.04 66 1037.04 66 1094.04 220 c 0,57,58
 1138.04 336 1138.04 336 1138.04 494 c 0,47,48
EndSplineSet
EndChar

StartChar: ml_5
Encoding: 118 3435 119
Width: 1952
VWidth: 2064
GlyphClass: 2
Flags: W
LayerCount: 2
Fore
SplineSet
1945 615 m 0,0,1
 1945 207 1945 207 1647 -40 c 1,2,-1
 1626 -57 l 1,3,-1
 1600 4 l 2,4,5
 1594 16 1594 16 1580 24 c 2,6,-1
 1558 38 l 1,7,-1
 1577 56 l 1,8,9
 1794 256 1794 256 1794 616 c 0,10,11
 1794 1040 1794 1040 1465 1244 c 0,12,13
 1310 1341 1310 1341 1063 1341 c 0,14,15
 732 1341 732 1341 528 1119 c 128,-1,16
 324 897 324 897 324 561 c 0,17,18
 324 157 324 157 555 -51 c 0,19,20
 718 -198 718 -198 941 -198 c 0,21,22
 1227 -198 1227 -198 1352 7 c 1,23,24
 1404 90 1404 90 1404 199 c 128,-1,25
 1404 308 1404 308 1340 369 c 128,-1,26
 1276 430 1276 430 1166 430 c 0,27,28
 1106 430 1106 430 1060 415 c 2,29,-1
 1020 402 l 1,30,-1
 1035 441 l 2,31,32
 1042 457 1042 457 1042 492.5 c 128,-1,33
 1042 528 1042 528 1035 545 c 2,34,-1
 1022 577 l 1,35,-1
 1057 572 l 1,36,37
 1124 561 1124 561 1201.5 561 c 128,-1,38
 1279 561 1279 561 1326.5 599 c 128,-1,39
 1374 637 1374 637 1374 716 c 0,40,41
 1374 823 1374 823 1281 885.5 c 128,-1,42
 1188 948 1188 948 1069 948 c 0,43,44
 886 948 886 948 770 818 c 128,-1,45
 654 688 654 688 654 501 c 0,46,47
 654 378 654 378 703 250 c 128,-1,48
 752 122 752 122 840 77 c 2,49,-1
 871 61 l 1,50,-1
 842 42 l 2,51,52
 818 27 818 27 816 -18 c 2,53,-1
 815 -53 l 1,54,-1
 785 -34 l 1,55,56
 712 14 712 14 673 53 c 0,57,58
 499 226 499 226 499 485.5 c 128,-1,59
 499 745 499 745 662 891 c 128,-1,60
 825 1037 825 1037 1076 1037 c 0,61,62
 1249 1037 1249 1037 1375 962 c 0,63,64
 1529 869 1529 869 1529 713.5 c 128,-1,65
 1529 558 1529 558 1403 496 c 1,66,67
 1556 415 1556 415 1556 187 c 128,-1,68
 1556 -41 1556 -41 1361 -175 c 1,69,70
 1194 -287 1194 -287 947 -287 c 0,71,72
 642 -287 642 -287 429 -93 c 0,73,74
 170 142 170 142 170 569 c 0,75,76
 170 955 170 955 422 1192 c 128,-1,77
 674 1429 674 1429 1060 1429 c 0,78,79
 1595.65 1429 1595.65 1429 1828 1047 c 0,80,81
 1945 854 1945 854 1945 615 c 0,0,1
EndSplineSet
EndChar

StartChar: ml_6
Encoding: 119 3436 120
Width: 2433
VWidth: 2064
GlyphClass: 2
Flags: W
LayerCount: 2
Fore
SplineSet
1530 -15 m 1,0,1
 1543 171 1543 171 1543 348 c 2,2,-1
 1543 640 l 2,3,4
 1543 766 1543 766 1484 854.5 c 128,-1,5
 1425 943 1425 943 1310 943 c 1,6,7
 1136 941 1136 941 1075 787 c 1,8,9
 1056 742 1056 742 1056 642 c 2,10,-1
 1056 344 l 2,11,12
 1056 335 1056 335 1066 17 c 1,13,-1
 1067 -11 l 1,14,-1
 1040 -3 l 2,15,16
 1012 5 1012 5 984.5 5 c 128,-1,17
 957 5 957 5 937 -3 c 2,18,-1
 908 -14 l 1,19,-1
 910 18 l 1,20,21
 920 147 920 147 920 309 c 2,22,-1
 920 642 l 2,23,24
 920 742 920 742 901 786 c 0,25,26
 835 944 835 944 653 944 c 0,27,28
 500 944 500 944 414 819 c 128,-1,29
 328 694 328 694 328 538.5 c 128,-1,30
 328 383 328 383 387 256.5 c 0,31,32
 446 130 446 130 563 87 c 1,33,-1
 594 75 l 1,34,-1
 569 53 l 2,35,36
 544 31 544 31 540 -11 c 2,37,-1
 537 -38 l 1,38,-1
 512 -27 l 2,39,40
 352 43 352 43 261 193.5 c 128,-1,41
 170 344 170 344 170 522 c 0,42,43
 170 743 170 743 303 888 c 128,-1,44
 436 1033 436 1033 646.5 1033 c 128,-1,45
 857 1033 857 1033 989 899 c 1,46,47
 1111 1034 1111 1034 1301 1034 c 128,-1,48
 1491 1034 1491 1034 1613 900 c 1,49,50
 1739 1038 1739 1038 1959.5 1038 c 128,-1,51
 2180 1038 2180 1038 2303 884.5 c 128,-1,52
 2426 731 2426 731 2426 501.5 c 128,-1,53
 2426 272 2426 272 2353 102 c 0,54,55
 2248 -143 2248 -143 2045 -269 c 2,56,-1
 2019 -285 l 1,57,58
 2017 -270 2017 -270 2012.5 -243 c 128,-1,59
 2008 -216 2008 -216 1980 -197 c 2,60,-1
 1954 -179 l 1,61,-1
 1981 -163 l 1,62,63
 2129 -72 2129 -72 2200.5 109.5 c 128,-1,64
 2272 291 2272 291 2272 477 c 128,-1,65
 2272 663 2272 663 2201 792 c 1,66,67
 2117 948 2117 948 1942.5 948 c 128,-1,68
 1768 948 1768 948 1700 786 c 1,69,70
 1679 733 1679 733 1679 631 c 2,71,-1
 1679 344 l 1,72,-1
 1690 -11 l 1,73,-1
 1663 -3 l 2,74,75
 1635 5 1635 5 1606.5 5 c 128,-1,76
 1578 5 1578 5 1560 -3 c 2,77,-1
 1530 -15 l 1,0,1
EndSplineSet
EndChar

StartChar: ml_7
Encoding: 120 3437 121
Width: 1358
VWidth: 2064
GlyphClass: 2
Flags: W
LayerCount: 2
Fore
SplineSet
845 1037 m 0,0,1
 1081 1037 1081 1037 1219 891 c 0,2,3
 1357 745 1357 745 1357 498 c 0,4,5
 1357 251 1357 251 1181 107.5 c 0,6,7
 1005 -36 1005 -36 758.5 -35 c 0,8,9
 512 -34 512 -34 364 68 c 0,10,11
 216 170 216 170 177 314 c 1,12,-1
 170 339 l 1,13,-1
 196 339 l 1,14,15
 245 340 245 340 275 367 c 2,16,-1
 301 391 l 1,17,-1
 308 356 l 2,18,19
 323 280 323 280 382.5 208.5 c 128,-1,20
 442 137 442 137 543.5 95 c 0,21,22
 645 53 645 53 743 53 c 0,23,24
 951 53 951 53 1076 184 c 0,25,26
 1201 315 1201 315 1201 507.5 c 0,27,28
 1201 700 1201 700 1102 823 c 0,29,30
 1003 946 1003 946 835 946 c 0,31,32
 810 946 810 946 787 944 c 1,33,34
 866 928 866 928 924 873 c 0,35,36
 1016 786 1016 786 1016 644.5 c 128,-1,37
 1016 503 1016 503 922 417.5 c 0,38,39
 828 332 828 332 683 332 c 1,40,41
 544 337 544 337 453 422 c 0,42,43
 363 507 363 507 363 643 c 0,44,45
 363 833 363 833 507 935 c 0,46,47
 652 1037 652 1037 845 1037 c 0,0,1
862 642 m 0,48,49
 862 735 862 735 819 798.5 c 0,50,51
 776 862 776 862 690.5 861.5 c 0,52,53
 605 861 605 861 559 795 c 0,54,55
 513 729 513 729 515 640.5 c 0,56,57
 517 552 517 552 561 487 c 0,58,59
 605 422 605 422 692.5 422 c 0,60,61
 780 422 780 422 822 485 c 1,62,63
 862 549 862 549 862 642 c 0,48,49
EndSplineSet
EndChar

StartChar: ml_8
Encoding: 121 3438 122
Width: 1615
VWidth: 2064
GlyphClass: 2
Flags: W
LayerCount: 2
Fore
SplineSet
1607 986 m 1,0,1
 1598 760 1598 760 1598 391 c 2,2,-1
 1598 14 l 1,3,4
 1573 -144 1573 -144 1445 -222.5 c 128,-1,5
 1317 -301 1317 -301 1147 -291 c 1,6,7
 923 -282 923 -282 798 -154 c 1,8,-1
 772 -128 l 1,9,-1
 808 -120 l 1,10,11
 850 -112 850 -112 858 -70 c 2,12,-1
 868 -23 l 1,13,-1
 895 -63 l 1,14,15
 979 -190 979 -190 1151 -197 c 0,16,17
 1276 -202 1276 -202 1355 -150.5 c 128,-1,18
 1434 -99 1434 -99 1456 -4 c 1,19,-1
 808 -4 l 1,20,-1
 813 20 l 2,21,22
 817 40 817 40 811 75 c 1,23,-1
 823 82 l 2,24,25
 1063 221 1063 221 1063 512 c 0,26,27
 1063 698 1063 698 964.5 819.5 c 128,-1,28
 866 941 866 941 690 940 c 128,-1,29
 514 939 514 939 415 818 c 128,-1,30
 316 697 316 697 316 522 c 128,-1,31
 316 347 316 347 396 229 c 128,-1,32
 476 111 476 111 572 80 c 1,33,-1
 605 70 l 1,34,-1
 580 46 l 2,35,36
 559 27 559 27 554 -10 c 2,37,-1
 550 -36 l 1,38,-1
 526 -25 l 1,39,40
 170 135 170 135 170 520 c 0,41,42
 170 755 170 755 317 892.5 c 128,-1,43
 464 1030 464 1030 696 1030 c 128,-1,44
 928 1030 928 1030 1072.5 891 c 128,-1,45
 1217 752 1217 752 1217 524 c 0,46,47
 1217 247 1217 247 1007 85 c 1,48,-1
 1464 85 l 1,49,-1
 1464 661 l 2,50,51
 1464 829 1464 829 1452 985 c 1,52,-1
 1450 1017 l 1,53,-1
 1479 1006 l 2,54,55
 1498 998 1498 998 1528 998 c 128,-1,56
 1558 998 1558 998 1580 1006 c 2,57,-1
 1608 1015 l 1,58,-1
 1607 986 l 1,0,1
EndSplineSet
EndChar

StartChar: ml_9
Encoding: 122 3439 123
Width: 1954
VWidth: 2064
GlyphClass: 2
Flags: W
LayerCount: 2
Fore
SplineSet
1947 470 m 0,0,1
 1947 280 1947 280 1861 141 c 0,2,3
 1757 -25 1757 -25 1575 -24 c 0,4,5
 1393 -23 1393 -23 1299 119 c 0,6,7
 1205 261 1205 261 1205 442 c 1,8,9
 1200 630 1200 630 1282 754 c 0,10,11
 1364 878 1364 878 1490 931 c 1,12,13
 1439 944 1439 944 1358.5 944 c 0,14,15
 1278 944 1278 944 1192 902 c 0,16,17
 1106 860 1106 860 1077 787 c 1,18,19
 1056 737 1056 737 1056 626 c 2,20,-1
 1056 344 l 1,21,-1
 1067 -11 l 1,22,-1
 1040 -3 l 2,23,24
 1012 5 1012 5 984 5 c 0,25,26
 956 5 956 5 938 -3 c 2,27,-1
 908 -15 l 1,28,-1
 910 18 l 1,29,30
 920 147 920 147 920 327 c 2,31,-1
 920 626 l 2,32,33
 920 743 920 743 901 786 c 0,34,35
 833 945 833 945 653 944 c 1,36,37
 491 939 491 939 407 811 c 0,38,39
 323 683 323 683 329 510 c 1,40,41
 329 374 329 374 390 251.5 c 0,42,43
 451 129 451 129 563 87 c 2,44,-1
 595 75 l 1,45,-1
 569 53 l 2,46,47
 544 32 544 32 540 -11 c 2,48,-1
 537 -38 l 1,49,-1
 512 -27 l 2,50,51
 352 43 352 43 261 193.5 c 0,52,53
 170 344 170 344 170 522 c 0,54,55
 170 743 170 743 303 888 c 0,56,57
 436 1033 436 1033 647 1033 c 0,58,59
 858 1033 858 1033 989 899 c 1,60,61
 1111 1030 1111 1030 1355 1035 c 0,62,63
 1507 1039 1507 1039 1615 991 c 1,64,65
 1666 1032 1666 1032 1666.5 1106.5 c 0,66,67
 1667 1181 1667 1181 1621 1226 c 0,68,69
 1575 1271 1575 1271 1508 1271 c 0,70,71
 1441 1271 1441 1271 1401 1238 c 2,72,-1
 1376 1217 l 1,73,74
 1375 1222 1375 1222 1372.5 1232.5 c 128,-1,75
 1370 1243 1370 1243 1369 1248 c 0,76,77
 1356 1302 1356 1302 1319 1332 c 2,78,-1
 1297 1350 l 1,79,-1
 1322 1364 l 1,80,81
 1393 1406 1393 1406 1501 1407 c 0,82,83
 1609 1408 1609 1408 1699.5 1332 c 0,84,85
 1790 1256 1790 1256 1791.5 1139 c 0,86,87
 1793 1022 1793 1022 1708 943 c 1,88,89
 1947 798 1947 798 1947 470 c 0,0,1
1792 494 m 0,90,91
 1792 783 1792 783 1615 877 c 1,92,93
 1359 791 1359 791 1359 423 c 0,94,95
 1359 301 1359 301 1407 199 c 0,96,97
 1465 74 1465 74 1569 65 c 1,98,99
 1692 69 1692 69 1748 221 c 1,100,101
 1792 336 1792 336 1792 494 c 0,90,91
EndSplineSet
EndChar

StartChar: ZWNJ
Encoding: 132 8204 125
Width: 168
VWidth: 2064
GlyphClass: 2
Flags: W
LayerCount: 2
Fore
SplineSet
135 -4 m 1,0,-1
 43 -4 l 1,1,-1
 43 1429 l 1,2,-1
 135 1429 l 1,3,-1
 135 -4 l 1,0,-1
EndSplineSet
EndChar

StartChar: ZWJ
Encoding: 133 8205 126
Width: 290
VWidth: 2064
GlyphClass: 2
Flags: W
LayerCount: 2
Fore
SplineSet
349 1376 m 1,0,-1
 223 1250 l 1,1,-1
 347 1126 l 1,2,-1
 284 1063 l 1,3,-1
 206 1141 l 1,4,-1
 206 -4 l 1,5,-1
 115 -4 l 1,6,-1
 115 1141 l 1,7,-1
 37 1063 l 1,8,-1
 -26 1126 l 1,9,-1
 98 1250 l 1,10,-1
 -28 1376 l 1,11,-1
 34 1439 l 1,12,-1
 160 1313 l 1,13,-1
 287 1439 l 1,14,-1
 349 1376 l 1,0,-1
EndSplineSet
EndChar

StartChar: quoteleft
Encoding: 134 8216 127
Width: 338
VWidth: 2064
GlyphClass: 2
Flags: W
LayerCount: 2
Fore
SplineSet
389 1023 m 2,0,1
 365 1009 365 1009 353 987 c 2,2,-1
 340 964 l 1,3,-1
 322 983 l 1,4,5
 165 1146 165 1146 168 1407 c 1,6,-1
 168 1432 l 1,7,-1
 193 1426 l 2,8,9
 248 1413 248 1413 298 1426 c 2,10,-1
 327 1434 l 1,11,-1
 323 1404 l 2,12,13
 319 1376 319 1376 319 1345 c 0,14,15
 319 1169 319 1169 396 1051 c 2,16,-1
 407 1034 l 1,17,-1
 389 1023 l 2,0,1
EndSplineSet
EndChar

StartChar: quoteright
Encoding: 135 8217 128
Width: 338
VWidth: 2064
GlyphClass: 2
Flags: W
LayerCount: 2
Fore
SplineSet
358 1407 m 1,0,1
 361 1146 361 1146 204 983 c 1,2,-1
 185 963 l 1,3,-1
 172 988 l 2,4,5
 161 1009 161 1009 137 1023 c 2,6,-1
 119 1033 l 1,7,-1
 130 1051 l 1,8,9
 207 1169 207 1169 207 1345 c 0,10,11
 207 1377 207 1377 203 1404 c 2,12,-1
 199 1434 l 1,13,-1
 228 1426 l 2,14,15
 278 1413 278 1413 333 1426 c 2,16,-1
 358 1432 l 1,17,-1
 358 1407 l 1,0,1
EndSplineSet
EndChar

StartChar: quotedblleft
Encoding: 136 8220 129
Width: 608
VWidth: 2064
GlyphClass: 2
Flags: W
LayerCount: 2
Fore
SplineSet
590 1345 m 0,0,1
 590 1168.45 590 1168.45 677 1034 c 1,2,-1
 659 1023 l 2,3,4
 635 1009 635 1009 623 987 c 2,5,-1
 610 964 l 1,6,-1
 592 983 l 1,7,8
 436 1146 436 1146 439 1407 c 1,9,-1
 439 1432 l 1,10,-1
 464 1426 l 2,11,12
 518 1413 518 1413 568 1426 c 2,13,-1
 596 1433 l 1,14,-1
 593 1405 l 2,15,16
 590 1377 590 1377 590 1345 c 0,0,1
328 1345 m 0,17,18
 328 1168.45 328 1168.45 415 1034 c 1,19,-1
 397 1023 l 2,20,21
 373 1009 373 1009 361 987 c 2,22,-1
 348 964 l 1,23,-1
 330 983 l 1,24,25
 174 1146 174 1146 177 1407 c 1,26,-1
 177 1432 l 1,27,-1
 202 1426 l 2,28,29
 256 1413 256 1413 306 1426 c 2,30,-1
 334 1433 l 1,31,-1
 331 1405 l 2,32,33
 328 1377 328 1377 328 1345 c 0,17,18
EndSplineSet
EndChar

StartChar: quotedblright
Encoding: 137 8221 130
Width: 600
VWidth: 2064
GlyphClass: 2
Flags: W
LayerCount: 2
Fore
SplineSet
382 1034 m 1,0,1
 469 1168.45 469 1168.45 469 1345 c 0,2,3
 469 1377 469 1377 465 1404 c 2,4,-1
 461 1434 l 1,5,-1
 490 1426 l 1,6,7
 541 1413 541 1413 595 1426 c 2,8,-1
 620 1432 l 1,9,-1
 620 1407 l 1,10,11
 623 1146 623 1146 467 983 c 1,12,-1
 449 964 l 1,13,-1
 436 987 l 2,14,15
 424 1009 424 1009 400 1023 c 2,16,-1
 382 1034 l 1,0,1
358 1407 m 1,17,18
 361 1146 361 1146 204 983 c 1,19,-1
 185 963 l 1,20,-1
 172 988 l 2,21,22
 161 1009 161 1009 137 1023 c 2,23,-1
 119 1033 l 1,24,-1
 130 1051 l 1,25,26
 207 1169 207 1169 207 1345 c 0,27,28
 207 1377 207 1377 203 1404 c 2,29,-1
 199 1434 l 1,30,-1
 228 1426 l 2,31,32
 278 1413 278 1413 333 1426 c 2,33,-1
 358 1432 l 1,34,-1
 358 1407 l 1,17,18
EndSplineSet
EndChar

StartChar: uni25CC
Encoding: 138 9676 131
Width: 1246
VWidth: 2064
GlyphClass: 2
Flags: W
LayerCount: 2
Fore
SplineSet
1093 908 m 1,0,-1
 1030 845 l 1,1,2
 907 950 907 950 747 965 c 1,3,-1
 747 1054 l 1,4,-1
 769 1052 l 2,5,6
 943 1037 943 1037 1077 922 c 1,7,-1
 1093 908 l 1,0,-1
1268 526 m 1,8,-1
 1178 526 l 1,9,10
 1166 680 1166 680 1071 803 c 1,11,-1
 1137 866 l 1,12,-1
 1151 848 l 1,13,14
 1254 718 1254 718 1266 547 c 1,15,-1
 1268 526 l 1,8,-1
696 1054 m 1,16,-1
 696 965 l 1,17,18
 536 950 536 950 413 845 c 1,19,-1
 350 908 l 1,20,-1
 366 922 l 1,21,22
 500 1037 500 1037 674 1052 c 2,23,-1
 696 1054 l 1,16,-1
1265 452 m 1,24,25
 1248 282 1248 282 1136 152 c 1,26,-1
 1122 136 l 1,27,-1
 1059 199 l 1,28,29
 1161 319 1161 319 1178 474 c 1,30,-1
 1267 474 l 1,31,-1
 1265 452 l 1,24,25
1068 86 m 2,32,33
 937 -22 937 -22 769 -37 c 2,34,-1
 747 -39 l 1,35,-1
 747 50 l 1,36,37
 901 65 901 65 1021 163 c 1,38,-1
 1085 100 l 1,39,-1
 1068 86 l 2,32,33
378 809 m 1,40,41
 278 685 278 685 264 526 c 1,42,-1
 176 526 l 1,43,-1
 177 547 l 1,44,45
 189 721 189 721 301 856 c 2,46,-1
 315 873 l 1,47,-1
 378 809 l 1,40,41
693 51 m 1,48,-1
 693 -39 l 1,49,-1
 671 -37 l 1,50,51
 507 -21 507 -21 379 81 c 1,52,-1
 363 95 l 1,53,-1
 425 163 l 1,54,55
 549 65 549 65 693 51 c 1,48,-1
384 199 m 1,56,-1
 321 136 l 1,57,-1
 307 152 l 1,58,59
 195 283 195 283 178 452 c 1,60,-1
 176 474 l 1,61,-1
 265 474 l 1,62,63
 282 319 282 319 384 199 c 1,56,-1
EndSplineSet
EndChar

StartChar: glyph133
Encoding: 148 -1 138
Width: 1495
VWidth: 2064
GlyphClass: 2
Flags: W
LayerCount: 2
Fore
SplineSet
1500 -414 m 1,0,-1
 331 -414 l 1,1,-1
 339 -388 l 2,2,3
 343 -375 343 -375 331 -336 c 1,4,5
 539 -267 539 -267 763.5 -164.5 c 128,-1,6
 988 -62 988 -62 1121 36 c 1,7,-1
 1324 36 l 1,8,-1
 1266 -1 l 2,9,10
 975 -186 975 -186 625 -324 c 1,11,-1
 1354 -324 l 1,12,-1
 1354 36 l 1,13,-1
 1489 36 l 1,14,15
 1492 -118 1492 -118 1499 -393 c 1,16,-1
 1500 -414 l 1,0,-1
EndSplineSet
EndChar

StartChar: l1
Encoding: 149 -1 139
Width: 1364
VWidth: 2064
GlyphClass: 2
Flags: W
LayerCount: 2
Fore
SplineSet
280 -298 m 1,0,1
 340 -239 340 -239 426 -239 c 128,-1,2
 512 -239 512 -239 572 -298.5 c 128,-1,3
 632 -358 632 -358 632 -451 c 128,-1,4
 632 -544 632 -544 576 -607 c 128,-1,5
 520 -670 520 -670 408 -670 c 128,-1,6
 296 -670 296 -670 235.5 -577 c 128,-1,7
 175 -484 175 -484 176 -342 c 128,-1,8
 177 -200 177 -200 271.5 -106 c 0,9,10
 366 -12 366 -12 520 -12 c 128,-1,11
 674 -12 674 -12 772 -105 c 1,12,13
 864 -12 864 -12 1019.5 -12 c 0,14,15
 1175 -12 1175 -12 1269.5 -106.5 c 128,-1,16
 1364 -201 1364 -201 1364 -355 c 1,17,18
 1367 -482 1367 -482 1306 -576 c 128,-1,19
 1245 -670 1245 -670 1133 -670 c 128,-1,20
 1021 -670 1021 -670 965 -607 c 128,-1,21
 909 -544 909 -544 909 -451.5 c 128,-1,22
 909 -359 909 -359 969 -299 c 128,-1,23
 1029 -239 1029 -239 1115 -239 c 0,24,25
 1201 -239 1201 -239 1261 -298 c 1,26,27
 1234 -126 1234 -126 1086 -91 c 0,28,29
 1053 -84 1053 -84 1029 -84 c 0,30,31
 888 -84 888 -84 838 -179 c 0,32,33
 820 -213 820 -213 820 -268 c 2,34,-1
 820 -440 l 1,35,-1
 827 -665 l 1,36,-1
 801 -658 l 2,37,38
 785 -654 785 -654 768.5 -654 c 128,-1,39
 752 -654 752 -654 742 -658 c 2,40,-1
 713 -669 l 1,41,-1
 715 -637 l 1,42,43
 721 -559 721 -559 721 -440 c 2,44,-1
 721 -268 l 2,45,46
 721 -208 721 -208 704 -181 c 0,47,48
 644 -83 644 -83 525 -83 c 0,49,50
 406 -83 406 -83 342 -160 c 0,51,52
 293 -218 293 -218 280 -298 c 1,0,1
1127 -600 m 128,-1,54
 1183 -600 1183 -600 1214.5 -555 c 128,-1,55
 1246 -510 1246 -510 1246 -450.5 c 128,-1,56
 1246 -391 1246 -391 1213.5 -350.5 c 128,-1,57
 1181 -310 1181 -310 1125 -310 c 0,58,59
 1011 -310 1011 -310 1011 -455 c 0,60,61
 1011 -517 1011 -517 1041 -558.5 c 128,-1,53
 1071 -600 1071 -600 1127 -600 c 128,-1,54
413.5 -600 m 128,-1,63
 470 -600 470 -600 500 -558.5 c 128,-1,64
 530 -517 530 -517 530 -448 c 0,65,66
 530 -310 530 -310 411 -310 c 0,67,68
 360 -310 360 -310 327.5 -350.5 c 128,-1,69
 295 -391 295 -391 295 -451.5 c 128,-1,70
 295 -512 295 -512 326 -556 c 128,-1,62
 357 -600 357 -600 413.5 -600 c 128,-1,63
EndSplineSet
EndChar

StartChar: l2
Encoding: 150 -1 140
Width: 1482
VWidth: 2064
GlyphClass: 2
Flags: W
LayerCount: 2
Fore
SplineSet
281 -298 m 1,0,1
 340 -239 340 -239 426 -239 c 128,-1,2
 512 -239 512 -239 572 -299 c 128,-1,3
 632 -359 632 -359 632 -451.5 c 128,-1,4
 632 -544 632 -544 576 -607 c 128,-1,5
 520 -670 520 -670 408 -670.5 c 128,-1,6
 296 -671 296 -671 235.5 -577.5 c 128,-1,7
 175 -484 175 -484 176 -342 c 128,-1,8
 177 -200 177 -200 271 -106 c 0,9,10
 365 -12 365 -12 519.5 -12 c 128,-1,11
 674 -12 674 -12 773 -105 c 1,12,13
 865 -12 865 -12 1012 -11 c 128,-1,14
 1159 -10 1159 -10 1248.5 -93 c 128,-1,15
 1338 -176 1338 -176 1352 -306 c 1,16,17
 1482 -403 1482 -403 1482 -559 c 128,-1,18
 1482 -715 1482 -715 1385 -807 c 0,19,20
 1288 -899 1288 -899 1142 -899 c 128,-1,21
 996 -899 996 -899 936 -834 c 1,22,-1
 917 -812 l 1,23,-1
 944 -801 l 2,24,25
 966 -792 966 -792 971 -776 c 2,26,-1
 984 -741 l 1,27,-1
 1006 -771 l 1,28,29
 1044 -825 1044 -825 1148 -825 c 0,30,31
 1252 -825 1252 -825 1312.5 -750.5 c 128,-1,32
 1373 -676 1373 -676 1373 -578 c 128,-1,33
 1373 -480 1373 -480 1350 -431 c 1,34,35
 1315 -673 1315 -673 1114 -673 c 0,36,37
 1022 -673 1022 -673 965 -612.5 c 128,-1,38
 908 -552 908 -552 908 -456.5 c 128,-1,39
 908 -361 908 -361 971.5 -299 c 128,-1,40
 1035 -237 1035 -237 1108 -237 c 128,-1,41
 1181 -237 1181 -237 1241 -258 c 1,42,43
 1225 -188 1225 -188 1169 -136.5 c 128,-1,44
 1113 -85 1113 -85 1029 -85 c 0,45,46
 888 -85 888 -85 838 -180 c 0,47,48
 820 -214 820 -214 820 -269 c 2,49,-1
 820 -441 l 1,50,-1
 827 -666 l 1,51,-1
 801 -659 l 2,52,53
 785 -655 785 -655 768.5 -655 c 128,-1,54
 752 -655 752 -655 742 -659 c 2,55,-1
 713 -670 l 1,56,-1
 715 -639 l 2,57,58
 721 -560 721 -560 721 -441 c 2,59,-1
 721 -269 l 2,60,61
 721 -208 721 -208 704 -182 c 1,62,63
 644 -83 644 -83 525 -83 c 0,64,65
 406 -83 406 -83 342 -161 c 0,66,67
 294 -219 294 -219 281 -298 c 1,0,1
1250 -344 m 1,68,69
 1212 -314 1212 -314 1146.5 -314 c 128,-1,70
 1081 -314 1081 -314 1048.5 -357 c 128,-1,71
 1016 -400 1016 -400 1016 -462.5 c 128,-1,72
 1016 -525 1016 -525 1043.5 -563 c 128,-1,73
 1071 -601 1071 -601 1120.5 -601 c 128,-1,74
 1170 -601 1170 -601 1210.5 -546.5 c 128,-1,75
 1251 -492 1251 -492 1251 -376 c 0,76,77
 1251 -354 1251 -354 1250 -344 c 1,68,69
413.5 -601 m 128,-1,79
 470 -601 470 -601 500 -559.5 c 128,-1,80
 530 -518 530 -518 530 -448 c 0,81,82
 530 -311 530 -311 411 -311 c 0,83,84
 360 -311 360 -311 327.5 -351.5 c 128,-1,85
 295 -392 295 -392 295 -452 c 128,-1,86
 295 -512 295 -512 326 -556.5 c 128,-1,78
 357 -601 357 -601 413.5 -601 c 128,-1,79
EndSplineSet
EndChar

StartChar: l3.bb
Encoding: 151 -1 141
Width: 12
VWidth: 2064
GlyphClass: 3
Flags: W
LayerCount: 2
Fore
SplineSet
-382 -293 m 1,0,-1
 -393 -441 l 1,1,2
 -393 -513 -393 -513 -362 -545 c 128,-1,3
 -331 -577 -331 -577 -264 -577 c 128,-1,4
 -197 -577 -197 -577 -156.5 -504.5 c 128,-1,5
 -116 -432 -116 -432 -116 -352 c 0,6,7
 -116 -180 -116 -180 -256 -122 c 1,8,-1
 -284 -111 l 1,9,-1
 -262 -90 l 2,10,11
 -246 -74 -246 -74 -244 -50 c 2,12,-1
 -242 -26 l 1,13,-1
 -219 -32 l 2,14,15
 -117 -58 -117 -58 -52.5 -152.5 c 128,-1,16
 12 -247 12 -247 12 -367 c 128,-1,17
 12 -487 12 -487 -67.5 -573 c 128,-1,18
 -147 -659 -147 -659 -265.5 -659 c 128,-1,19
 -384 -659 -384 -659 -452.5 -600 c 128,-1,20
 -521 -541 -521 -541 -521 -438 c 2,21,-1
 -521 -437 l 1,22,-1
 -508 -274 l 1,23,24
 -508 -200 -508 -200 -568.5 -155 c 128,-1,25
 -629 -110 -629 -110 -708.5 -110 c 128,-1,26
 -788 -110 -788 -110 -863 -171 c 0,27,28
 -905 -205 -905 -205 -924 -238 c 1,29,30
 -876 -201 -876 -201 -806 -201 c 0,31,32
 -696 -201 -696 -201 -636 -261.5 c 128,-1,33
 -576 -322 -576 -322 -576 -422.5 c 128,-1,34
 -576 -523 -576 -523 -636.5 -589 c 128,-1,35
 -697 -655 -697 -655 -807.5 -655 c 128,-1,36
 -918 -655 -918 -655 -981.5 -568 c 128,-1,37
 -1045 -481 -1045 -481 -1045 -342.5 c 128,-1,38
 -1045 -204 -1045 -204 -945.5 -116.5 c 128,-1,39
 -846 -29 -846 -29 -708 -29 c 128,-1,40
 -570 -29 -570 -29 -476 -101 c 128,-1,41
 -382 -173 -382 -173 -382 -292 c 2,42,-1
 -382 -293 l 1,0,-1
-703 -428 m 128,-1,44
 -703 -283 -703 -283 -808 -283 c 0,45,46
 -861 -283 -861 -283 -888 -322 c 128,-1,47
 -915 -361 -915 -361 -915 -420.5 c 128,-1,48
 -915 -480 -915 -480 -887.5 -526.5 c 128,-1,49
 -860 -573 -860 -573 -807.5 -573 c 0,50,43
 -703 -573 -703 -573 -703 -428 c 128,-1,44
EndSplineSet
LCarets2: 1 0 
Ligature2: "'blwf' Below Base Forms in Malay+AQEA-lam2 lookup 2 subtable" xx l3
Ligature2: "'blwf' Below Base Forms in Malay+AQEA-lam lookup 2 subtable" l3 xx
EndChar

StartChar: y2
Encoding: 152 -1 142
Width: 580
VWidth: 2064
GlyphClass: 3
Flags: W
LayerCount: 2
Fore
SplineSet
284 1011 m 1,0,1
 317 998 317 998 347 998 c 128,-1,2
 377 998 377 998 398 1006 c 2,3,-1
 466 1030 l 1,4,-1
 420 974 l 2,5,6
 307 836 307 836 307 611 c 128,-1,7
 307 386 307 386 447 181 c 0,8,9
 530 59 530 59 535 49 c 0,10,11
 574 -25 574 -25 574 -132.5 c 128,-1,12
 574 -240 574 -240 497 -327.5 c 128,-1,13
 420 -415 420 -415 292 -415 c 0,14,15
 91 -415 91 -415 23 -258 c 1,16,-1
 15 -239 l 1,17,18
 72 -216 72 -216 91 -186 c 2,19,-1
 121 -141 l 1,20,-1
 128 -194 l 2,21,22
 135 -250 135 -250 176 -286 c 128,-1,23
 217 -322 217 -322 280.5 -322 c 128,-1,24
 344 -322 344 -322 390 -249.5 c 128,-1,25
 436 -177 436 -177 436 -88 c 128,-1,26
 436 1 436 1 348 140 c 0,27,28
 177 413 177 413 177 642 c 1,29,30
 172 722 172 722 199 828.5 c 128,-1,31
 226 935 226 935 284 1011 c 1,0,1
EndSplineSet
LCarets2: 1 0 
Ligature2: "'pstf' Post Base Forms in Malay+AQEA-lam2 lookup 3 subtable" xx y1
Ligature2: "'pstf' Post Base Forms in Malay+AQEA-lam lookup 3 subtable" y1 xx
EndChar

StartChar: r4
Encoding: 153 -1 143
Width: 690
VWidth: 2064
GlyphClass: 3
Flags: W
LayerCount: 2
Fore
SplineSet
678 -258 m 2,0,1
 627 -268 627 -268 575 -268 c 0,2,3
 380 -268 380 -268 272 -141 c 0,4,5
 165 -14 165 -14 169 186 c 1,6,7
 169 455 169 455 408 1023 c 1,8,-1
 429 1075 l 1,9,-1
 445 1021 l 2,10,11
 457 979 457 979 523 974 c 2,12,-1
 561 971 l 1,13,-1
 538 942 l 2,14,15
 514 911 514 911 452.5 770 c 128,-1,16
 391 629 391 629 365 556 c 0,17,18
 214 141 214 141 352 -38 c 0,19,20
 423 -129 423 -129 560 -129 c 0,21,22
 613 -129 613 -129 646 -113 c 2,23,-1
 683 -95 l 1,24,-1
 675 -135 l 2,25,26
 672 -147 672 -147 672 -177 c 128,-1,27
 672 -207 672 -207 689 -224 c 1,28,-1
 713 -251 l 1,29,-1
 678 -258 l 2,0,1
EndSplineSet
LCarets2: 1 0 
Ligature2: "'pref' Pre Base Forms in Malay+AQEA-lam2 lookup 1 subtatble" xx r3
Ligature2: "'pstf' Post Base Forms in Malay+AQEA-lam lookup 3 subtable" r3 xx
EndChar

StartChar: v2
Encoding: 154 -1 144
Width: 518
VWidth: 2064
GlyphClass: 3
Flags: W
LayerCount: 2
Fore
SplineSet
476 -266 m 1,0,1
 184 -258 184 -258 133 -258 c 0,2,3
 82 -258 82 -258 -18 -266 c 1,4,-1
 -47 -268 l 1,5,-1
 -39 -241 l 2,6,7
 -34 -223 -34 -223 -34 -205.5 c 128,-1,8
 -34 -188 -34 -188 -39 -169 c 2,9,-1
 -48 -138 l 1,10,-1
 -16 -144 l 1,11,12
 53 -159 53 -159 166 -159 c 0,13,14
 279 -159 279 -159 353 -146 c 1,15,-1
 353 559 l 2,16,17
 353 829 353 829 341 985 c 1,18,-1
 339 1018 l 1,19,-1
 369 1006 l 2,20,21
 387 998 387 998 417 998 c 0,22,23
 447 998 447 998 468 1006 c 2,24,-1
 496 1016 l 1,25,-1
 495 986 l 2,26,27
 487 767 487 767 487 575 c 2,28,-1
 487 122 l 2,29,30
 487 39 487 39 497 -245 c 1,31,-1
 498 -267 l 1,32,-1
 476 -266 l 1,0,1
EndSplineSet
Ligature2: "'pstf' Post Base Forms in Malay+AQEA-lam2 lookup 3 subtable" xx v1
Ligature2: "'pstf' Post Base Forms in Malay+AQEA-lam lookup 3 subtable" v1 xx
EndChar

